<svg width="790" height="108" viewBox="0 0 790 108" fill="none" xmlns="http://www.w3.org/2000/svg">
<path d="M0.644843 40.2885C48.1238 22.1978 84.6385 16.4389 141.905 24.7397C193.619 32.2357 248.214 54.7265 295.128 71.9404C353.211 93.2528 469.194 118.075 509.215 76.2509C540.29 43.7755 504.808 -3.46184 439.88 0.766177C414.849 2.39616 399.729 22.1287 408.886 38.0912C418.777 55.332 452.952 67.0452 476.775 73.5146C540.755 90.8894 588.709 56.3968 648.437 56.2737C704.239 56.1588 743.271 76.8611 782.46 103.286C785.816 105.55 785.412 93.0265 785.768 89.9473C787.074 78.6592 789.978 84.0722 788.991 92.6071C788.356 98.0962 791.47 110.283 780.398 105.843C772.411 102.639 755.133 100.125 745.877 99.0542" stroke="#1C1C1C" stroke-linecap="square" stroke-dasharray="2 2"/>
</svg>
