<svg width="643" height="111" viewBox="0 0 643 111" fill="none" xmlns="http://www.w3.org/2000/svg">
<g clip-path="url(#clip0_3153_2289)">
<path d="M69.6823 38.2774C67.5695 35.8803 64.9872 33.9968 61.9019 32.627C58.8166 31.2572 55.3288 30.5723 51.4386 30.5723C47.5485 30.5723 42.2162 31.7708 38.3596 34.168C34.5029 36.5652 31.4511 39.8184 29.1707 43.9278C26.8902 48.0373 25.75 52.7973 25.75 58.1738C25.75 63.5503 26.8567 68.1391 29.1036 72.3513C31.3505 76.5634 34.4694 79.9194 38.4602 82.3508C42.451 84.8165 47.0454 86.015 52.2435 86.015C57.4416 86.015 59.0178 85.4329 62.0025 84.3028C64.9872 83.1727 67.536 81.5974 69.6823 79.577C71.8286 77.5907 73.4048 75.3306 74.4444 72.8649L65.5909 68.4473C64.3165 70.7417 62.5726 72.591 60.3592 74.0293C58.1459 75.4676 55.463 76.1867 52.3441 76.1867C49.2253 76.1867 46.5424 75.4333 44.1278 73.9265C41.7132 72.4197 39.8687 70.3308 38.5608 67.6597C37.6553 65.8104 37.1523 63.7557 37.0181 61.4613H75.7188C75.92 60.6737 76.0541 59.8176 76.0877 58.8929C76.1547 57.9683 76.1883 57.078 76.1883 56.2561C76.1883 52.7973 75.6182 49.5098 74.5115 46.4277C73.4048 43.3457 71.7615 40.6061 69.6487 38.2432L69.6823 38.2774ZM38.5608 48.3797C39.7681 45.6743 41.512 43.5854 43.7589 42.1129C46.0058 40.6403 48.5545 39.9212 51.4386 39.9212C54.3227 39.9212 56.8379 40.6403 58.9843 42.1129C61.1306 43.5854 62.7403 45.5716 63.7799 48.1057C64.3836 49.5098 64.6854 51.0508 64.7525 52.6603H37.3199C37.5547 51.1193 37.9571 49.681 38.5608 48.3797Z" fill="#F0FCFF"/>
<path d="M124.859 37.938C123.216 35.986 121.238 34.3765 118.89 33.1437C115.671 31.4314 112.015 30.5753 107.823 30.5753C103.631 30.5753 98.4666 31.7739 94.5429 34.2053C90.6191 36.6367 87.5338 39.9242 85.2198 44.1021C82.9059 48.28 81.7656 53.0058 81.7656 58.2453C81.7656 63.4848 82.9059 68.1764 85.1863 72.3885C87.4668 76.5664 90.5521 79.8882 94.5093 82.3538C98.4666 84.8195 102.927 86.0181 107.924 86.0181C112.921 86.0181 115.536 85.1619 118.89 83.4497C121.506 82.1141 123.652 80.2991 125.329 78.0047V84.8195H135.625V10.5762H124.859V37.938ZM122.814 67.2518C121.439 69.8886 119.561 71.9776 117.146 73.4844C114.732 74.9911 112.049 75.7445 109.03 75.7445C106.012 75.7445 103.229 74.9911 100.814 73.4844C98.3995 71.9776 96.5215 69.8886 95.1801 67.2518C93.8386 64.6149 93.1679 61.6013 93.1679 58.2795C93.1679 54.9578 93.8386 51.9785 95.1801 49.3416C96.5215 46.739 98.3995 44.65 100.848 43.1432C103.296 41.6364 106.012 40.8831 109.03 40.8831C112.049 40.8831 114.765 41.6364 117.146 43.1432C119.561 44.65 121.439 46.7047 122.814 49.3416C124.189 51.9442 124.893 54.9235 124.893 58.2795C124.893 61.6356 124.189 64.6149 122.814 67.2518Z" fill="#F0FCFF"/>
<path d="M185.418 38.5856C183.674 36.3254 181.629 34.5104 179.214 33.1749C176.095 31.4284 172.574 30.5723 168.583 30.5723C164.592 30.5723 159.394 31.7024 155.605 33.9968C151.815 36.2912 148.83 39.4075 146.617 43.3114C144.404 47.2496 143.297 51.7357 143.297 56.7697C143.297 61.8038 144.404 66.2214 146.617 70.2281C148.83 74.2347 151.849 77.351 155.705 79.6455C159.562 81.9399 163.888 83.07 168.684 83.07C173.479 83.07 176.229 82.1796 179.415 80.4331C181.595 79.2345 183.406 77.625 184.949 75.673V82.4193C184.949 85.2959 184.312 87.7615 183.037 89.8162C181.763 91.8709 180.019 93.4462 177.839 94.5421C175.659 95.6379 173.178 96.1516 170.428 96.1516C167.678 96.1516 163.955 95.3297 161.541 93.6859C159.126 92.0422 157.483 89.9875 156.577 87.4876L146.583 91.6997C147.724 94.6448 149.468 97.2132 151.782 99.4049C154.096 101.597 156.845 103.309 160.031 104.542C163.251 105.774 166.739 106.391 170.495 106.391C174.251 106.391 179.784 105.329 183.574 103.24C187.363 101.151 190.314 98.2748 192.461 94.6448C194.607 91.0148 195.68 86.9054 195.68 82.3166V31.6681H185.385V38.4829L185.418 38.5856ZM182.97 64.9886C181.662 67.3857 179.885 69.2692 177.638 70.6732C175.391 72.0773 172.842 72.7964 169.958 72.7964C167.074 72.7964 164.391 72.0773 162.077 70.6732C159.763 69.2692 157.952 67.3515 156.644 64.9201C155.336 62.4887 154.666 59.8176 154.666 56.8725C154.666 53.9274 155.336 51.0508 156.644 48.6879C157.952 46.2908 159.763 44.4073 162.077 43.0032C164.391 41.5992 167.007 40.88 169.958 40.88C172.909 40.88 175.324 41.5992 177.537 43.0032C179.784 44.4073 181.562 46.325 182.903 48.7564C184.244 51.1878 184.915 53.8932 184.915 56.9067C184.915 59.9203 184.244 62.6257 182.937 64.9886H182.97Z" fill="#F0FCFF"/>
<path d="M252.209 46.5303C251.102 43.4483 249.459 40.7087 247.346 38.3458C245.234 35.9486 242.651 34.0651 239.566 32.6953C236.481 31.3255 232.993 30.6406 229.103 30.6406C225.213 30.6406 219.88 31.8392 216.024 34.2364C212.167 36.6335 209.115 39.8868 206.835 43.9962C204.554 48.1056 203.414 52.8657 203.414 58.2421C203.414 63.6186 204.521 68.2075 206.768 72.4196C209.015 76.6317 212.133 79.9878 216.124 82.4192C220.115 84.8848 224.709 86.0834 229.908 86.0834C235.106 86.0834 236.682 85.5012 239.667 84.3711C242.651 83.241 245.2 81.6658 247.346 79.6453C249.493 77.6591 251.069 75.3989 252.108 72.9333L243.255 68.5157C241.981 70.8101 240.237 72.6593 238.023 74.0976C235.81 75.5359 233.127 76.2551 230.008 76.2551C226.889 76.2551 224.206 75.5017 221.792 73.9949C219.377 72.4881 217.533 70.3991 216.225 67.728C215.319 65.8788 214.816 63.8241 214.682 61.5297H253.383C253.584 60.742 253.718 59.8859 253.752 58.9613C253.819 58.0367 253.852 57.1463 253.852 56.3244C253.852 52.8657 253.282 49.5781 252.176 46.4961L252.209 46.5303ZM216.191 48.4138C217.399 45.7085 219.142 43.6195 221.389 42.147C223.636 40.6744 226.185 39.9553 229.069 39.9553C231.953 39.9553 234.468 40.6744 236.615 42.147C238.761 43.6195 240.371 45.6057 241.41 48.1399C242.014 49.5439 242.316 51.0849 242.383 52.6944H214.95C215.185 51.1534 215.588 49.7151 216.191 48.4138Z" fill="#F0FCFF"/>
<path d="M310.2 68.3502L323.313 31.7422H313.923L300.844 68.3502H310.2Z" fill="#CC7722"/>
<path d="M291.218 76.1923L307.114 31.7422H297.724L281.828 76.1923H291.218Z" fill="#CC7722"/>
<path d="M262.82 84.0687L281.5 31.7422H290.89L272.21 84.0687H262.82Z" fill="#CC7722"/>
<path d="M262.82 84.0687L281.5 31.7422H290.89L272.21 84.0687H262.82Z" fill="#CC7722"/>
<path d="M348.007 42.0724C350.522 40.4286 353.373 39.6067 356.525 39.6067C359.678 39.6067 362.662 40.4628 365.178 42.2093C367.693 43.9558 369.537 46.1818 370.745 48.9214L378.726 44.9832C377.687 42.1751 376.077 39.7094 373.83 37.6205C371.583 35.5315 369.001 33.8535 366.05 32.6207C363.098 31.3879 359.946 30.7715 356.525 30.7715C351.461 30.7715 346.968 31.9701 343.01 34.4015C339.053 36.8329 335.968 40.0861 333.721 44.2298C331.474 48.3392 330.367 53.065 330.367 58.373C330.367 63.681 331.474 68.3041 333.721 72.5162C335.968 76.6941 339.053 80.0159 343.01 82.4131C346.934 84.8445 351.461 86.043 356.525 86.043C361.589 86.043 363.098 85.4266 366.05 84.1938C369.001 82.961 371.583 81.283 373.83 79.1255C376.077 77.0023 377.72 74.5709 378.726 71.7971L370.745 67.6877C369.537 70.5643 367.659 72.8587 365.178 74.6052C362.662 76.3517 359.778 77.2078 356.525 77.2078C353.272 77.2078 350.556 76.3859 348.007 74.7422C345.492 73.0984 343.48 70.8725 342.004 68.0301C340.529 65.1878 339.791 62.003 339.791 58.4757C339.791 54.9485 340.529 51.5582 342.004 48.7501C343.48 45.942 345.492 43.7161 348.007 42.0724Z" fill="#F0FCFF"/>
<path d="M418.72 33.0659C415.702 31.5249 412.214 30.7715 408.257 30.7715C404.299 30.7715 402.22 31.3194 399.403 32.4495C396.586 33.5796 394.104 35.0864 391.992 37.0041C389.879 38.9218 388.336 41.1135 387.364 43.5449L395.144 47.6543C396.217 45.0859 397.927 43.0655 400.174 41.5244C402.455 39.9834 405.071 39.23 408.022 39.23C410.973 39.23 414.159 40.1204 416.238 41.9354C418.317 43.7504 419.357 46.079 419.357 48.9556V51.387L401.683 54.3663C397.827 55.017 394.641 56.1471 392.126 57.6881C389.577 59.2634 387.732 61.1811 386.559 63.4413C385.385 65.7015 384.781 68.2356 384.781 71.0437C384.781 73.8518 385.519 76.5914 386.995 78.8516C388.47 81.1117 390.516 82.8925 393.098 84.1595C395.68 85.4266 398.699 86.0773 402.086 86.0773C405.473 86.0773 407.753 85.6321 410.269 84.7075C412.784 83.7828 414.93 82.55 416.808 80.9748C417.881 80.0844 418.787 79.0913 419.592 78.0297V84.9129H428.345V48.9899C428.345 45.3941 427.506 42.2436 425.796 39.504C424.086 36.7986 421.738 34.6754 418.72 33.1344V33.0659ZM417.311 70.4273C415.936 72.8587 414.058 74.7764 411.644 76.1804C409.229 77.5845 406.412 78.3036 403.125 78.3036C399.839 78.3036 398.43 77.5845 396.72 76.1462C395.01 74.7079 394.171 72.8929 394.171 70.7355C394.171 68.578 394.909 66.5233 396.418 64.9481C397.927 63.3728 400.342 62.3112 403.662 61.6948L419.323 59.0237V62.3797C419.323 65.3248 418.619 67.9959 417.244 70.4273H417.311Z" fill="#F0FCFF"/>
<path d="M479.3 34.4015C475.41 31.9701 471.05 30.7715 466.187 30.7715C461.325 30.7715 458.072 31.6961 454.751 33.5796C452.035 35.0864 449.788 37.0383 448.011 39.4012V31.9358H439.258V104.467H448.212V77.4133C449.922 79.7762 452.069 81.6939 454.684 83.1664C458.105 85.0499 461.895 86.0088 466.087 86.0088C470.279 86.0088 475.41 84.8102 479.3 82.3788C483.19 79.9474 486.242 76.6599 488.489 72.482C490.736 68.3041 491.842 63.6125 491.842 58.4415C491.842 53.2705 490.736 48.4077 488.489 44.264C486.242 40.1204 483.19 36.8329 479.3 34.4015ZM480.172 68.0301C478.73 70.8725 476.718 73.1326 474.169 74.7421C471.62 76.3859 468.702 77.2078 465.416 77.2078C462.129 77.2078 459.212 76.3859 456.629 74.7421C454.047 73.0984 451.968 70.8725 450.492 68.0301C448.983 65.1878 448.245 62.003 448.245 58.4757C448.245 54.9485 448.983 51.661 450.492 48.8186C452.002 45.9763 454.047 43.7161 456.629 42.1066C459.212 40.4628 462.163 39.641 465.416 39.641C468.669 39.641 471.587 40.4628 474.169 42.1408C476.718 43.8189 478.73 46.0448 480.172 48.8186C481.614 51.5925 482.318 54.8115 482.318 58.4757C482.318 62.14 481.58 65.1878 480.172 68.0301Z" fill="#F0FCFF"/>
<path d="M509.665 31.9395H500.711V84.8481H509.665V31.9395Z" fill="#F0FCFF"/>
<path d="M509.665 11.7441H500.711V23.5244H509.665V11.7441Z" fill="#F0FCFF"/>
<path d="M543.442 77.1201C541.329 77.1201 539.619 76.7434 538.344 75.99C537.07 75.2366 536.165 74.2093 535.594 72.908C535.058 71.6067 534.79 70.0656 534.79 68.2849V40.7176H546.427V31.9851H534.79V19.8281H525.835V24.143C525.835 26.5059 525.165 28.3894 523.823 29.8277C522.482 31.266 520.637 31.9851 518.357 31.9851H516.445V40.7176H525.869V68.5931C525.869 73.9696 527.244 78.1132 529.96 81.0583C532.677 84.0034 536.567 85.4759 541.631 85.4759C546.695 85.4759 543.207 85.4417 544.213 85.3389C545.253 85.2362 546.158 85.0992 546.997 84.8938V76.8462C546.427 76.9147 545.789 76.9831 545.119 77.0516C544.448 77.1201 543.878 77.1544 543.442 77.1544V77.1201Z" fill="#F0FCFF"/>
<path d="M586.915 33.0659C583.897 31.5249 580.409 30.7715 576.452 30.7715C572.495 30.7715 570.415 31.3194 567.598 32.4495C564.781 33.5796 562.3 35.0864 560.187 37.0041C558.074 38.9218 556.531 41.1135 555.559 43.5449L563.339 47.6543C564.412 45.0859 566.123 43.0655 568.37 41.5244C570.65 39.9834 573.266 39.23 576.217 39.23C579.168 39.23 582.354 40.1204 584.433 41.9354C586.513 43.7504 587.552 46.079 587.552 48.9556V51.387L569.879 54.3663C566.022 55.017 562.836 56.1471 560.321 57.6881C557.772 59.2634 555.928 61.1811 554.754 63.4413C553.58 65.7015 552.977 68.2356 552.977 71.0437C552.977 73.8518 553.714 76.5914 555.19 78.8516C556.666 81.1117 558.711 82.8925 561.293 84.1595C563.876 85.4266 566.894 86.0773 570.281 86.0773C573.668 86.0773 575.949 85.6321 578.464 84.7075C580.979 83.7828 583.126 82.55 585.004 80.9748C586.077 80.0844 586.982 79.0913 587.787 78.0297V84.9129H596.54V48.9899C596.54 45.3941 595.702 42.2436 593.991 39.504C592.281 36.7986 589.933 34.6754 586.915 33.1344V33.0659ZM585.507 70.4273C584.132 72.8587 582.254 74.7764 579.839 76.1804C577.424 77.5845 574.607 78.3036 571.321 78.3036C568.034 78.3036 566.626 77.5845 564.915 76.1462C563.205 74.7079 562.367 72.8929 562.367 70.7355C562.367 68.578 563.104 66.5233 564.614 64.9481C566.123 63.3728 568.537 62.3112 571.857 61.6948L587.519 59.0237V62.3797C587.519 65.3248 586.814 67.9959 585.439 70.4273H585.507Z" fill="#F0FCFF"/>
<path d="M616.438 10.5762H607.484V84.888H616.438V10.5762Z" fill="#F0FCFF"/>
</g>
<defs>
<clipPath id="clip0_3153_2289">
<rect width="643" height="110.715" fill="white"/>
</clipPath>
</defs>
</svg>
