<svg width="24" height="25" viewBox="0 0 24 25" fill="none" xmlns="http://www.w3.org/2000/svg">
<g clip-path="url(#clip0_717_28005)">
<path d="M23.4634 11.4215L21.4133 10.7437C21.3288 10.3086 21.2143 9.87994 21.0706 9.4607L22.5096 7.84694L22.3694 7.5575C22.1254 7.05501 21.8453 6.57086 21.5314 6.10886L21.3509 5.84342L19.2432 6.28214C18.9503 5.94587 18.6347 5.63009 18.2986 5.33702L18.7373 3.22934L18.4718 3.04886C18.0101 2.73489 17.5261 2.45495 17.0237 2.21126L16.7347 2.0711L15.12 3.51062C14.7008 3.36681 14.2721 3.25229 13.837 3.1679L13.1587 1.11782L12.839 1.0943C12.2806 1.05398 11.7199 1.05398 11.1614 1.0943L10.8413 1.11734L10.163 3.1679C9.72768 3.25238 9.29808 3.3671 8.88 3.51062L7.26576 2.0711L6.97632 2.21174C6.47411 2.45597 5.99014 2.73606 5.52816 3.04982L5.26272 3.23078L5.70144 5.33798C5.36544 5.6303 5.04912 5.9471 4.7568 6.28262L2.6496 5.84438L2.46912 6.10982C2.15491 6.57176 1.87465 7.05592 1.63056 7.55846L1.4904 7.8479L2.92944 9.4607C2.78577 9.87993 2.67142 10.3086 2.5872 10.7437L0.53712 11.4215L0.513601 11.7417C0.493441 12.0196 0.48 12.298 0.48 12.5807C0.48 12.8634 0.493441 13.1418 0.513601 13.4197L0.536641 13.7399L2.58672 14.4177C2.6712 14.8535 2.7864 15.2836 2.92944 15.7007L1.4904 17.3145L1.63056 17.6039C1.87456 18.1064 2.15466 18.5905 2.46864 19.0525L2.64912 19.318L4.7568 18.8793C5.0497 19.2155 5.36532 19.5313 5.70144 19.8244L5.26272 21.9321L5.52816 22.1125C5.98992 22.4265 6.47392 22.7064 6.97632 22.9501L7.26528 23.0903L8.87952 21.6517C9.2976 21.7953 9.7272 21.91 10.1626 21.9945L10.8408 24.0445L11.161 24.0676C11.4384 24.0873 11.7178 24.1007 12 24.1007C12.2822 24.1007 12.5616 24.0873 12.839 24.0671L13.1592 24.0441L13.837 21.994C14.2721 21.9098 14.7008 21.7953 15.12 21.6513L16.7342 23.0908L17.0237 22.9501C17.5259 22.7059 18.0099 22.4258 18.4718 22.1121L18.7373 21.9311L18.2986 19.8239C18.6346 19.5316 18.9509 19.2148 19.2432 18.8793L21.3504 19.3175L21.5309 19.0521C21.8451 18.5901 22.1254 18.106 22.3694 17.6034L22.5096 17.314L21.0701 15.7007C21.2131 15.2836 21.3283 14.8535 21.4128 14.4177L23.4629 13.7399L23.4859 13.4197C23.5066 13.1418 23.52 12.8634 23.52 12.5807C23.52 12.298 23.5066 12.0196 23.4864 11.7417L23.4634 11.4215ZM22.5485 13.0309L20.5637 13.6871L20.5166 13.9746C20.4251 14.542 20.2765 15.0988 20.0731 15.6364L19.9699 15.9085L21.3614 17.4695C21.2228 17.7345 21.0729 17.9935 20.9122 18.2457L18.8736 17.8213L18.6893 18.0465C18.3229 18.4937 17.913 18.9036 17.4658 19.27L17.2406 19.4543L17.665 21.4933C17.4134 21.6532 17.1542 21.8034 16.8893 21.9426L15.3283 20.5506L15.0562 20.6543C14.5186 20.8573 13.9621 21.0059 13.3949 21.0978L13.1074 21.1449L12.4512 23.1297C12.1526 23.1445 11.8488 23.1445 11.5502 23.1297L10.8936 21.1449L10.6061 21.0978C10.0387 21.006 9.48192 20.8573 8.94432 20.6538L8.67216 20.5511L7.11072 21.9421C6.84589 21.8035 6.5871 21.6536 6.33504 21.4929L6.75936 19.4543L6.53424 19.27C6.087 18.9037 5.6773 18.4938 5.3112 18.0465L5.12688 17.8209L3.08784 18.2457C2.92725 17.9934 2.77735 17.7344 2.63856 17.4695L4.03008 15.9085L3.92688 15.6364C3.72351 15.0988 3.57491 14.542 3.48336 13.9746L3.43632 13.6871L1.45152 13.0309C1.44432 12.8821 1.44 12.7319 1.44 12.5807C1.44 12.4295 1.44432 12.2793 1.45152 12.1305L3.43632 11.4743L3.48336 11.1868C3.57552 10.6165 3.7248 10.0573 3.92688 9.52502L4.03008 9.25286L2.63856 7.6919C2.77728 7.42694 2.92704 7.16774 3.08784 6.91574L5.1264 7.34006L5.31072 7.11494C5.67712 6.66766 6.08696 6.25781 6.53424 5.89142L6.75936 5.7071L6.33504 3.66806C6.58733 3.50772 6.84611 3.35783 7.11072 3.21878L8.67168 4.6103L8.94384 4.50758C9.48153 4.30442 10.0382 4.15567 10.6056 4.06358L10.8931 4.01654L11.5493 2.03174C11.8494 2.01686 12.1501 2.01686 12.4502 2.03174L13.1069 4.01654L13.3944 4.06358C13.9622 4.15526 14.521 4.30502 15.0562 4.50758L15.3283 4.6103L16.8898 3.21926C17.1533 3.35702 17.413 3.50774 17.6654 3.66854L17.2411 5.7071L17.4662 5.89142C17.9135 6.25769 18.3232 6.66755 18.6893 7.11494L18.8736 7.34054L20.9126 6.91574C21.073 7.16774 21.2232 7.42694 21.3619 7.6919L19.9704 9.25286L20.0736 9.52502C20.2757 10.0578 20.425 10.617 20.5171 11.1868L20.5642 11.4743L22.549 12.1305C22.5633 12.4304 22.5632 12.731 22.5485 13.0309Z" fill="black"/>
<path d="M12 7.78073C7.83072 7.78073 4.5528 12.1094 4.41552 12.2937L4.20096 12.5807L4.41504 12.8678C4.5528 13.0521 7.83072 17.3807 12 17.3807C16.1693 17.3807 19.4472 13.0521 19.5845 12.8678L19.799 12.5807L19.585 12.2937C19.4472 12.1094 16.1693 7.78073 12 7.78073ZM12 16.4207C8.89392 16.4207 6.20352 13.5172 5.4168 12.5807C6.204 11.6443 8.8944 8.74073 12 8.74073C15.1056 8.74073 17.7965 11.6443 18.5832 12.5807C17.7965 13.5172 15.1061 16.4207 12 16.4207Z" fill="black"/>
<path d="M12 9.70071C10.4117 9.70071 9.12 10.9924 9.12 12.5807C9.12 14.169 10.4117 15.4607 12 15.4607C13.5883 15.4607 14.88 14.169 14.88 12.5807C14.88 10.9924 13.5883 9.70071 12 9.70071ZM12 14.5007C10.9411 14.5007 10.08 13.6396 10.08 12.5807C10.08 11.5218 10.9411 10.6607 12 10.6607C13.0589 10.6607 13.92 11.5218 13.92 12.5807C13.92 13.6396 13.0589 14.5007 12 14.5007Z" fill="black"/>
</g>
<defs>
<clipPath id="clip0_717_28005">
<rect width="24" height="24" fill="white" transform="translate(0 0.580719)"/>
</clipPath>
</defs>
</svg>
