<svg width="250" height="79" viewBox="0 0 250 79" fill="none" xmlns="http://www.w3.org/2000/svg">
<path d="M12.2783 48.7969H11.0283V64.6724H12.2783V48.7969Z" fill="#EDFCFF"/>
<path d="M22.9948 53.6366C22.3698 53.2776 21.6667 53.1047 20.9115 53.1047C20.1563 53.1047 19.2969 53.3308 18.6458 53.7695C18.2161 54.0621 17.8646 54.4343 17.6172 54.8731V53.3707H16.3672V64.6856H17.6172V57.8647C17.6172 57.1866 17.7474 56.575 17.9948 56.0565C18.2422 55.5379 18.6068 55.1124 19.0755 54.8199C19.5443 54.5274 20.1042 54.3679 20.7292 54.3679C21.3542 54.3679 21.862 54.5008 22.3307 54.7667C22.7995 55.0327 23.1641 55.405 23.4245 55.8969C23.6849 56.3889 23.8151 56.9739 23.8151 57.652V64.6856H25.0651V57.293C25.0651 56.4819 24.8828 55.764 24.5052 55.1257C24.1276 54.4875 23.6328 53.9956 23.0078 53.6499L22.9948 53.6366Z" fill="#EDFCFF"/>
<path d="M32.3701 62.9171L28.7243 53.3572H27.3311L31.7061 64.6722H33.0081L37.4482 53.3572H36.016L32.3701 62.9171Z" fill="#EDFCFF"/>
<path d="M48.5023 54.7136C48.0466 54.2083 47.5127 53.8094 46.9007 53.5302C46.2757 53.251 45.5856 53.1047 44.8304 53.1047C44.0752 53.1047 42.9294 53.3574 42.1221 53.8759C41.3148 54.3812 40.6768 55.0859 40.208 55.9767C39.7393 56.8675 39.5049 57.8647 39.5049 58.9949C39.5049 60.1251 39.7523 61.1356 40.2341 62.0264C40.7158 62.9306 41.3799 63.6353 42.2132 64.1538C43.0466 64.6723 43.984 64.9383 45.0257 64.9383C46.0674 64.9383 46.3929 64.8186 46.9919 64.5793C47.5908 64.3399 48.1247 64.0075 48.5934 63.5821C49.0492 63.1699 49.4137 62.6912 49.6611 62.1594L48.5934 61.5877C48.2158 62.2392 47.7341 62.7577 47.1351 63.1566C46.5361 63.5422 45.833 63.7416 45.0257 63.7416C44.2184 63.7416 43.5153 63.5422 42.8512 63.13C42.2002 62.7311 41.6794 62.1727 41.3018 61.4547C40.9762 60.8564 40.807 60.165 40.7809 59.4071H49.8304C49.8564 59.2342 49.8825 59.0747 49.8955 58.9151C49.9085 58.7556 49.9216 58.6093 49.9216 58.4631C49.9216 57.7584 49.8044 57.0803 49.557 56.4288C49.3096 55.7773 48.971 55.2055 48.5153 54.7003L48.5023 54.7136ZM41.2627 56.5617C41.6273 55.857 42.1221 55.2986 42.7471 54.8997C43.3721 54.5008 44.0622 54.2881 44.8174 54.2881C45.5726 54.2881 46.2367 54.4875 46.8356 54.8731C47.4216 55.2587 47.8773 55.7906 48.2028 56.4554C48.4632 57.0005 48.5934 57.5855 48.5804 58.237H40.7939C40.859 57.6254 41.0153 57.067 41.2627 56.5617Z" fill="#EDFCFF"/>
<path d="M58.2819 58.5563L56.4199 57.9978C56.1335 57.9181 55.847 57.7984 55.5736 57.6521C55.3001 57.5059 55.0788 57.3064 54.9225 57.0804C54.7663 56.8544 54.6751 56.5486 54.6751 56.1896C54.6751 55.6311 54.8835 55.1791 55.3001 54.8201C55.7168 54.4611 56.2637 54.2749 56.9277 54.2749C57.5918 54.2749 58.1517 54.4611 58.6855 54.8201C59.2194 55.1791 59.623 55.6843 59.9225 56.3225L61.0553 55.7907C60.7428 54.9663 60.222 54.3148 59.4668 53.8362C58.7116 53.3575 57.8783 53.1182 56.9668 53.1182C56.0553 53.1182 55.7168 53.2511 55.1699 53.517C54.623 53.783 54.1934 54.1553 53.8809 54.6206C53.5553 55.0993 53.3991 55.6577 53.3991 56.2959C53.3991 56.9341 53.6204 57.6255 54.0762 58.1441C54.5319 58.6759 55.235 59.0615 56.1986 59.3407L57.9043 59.8327C58.2428 59.9125 58.5553 60.0454 58.8418 60.205C59.1283 60.3645 59.3757 60.5773 59.5579 60.8299C59.7402 61.0825 59.8444 61.4016 59.8444 61.7606C59.8444 62.359 59.597 62.8376 59.1022 63.1966C58.6074 63.5556 57.9954 63.7418 57.2793 63.7418C56.5632 63.7418 55.9251 63.5423 55.3392 63.1301C54.7533 62.7312 54.2845 62.1728 53.946 61.4814L52.8652 61.9867C53.2298 62.8908 53.8027 63.6088 54.571 64.1406C55.3522 64.6725 56.2507 64.9251 57.2793 64.9251C58.3079 64.9251 58.6725 64.7921 59.2585 64.5129C59.8444 64.2337 60.3001 63.8614 60.6387 63.3695C60.9772 62.8908 61.1335 62.3457 61.1335 61.734C61.1335 61.1224 60.8861 60.3247 60.3913 59.7795C59.8965 59.2211 59.1934 58.8222 58.2949 58.5696L58.2819 58.5563Z" fill="#EDFCFF"/>
<path d="M68.958 63.5821C68.4632 63.5821 68.0726 63.489 67.8122 63.3028C67.5518 63.1167 67.3695 62.8774 67.2783 62.5849C67.1872 62.2923 67.1481 61.9865 67.1481 61.6674V54.5673H69.57V53.3574H67.1481V50.7114H65.8981V51.9214C65.8981 52.3601 65.7809 52.7058 65.5596 52.9718C65.3382 53.2244 65.0127 53.3574 64.596 53.3574H63.8018V54.5673H65.8851V61.6674C65.8851 62.6912 66.1325 63.4624 66.6403 64.0075C67.1481 64.5527 67.8512 64.8053 68.7627 64.8053C69.6742 64.8053 69.0231 64.8053 69.2184 64.7787C69.4137 64.7521 69.583 64.7255 69.7393 64.6856V63.5289C69.6481 63.5422 69.5179 63.5555 69.3486 63.5688C69.1794 63.5821 69.0492 63.5954 68.945 63.5954L68.958 63.5821Z" fill="#EDFCFF"/>
<path d="M74.6357 53.3574H73.3857V64.6724H74.6357V53.3574Z" fill="#EDFCFF"/>
<path d="M74.6357 48.7969H73.3857V51.137H74.6357V48.7969Z" fill="#EDFCFF"/>
<path d="M85.3512 53.6366C84.7262 53.2776 84.0231 53.1047 83.2679 53.1047C82.5127 53.1047 81.6533 53.3308 81.0023 53.7695C80.5726 54.0621 80.221 54.4343 79.9736 54.8731V53.3707H78.7236V64.6856H79.9736V57.8647C79.9736 57.1866 80.1038 56.575 80.3512 56.0565C80.5986 55.5379 80.9632 55.1124 81.432 54.8199C81.9007 54.5274 82.4606 54.3679 83.0856 54.3679C83.7106 54.3679 84.2184 54.5008 84.6872 54.7667C85.1559 55.0327 85.5205 55.405 85.7809 55.8969C86.0413 56.3889 86.1716 56.9739 86.1716 57.652V64.6856H87.4216V57.293C87.4216 56.4819 87.2393 55.764 86.8617 55.1257C86.484 54.4875 85.9893 53.9956 85.3643 53.6499L85.3512 53.6366Z" fill="#EDFCFF"/>
<path d="M100.417 55.405C100.013 54.7668 99.4922 54.2482 98.8542 53.836C98.0729 53.3441 97.2005 53.1047 96.224 53.1047C95.2474 53.1047 94.2578 53.3574 93.4375 53.8759C92.6172 54.3812 91.9792 55.0726 91.5234 55.9368C91.0547 56.8011 90.8203 57.7584 90.8203 58.8088C90.8203 59.8592 91.0547 60.8165 91.5234 61.6807C91.9922 62.545 92.6302 63.2364 93.4505 63.7416C94.2708 64.2469 95.1953 64.5128 96.224 64.5128C97.2526 64.5128 98.0859 64.2602 98.8802 63.7549C99.5313 63.3427 100.039 62.7976 100.43 62.1328V64.2602C100.43 65.1244 100.234 65.8424 99.8568 66.4274C99.4792 66.9992 98.9844 67.4246 98.3854 67.7039C97.7865 67.9831 97.1354 68.116 96.4453 68.116C95.7552 68.116 94.8437 67.9166 94.2187 67.5177C93.5937 67.1188 93.138 66.6136 92.8255 66.002L91.6927 66.6136C91.9531 67.1321 92.3177 67.6108 92.7734 68.023C93.2292 68.4351 93.776 68.7675 94.401 69.0069C95.026 69.2462 95.7031 69.3659 96.4453 69.3659C97.1875 69.3659 98.3594 69.1398 99.1536 68.7011C99.9349 68.2623 100.56 67.6507 101.003 66.8795C101.445 66.1083 101.667 65.2308 101.667 64.2469V53.3574H100.417V55.405ZM99.8307 61.0159C99.4661 61.694 98.9844 62.2259 98.3594 62.6247C97.7344 63.0236 97.0443 63.2231 96.263 63.2231C95.4818 63.2231 94.7396 63.0236 94.1276 62.6247C93.5026 62.2259 93.0208 61.694 92.6823 61.0159C92.3307 60.3378 92.1615 59.5932 92.1615 58.7955C92.1615 57.9977 92.3307 57.2531 92.6823 56.575C93.0339 55.9102 93.5156 55.3784 94.1406 54.9795C94.7656 54.5806 95.4818 54.3812 96.263 54.3812C97.0443 54.3812 97.7474 54.5806 98.3594 54.9795C98.9844 55.3784 99.4661 55.9102 99.8307 56.575C100.195 57.2398 100.378 57.9844 100.378 58.7955C100.378 59.6065 100.195 60.3511 99.8307 61.0159Z" fill="#EDFCFF"/>
<path d="M119.623 62.7309L116.875 53.3572H115.612L112.865 62.7309L109.831 53.3572H108.425L112.227 64.6722H113.503L116.237 55.325L118.985 64.6722H120.261L124.076 53.3572H122.683L119.623 62.7309Z" fill="#EDFCFF"/>
<path d="M128.021 53.3572H126.771V64.6722H128.021V53.3572Z" fill="#EDFCFF"/>
<path d="M128.021 48.7966H126.771V51.1367H128.021V48.7966Z" fill="#EDFCFF"/>
<path d="M136.302 63.5821C135.807 63.5821 135.416 63.489 135.156 63.3028C134.896 63.1167 134.713 62.8774 134.622 62.5849C134.531 62.2923 134.492 61.9865 134.492 61.6674V54.5673H136.914V53.3574H134.492V50.7114H133.242V51.9214C133.242 52.3601 133.125 52.7058 132.903 52.9718C132.682 53.2244 132.356 53.3574 131.94 53.3574H131.146V54.5673H133.229V61.6674C133.229 62.6912 133.476 63.4624 133.984 64.0075C134.479 64.5394 135.195 64.8053 136.106 64.8053C137.018 64.8053 136.367 64.8053 136.562 64.7787C136.757 64.7521 136.927 64.7255 137.083 64.6856V63.5289C136.992 63.5422 136.862 63.5555 136.692 63.5688C136.523 63.5821 136.393 63.5954 136.289 63.5954L136.302 63.5821Z" fill="#EDFCFF"/>
<path d="M147.37 53.6365C146.745 53.2775 146.042 53.1046 145.286 53.1046C144.531 53.1046 143.672 53.3307 143.021 53.7694C142.591 54.062 142.24 54.4343 141.992 54.873V48.5574H140.742V64.6855H141.992V57.8646C141.992 57.1865 142.122 56.5749 142.383 56.0564C142.643 55.5378 142.995 55.1123 143.464 54.8198C143.932 54.5273 144.479 54.3678 145.104 54.3678C145.729 54.3678 146.211 54.5007 146.68 54.7667C147.148 55.0326 147.513 55.4049 147.786 55.8968C148.06 56.3888 148.19 56.9738 148.19 57.6519V64.6855H149.44V57.2929C149.44 56.4818 149.258 55.7639 148.88 55.1256C148.503 54.4874 148.008 53.9955 147.383 53.6498L147.37 53.6365Z" fill="#EDFCFF"/>
<path d="M163.906 53.5834C163.281 53.2643 162.578 53.1047 161.771 53.1047C160.963 53.1047 160.521 53.2244 159.961 53.4504C159.388 53.6765 158.893 53.9823 158.463 54.3679C158.034 54.7535 157.708 55.1656 157.5 55.631L158.632 56.2426C158.919 55.6709 159.349 55.2188 159.909 54.8598C160.468 54.5008 161.093 54.328 161.784 54.328C162.474 54.328 163.32 54.5673 163.854 55.0327C164.388 55.498 164.648 56.1097 164.648 56.8675V57.5057L160.494 58.2104C159.648 58.3567 158.958 58.596 158.424 58.9417C157.89 59.2874 157.513 59.6996 157.278 60.1916C157.044 60.6702 156.927 61.1888 156.927 61.7472C156.927 62.3056 157.083 62.9306 157.409 63.4092C157.734 63.8879 158.164 64.2735 158.698 64.5394C159.244 64.8053 159.856 64.9383 160.56 64.9383C161.263 64.9383 161.862 64.8186 162.422 64.5926C162.981 64.3665 163.476 64.0474 163.893 63.6751C164.218 63.3826 164.466 63.0768 164.648 62.7444V64.6989H165.898V56.8808C165.898 56.1362 165.729 55.498 165.377 54.9263C165.026 54.3679 164.544 53.9291 163.932 53.61L163.906 53.5834ZM162.721 63.1965C162.122 63.5688 161.419 63.7549 160.612 63.7549C159.804 63.7549 159.336 63.5688 158.893 63.1832C158.437 62.7976 158.216 62.3056 158.216 61.694C158.216 61.0824 158.411 60.6303 158.802 60.2049C159.192 59.7794 159.856 59.4869 160.807 59.3273L164.622 58.6758V59.6597C164.622 60.4043 164.453 61.0824 164.127 61.694C163.802 62.3056 163.333 62.8109 162.734 63.1832L162.721 63.1965Z" fill="#EDFCFF"/>
<path d="M176.589 53.6366C175.964 53.2776 175.26 53.1047 174.505 53.1047C173.75 53.1047 172.891 53.3308 172.24 53.7695C171.81 54.0621 171.458 54.4343 171.211 54.8731V53.3707H169.961V64.6856H171.211V57.8647C171.211 57.1866 171.341 56.575 171.589 56.0565C171.836 55.5379 172.201 55.1124 172.669 54.8199C173.138 54.5274 173.698 54.3679 174.323 54.3679C174.948 54.3679 175.456 54.5008 175.924 54.7667C176.393 55.0327 176.758 55.405 177.018 55.8969C177.279 56.3889 177.409 56.9739 177.409 57.652V64.6856H178.659V57.293C178.659 56.4819 178.477 55.764 178.099 55.1257C177.721 54.4875 177.227 53.9956 176.602 53.6499L176.589 53.6366Z" fill="#EDFCFF"/>
<path d="M195.143 54.7136C194.687 54.2083 194.153 53.8094 193.541 53.5302C192.916 53.251 192.226 53.1047 191.471 53.1047C190.716 53.1047 189.57 53.3574 188.763 53.8759C187.955 54.3812 187.317 55.0859 186.849 55.9767C186.38 56.8675 186.146 57.8647 186.146 58.9949C186.146 60.1251 186.393 61.1356 186.875 62.0264C187.356 62.9306 188.021 63.6353 188.854 64.1538C189.687 64.6723 190.625 64.9383 191.666 64.9383C192.708 64.9383 193.034 64.8186 193.632 64.5793C194.231 64.3399 194.765 64.0075 195.234 63.5821C195.69 63.1699 196.041 62.6912 196.302 62.1594L195.234 61.5877C194.856 62.2392 194.375 62.7577 193.776 63.1566C193.177 63.5422 192.474 63.7416 191.666 63.7416C190.859 63.7416 190.156 63.5422 189.492 63.13C188.841 62.7311 188.32 62.1727 187.942 61.4547C187.617 60.8564 187.448 60.165 187.422 59.4071H196.471C196.497 59.2342 196.523 59.0747 196.536 58.9151C196.549 58.7556 196.562 58.6093 196.562 58.4631C196.562 57.7584 196.445 57.0803 196.198 56.4288C195.95 55.7773 195.612 55.2055 195.156 54.7003L195.143 54.7136ZM187.916 56.5617C188.281 55.857 188.776 55.2986 189.401 54.8997C190.026 54.5008 190.716 54.2881 191.471 54.2881C192.226 54.2881 192.89 54.4875 193.489 54.8731C194.075 55.2587 194.531 55.7906 194.856 56.4554C195.117 57.0005 195.247 57.5855 195.234 58.237H187.448C187.513 57.6254 187.669 57.067 187.916 56.5617Z" fill="#EDFCFF"/>
<path d="M209.453 55.4316C209.063 54.7801 208.529 54.2482 207.865 53.8361C207.071 53.3441 206.172 53.1048 205.157 53.1048C204.141 53.1048 203.203 53.3574 202.37 53.8759C201.537 54.3812 200.886 55.0859 200.417 55.99C199.948 56.8809 199.714 57.8914 199.714 59.0215C199.714 60.1517 199.948 61.1489 200.417 62.0531C200.886 62.9439 201.537 63.6486 202.37 64.1671C203.203 64.6857 204.128 64.9516 205.157 64.9516C206.185 64.9516 207.084 64.699 207.878 64.1937C208.542 63.7682 209.076 63.2098 209.453 62.5317V64.699H210.703V48.5708H209.453V55.4582V55.4316ZM208.868 61.375C208.49 62.0796 207.982 62.6381 207.357 63.037C206.719 63.4358 206.003 63.6486 205.196 63.6486C204.388 63.6486 203.698 63.4491 203.073 63.037C202.448 62.6381 201.953 62.0796 201.589 61.375C201.224 60.6703 201.042 59.8858 201.042 58.995C201.042 58.1041 201.224 57.3196 201.589 56.6282C201.953 55.9368 202.448 55.3784 203.073 54.9795C203.698 54.5806 204.414 54.3679 205.196 54.3679C205.977 54.3679 206.719 54.5673 207.357 54.9795C207.995 55.3784 208.49 55.9368 208.868 56.6282C209.245 57.3196 209.427 58.1174 209.427 58.995C209.427 59.8725 209.245 60.6703 208.868 61.375Z" fill="#EDFCFF"/>
<path d="M223.932 55.405C223.529 54.7668 223.008 54.2482 222.37 53.836C221.589 53.3441 220.716 53.1047 219.74 53.1047C218.763 53.1047 217.773 53.3574 216.953 53.8759C216.146 54.3812 215.495 55.0726 215.039 55.9368C214.57 56.8011 214.336 57.7584 214.336 58.8088C214.336 59.8592 214.57 60.8165 215.039 61.6807C215.508 62.545 216.146 63.2364 216.966 63.7416C217.786 64.2469 218.711 64.5128 219.74 64.5128C220.768 64.5128 221.602 64.2602 222.396 63.7549C223.047 63.3427 223.555 62.7976 223.945 62.1328V64.2602C223.945 65.1244 223.75 65.8424 223.372 66.4274C222.995 66.9992 222.5 67.4246 221.901 67.7039C221.302 67.9831 220.651 68.116 219.961 68.116C219.271 68.116 218.359 67.9166 217.734 67.5177C217.109 67.1188 216.654 66.6136 216.341 66.002L215.208 66.6136C215.469 67.1321 215.833 67.6108 216.289 68.023C216.745 68.4351 217.292 68.7675 217.917 69.0069C218.542 69.2462 219.219 69.3659 219.961 69.3659C220.703 69.3659 221.875 69.1398 222.669 68.7011C223.451 68.2623 224.076 67.6507 224.518 66.8795C224.961 66.1083 225.182 65.2308 225.182 64.2469V53.3574H223.932V55.405ZM223.346 61.0159C222.982 61.694 222.487 62.2259 221.875 62.6247C221.25 63.0236 220.56 63.2231 219.779 63.2231C218.997 63.2231 218.255 63.0236 217.643 62.6247C217.018 62.2259 216.536 61.694 216.198 61.0159C215.846 60.3378 215.677 59.5932 215.677 58.7955C215.677 57.9977 215.846 57.2531 216.198 56.575C216.549 55.9102 217.031 55.3784 217.656 54.9795C218.281 54.5806 218.997 54.3812 219.779 54.3812C220.56 54.3812 221.263 54.5806 221.875 54.9795C222.487 55.3784 222.982 55.9102 223.346 56.575C223.711 57.2398 223.893 57.9844 223.893 58.7955C223.893 59.6065 223.711 60.3511 223.346 61.0159Z" fill="#EDFCFF"/>
<path d="M238.867 56.4421C238.62 55.7906 238.281 55.2188 237.826 54.7136C237.37 54.2083 236.836 53.8094 236.224 53.5302C235.599 53.251 234.909 53.1047 234.154 53.1047C233.398 53.1047 232.253 53.3574 231.445 53.8759C230.638 54.3812 230 55.0859 229.531 55.9767C229.063 56.8675 228.828 57.8647 228.828 58.9949C228.828 60.1251 229.076 61.1356 229.557 62.0264C230.039 62.9306 230.703 63.6353 231.536 64.1538C232.37 64.6723 233.307 64.9383 234.349 64.9383C235.391 64.9383 235.716 64.8186 236.315 64.5793C236.914 64.3399 237.448 64.0075 237.917 63.5821C238.372 63.1699 238.724 62.6912 238.984 62.1594L237.917 61.5877C237.539 62.2392 237.057 62.7577 236.458 63.1566C235.859 63.5422 235.156 63.7416 234.349 63.7416C233.542 63.7416 232.839 63.5422 232.174 63.13C231.523 62.7311 231.003 62.1727 230.625 61.4547C230.299 60.8564 230.13 60.165 230.104 59.4071H239.154C239.18 59.2342 239.206 59.0747 239.219 58.9151C239.232 58.7556 239.245 58.6093 239.245 58.4631C239.245 57.7584 239.128 57.0803 238.88 56.4288L238.867 56.4421ZM230.599 56.5617C230.964 55.857 231.458 55.2986 232.083 54.8997C232.708 54.5008 233.398 54.2881 234.154 54.2881C234.909 54.2881 235.573 54.4875 236.172 54.8731C236.758 55.2587 237.214 55.7906 237.539 56.4554C237.799 57.0005 237.93 57.5855 237.917 58.237H230.13C230.195 57.6254 230.352 57.067 230.599 56.5617Z" fill="#EDFCFF"/>
<path d="M26.9274 19.7846C26.1071 18.8539 25.1045 18.1226 23.9066 17.5907C22.7087 17.0589 21.3545 16.793 19.8441 16.793C18.3337 16.793 16.2633 17.2583 14.766 18.1891C13.2686 19.1198 12.0837 20.3829 11.1982 21.9785C10.3128 23.574 9.87012 25.4221 9.87012 27.5096C9.87012 29.5971 10.2998 31.3788 11.1722 33.0142C12.0446 34.6496 13.2555 35.9527 14.805 36.8967C16.3545 37.854 18.1383 38.3194 20.1566 38.3194C22.1748 38.3194 22.7868 38.0933 23.9456 37.6546C25.1045 37.2158 26.0941 36.6042 26.9274 35.8197C27.7607 35.0485 28.3727 34.171 28.7764 33.2137L25.3389 31.4985C24.8441 32.3893 24.167 33.1073 23.3076 33.6657C22.4482 34.2242 21.4066 34.5034 20.1956 34.5034C18.9847 34.5034 17.943 34.2109 17.0055 33.6258C16.068 33.0408 15.3519 32.2297 14.8441 31.1927C14.4925 30.4747 14.2972 29.6769 14.2451 28.7861H29.2712C29.3493 28.4802 29.4014 28.1478 29.4144 27.7888C29.4404 27.4299 29.4535 27.0842 29.4535 26.765C29.4535 25.4221 29.2321 24.1457 28.8024 22.9491C28.3727 21.7524 27.7347 20.6887 26.9144 19.7713L26.9274 19.7846ZM14.8441 23.7069C15.3128 22.6566 15.9899 21.8455 16.8623 21.2738C17.7347 20.702 18.7243 20.4228 19.8441 20.4228C20.9639 20.4228 21.9404 20.702 22.7738 21.2738C23.6071 21.8455 24.2321 22.6167 24.6357 23.6006C24.8701 24.1457 24.9873 24.744 25.0133 25.369H14.3623C14.4535 24.7706 14.6097 24.2122 14.8441 23.7069Z" fill="#EDFCFF"/>
<path d="M48.347 19.6517C47.709 18.8938 46.9408 18.2689 46.0293 17.7902C44.7793 17.1254 43.36 16.793 41.7324 16.793C40.1048 16.793 38.0996 17.2584 36.5762 18.2024C35.0527 19.1464 33.8548 20.4228 32.9564 22.045C32.0579 23.6671 31.6152 25.502 31.6152 27.5363C31.6152 29.5706 32.0579 31.3921 32.9434 33.0275C33.8288 34.6497 35.0267 35.9394 36.5631 36.8967C38.0996 37.854 39.8314 38.3194 41.7715 38.3194C43.7116 38.3194 44.7272 37.987 46.0293 37.3222C47.0449 36.8036 47.8783 36.0989 48.5293 35.2081V37.854H52.5267V9.02808H48.347V19.6517ZM47.5527 31.0331C47.0189 32.0569 46.2897 32.868 45.3522 33.453C44.4147 34.0381 43.373 34.3306 42.2012 34.3306C41.0293 34.3306 39.9486 34.0381 39.0111 33.453C38.0736 32.868 37.3444 32.0569 36.8236 31.0331C36.3027 30.0093 36.0423 28.8393 36.0423 27.5495C36.0423 26.2598 36.3027 25.1031 36.8236 24.0793C37.3444 23.0688 38.0736 22.2577 39.0241 21.6727C39.9746 21.0876 41.0293 20.7951 42.2012 20.7951C43.373 20.7951 44.4277 21.0876 45.3522 21.6727C46.2897 22.2577 47.0189 23.0555 47.5527 24.0793C48.0866 25.0898 48.36 26.2465 48.36 27.5495C48.36 28.8526 48.0866 30.0093 47.5527 31.0331Z" fill="#EDFCFF"/>
<path d="M71.862 19.9043C71.1849 19.0267 70.3906 18.322 69.4531 17.8035C68.2422 17.1254 66.875 16.793 65.3255 16.793C63.776 16.793 61.7578 17.2317 60.2865 18.1226C58.8151 19.0134 57.6563 20.2234 56.7969 21.7391C55.9375 23.2682 55.5078 25.01 55.5078 26.9645C55.5078 28.919 55.9375 30.6342 56.7969 32.1899C57.6563 33.7455 58.8281 34.9554 60.3255 35.8463C61.8229 36.7371 63.5026 37.1759 65.3646 37.1759C67.2266 37.1759 68.2943 36.8302 69.5313 36.1521C70.3776 35.6867 71.0807 35.0618 71.6797 34.3039V36.9233C71.6797 38.0401 71.4323 38.9975 70.9375 39.7952C70.4427 40.593 69.7656 41.2046 68.9193 41.6301C68.0729 42.0556 67.1094 42.255 66.0417 42.255C64.974 42.255 63.5286 41.9359 62.5911 41.2977C61.6536 40.6595 61.0156 39.8617 60.6641 38.8911L56.7839 40.5265C57.2266 41.67 57.9036 42.6672 58.8021 43.5181C59.7005 44.3691 60.7682 45.0339 62.0052 45.5126C63.2552 45.9912 64.6094 46.2305 66.0677 46.2305C67.526 46.2305 69.6745 45.8184 71.1458 45.0073C72.6172 44.1962 73.763 43.0794 74.5964 41.67C75.4297 40.2606 75.8464 38.6651 75.8464 36.8834V17.2184H71.849V19.8644L71.862 19.9043ZM70.9115 30.1556C70.4036 31.0863 69.7135 31.8176 68.8411 32.3627C67.9688 32.9078 66.9792 33.1871 65.8594 33.1871C64.7396 33.1871 63.6979 32.9078 62.7995 32.3627C61.901 31.8176 61.1979 31.073 60.6901 30.129C60.1823 29.1849 59.9219 28.1478 59.9219 27.0044C59.9219 25.8609 60.1823 24.744 60.6901 23.8266C61.1979 22.8959 61.901 22.1646 62.7995 21.6195C63.6979 21.0743 64.7135 20.7951 65.8594 20.7951C67.0052 20.7951 67.9427 21.0743 68.8021 21.6195C69.6745 22.1646 70.3646 22.9092 70.8854 23.8532C71.4063 24.7972 71.6667 25.8476 71.6667 27.0177C71.6667 28.1877 71.4063 29.2381 70.8984 30.1556H70.9115Z" fill="#EDFCFF"/>
<path d="M97.7871 22.9755C97.3574 21.7789 96.7194 20.7152 95.8991 19.7978C95.0788 18.867 94.0762 18.1358 92.8783 17.6039C91.6803 17.0721 90.3262 16.8062 88.8158 16.8062C87.3053 16.8062 85.235 17.2715 83.7376 18.2022C82.2402 19.133 81.0553 20.3961 80.1699 21.9916C79.2845 23.5872 78.8418 25.4353 78.8418 27.5228C78.8418 29.6103 79.2715 31.392 80.1439 33.0274C81.0163 34.6628 82.2272 35.9658 83.7767 36.9099C85.3262 37.8672 87.11 38.3325 89.1283 38.3325C91.1465 38.3325 91.7585 38.1065 92.9173 37.6677C94.0762 37.229 95.0658 36.6173 95.8991 35.8329C96.7324 35.0617 97.3444 34.1842 97.748 33.2268L94.3105 31.5116C93.8158 32.4025 93.1387 33.1205 92.2793 33.6789C91.4199 34.2373 90.3783 34.5166 89.1673 34.5166C87.9564 34.5166 86.9147 34.224 85.9772 33.639C85.0397 33.054 84.3236 32.2429 83.8158 31.2058C83.4642 30.4878 83.2689 29.6901 83.2168 28.7992H98.2428C98.321 28.4934 98.373 28.161 98.3861 27.802C98.4121 27.443 98.4251 27.0973 98.4251 26.7782C98.4251 25.4353 98.2038 24.1589 97.7741 22.9622L97.7871 22.9755ZM83.8027 23.7068C84.2715 22.6564 84.9486 21.8454 85.821 21.2736C86.6934 20.7019 87.6829 20.4227 88.8027 20.4227C89.9225 20.4227 90.8991 20.7019 91.7324 21.2736C92.5658 21.8454 93.1908 22.6165 93.5944 23.6005C93.8288 24.1456 93.946 24.7439 93.972 25.3688H83.321C83.4121 24.7705 83.5684 24.2121 83.8027 23.7068Z" fill="#EDFCFF"/>
<path d="M120.3 31.4587L125.391 17.2451H121.745L116.667 31.4587H120.3Z" fill="#CC7722"/>
<path d="M112.93 34.5035L119.102 17.2451H115.456L109.284 34.5035H112.93Z" fill="#CC7722"/>
<path d="M101.914 37.5616L109.167 17.2451H112.813L105.56 37.5616H101.914Z" fill="#CC7722"/>
<path d="M101.914 37.5616L109.167 17.2451H112.813L105.56 37.5616H101.914Z" fill="#CC7722"/>
<path d="M134.987 21.2605C135.963 20.6223 137.07 20.3032 138.294 20.3032C139.518 20.3032 140.677 20.6356 141.653 21.3137C142.63 21.9918 143.346 22.856 143.815 23.9197L146.914 22.3907C146.51 21.3004 145.885 20.3431 145.013 19.532C144.14 18.721 143.138 18.0695 141.992 17.5908C140.846 17.1121 139.622 16.8728 138.294 16.8728C136.328 16.8728 134.583 17.3382 133.047 18.2822C131.51 19.2262 130.312 20.4893 129.44 22.0982C128.567 23.6937 128.138 25.5286 128.138 27.5895C128.138 29.6504 128.567 31.4453 129.44 33.0808C130.312 34.7029 131.51 35.9926 133.047 36.9233C134.57 37.8674 136.328 38.3327 138.294 38.3327C140.26 38.3327 140.846 38.0934 141.992 37.6147C143.138 37.1361 144.14 36.4846 145.013 35.6469C145.885 34.8225 146.523 33.8785 146.914 32.8015L143.815 31.206C143.346 32.3229 142.617 33.2137 141.653 33.8918C140.677 34.5699 139.557 34.9023 138.294 34.9023C137.031 34.9023 135.976 34.5832 134.987 33.945C134.01 33.3068 133.229 32.4425 132.656 31.339C132.083 30.2354 131.797 28.9989 131.797 27.6294C131.797 26.2599 132.083 24.9435 132.656 23.8533C133.229 22.763 134.01 21.8987 134.987 21.2605Z" fill="#EDFCFF"/>
<path d="M162.435 17.7636C161.263 17.1653 159.909 16.8728 158.372 16.8728C156.836 16.8728 156.029 17.0855 154.935 17.5243C153.841 17.9631 152.878 18.5481 152.057 19.2927C151.237 20.0373 150.638 20.8882 150.26 21.8322L153.281 23.4278C153.698 22.4306 154.362 21.6461 155.234 21.0478C156.12 20.4495 157.135 20.1569 158.281 20.1569C159.427 20.1569 160.664 20.5026 161.471 21.2073C162.279 21.912 162.682 22.8162 162.682 23.933V24.8771L155.82 26.0338C154.323 26.2864 153.086 26.7252 152.109 27.3235C151.12 27.9352 150.404 28.6797 149.948 29.5573C149.492 30.4348 149.258 31.4187 149.258 32.509C149.258 33.5993 149.544 34.663 150.117 35.5405C150.69 36.4181 151.484 37.1095 152.487 37.6014C153.49 38.0934 154.661 38.346 155.977 38.346C157.292 38.346 158.177 38.1732 159.154 37.8142C160.13 37.4552 160.964 36.9765 161.693 36.3649C162.109 36.0192 162.461 35.6336 162.773 35.2214V37.8939H166.172V23.9463C166.172 22.5502 165.846 21.327 165.182 20.2633C164.518 19.2129 163.607 18.3886 162.435 17.7902V17.7636ZM161.888 32.2697C161.354 33.2137 160.625 33.9583 159.687 34.5034C158.75 35.0486 157.656 35.3278 156.38 35.3278C155.104 35.3278 154.557 35.0486 153.893 34.4901C153.229 33.9317 152.904 33.227 152.904 32.3894C152.904 31.5517 153.19 30.7539 153.776 30.1423C154.362 29.5307 155.299 29.1185 156.589 28.8792L162.669 27.8421V29.1451C162.669 30.2886 162.396 31.3257 161.862 32.2697H161.888Z" fill="#EDFCFF"/>
<path d="M185.964 18.2819C184.453 17.3379 182.761 16.8726 180.873 16.8726C178.985 16.8726 177.722 17.2316 176.433 17.9628C175.378 18.5479 174.506 19.3057 173.815 20.2232V17.3246H170.417V45.4858H173.894V34.9819C174.558 35.8993 175.391 36.6439 176.407 37.2156C177.735 37.9469 179.206 38.3192 180.834 38.3192C182.461 38.3192 184.453 37.8538 185.964 36.9098C187.474 35.9658 188.659 34.6893 189.532 33.0672C190.404 31.4451 190.834 29.6235 190.834 27.6158C190.834 25.6081 190.404 23.7201 189.532 22.1112C188.659 20.5024 187.474 19.226 185.964 18.2819ZM186.302 31.3387C185.743 32.4423 184.961 33.3198 183.972 33.9448C182.982 34.583 181.849 34.9021 180.573 34.9021C179.297 34.9021 178.164 34.583 177.162 33.9448C176.159 33.3065 175.352 32.4423 174.779 31.3387C174.193 30.2351 173.907 28.9986 173.907 27.6291C173.907 26.2596 174.193 24.9832 174.779 23.8796C175.365 22.776 176.159 21.8985 177.162 21.2736C178.164 20.6354 179.31 20.3162 180.573 20.3162C181.836 20.3162 182.969 20.6354 183.972 21.2869C184.961 21.9384 185.743 22.8026 186.302 23.8796C186.862 24.9566 187.136 26.2064 187.136 27.6291C187.136 29.0518 186.849 30.2351 186.302 31.3387Z" fill="#EDFCFF"/>
<path d="M197.748 17.3247H194.271V37.8672H197.748V17.3247Z" fill="#EDFCFF"/>
<path d="M197.748 9.47998H194.271V14.0538H197.748V9.47998Z" fill="#EDFCFF"/>
<path d="M210.872 34.8623C210.052 34.8623 209.388 34.716 208.893 34.4235C208.398 34.131 208.047 33.7321 207.826 33.2269C207.617 32.7216 207.513 32.1233 207.513 31.4319V20.7285H212.031V17.338H207.513V12.6179H204.036V14.2932C204.036 15.2107 203.776 15.9419 203.255 16.5004C202.734 17.0588 202.018 17.338 201.133 17.338H200.391V20.7285H204.049V31.5516C204.049 33.6391 204.583 35.2479 205.638 36.3914C206.693 37.5348 208.203 38.1066 210.169 38.1066C212.135 38.1066 210.781 38.0933 211.172 38.0534C211.576 38.0135 211.927 37.9603 212.253 37.8805V34.7559C212.031 34.7825 211.784 34.8091 211.523 34.8357C211.263 34.8623 211.042 34.8756 210.872 34.8756V34.8623Z" fill="#EDFCFF"/>
<path d="M227.747 17.7634C226.576 17.1651 225.221 16.8726 223.685 16.8726C222.148 16.8726 221.341 17.0853 220.247 17.5241C219.154 17.9628 218.19 18.5479 217.37 19.2925C216.549 20.037 215.951 20.888 215.573 21.832L218.594 23.4275C219.01 22.4303 219.674 21.6459 220.547 21.0475C221.432 20.4492 222.448 20.1567 223.594 20.1567C224.74 20.1567 225.977 20.5024 226.784 21.2071C227.591 21.9118 227.995 22.8159 227.995 23.9328V24.8768L221.133 26.0336C219.635 26.2862 218.398 26.725 217.422 27.3233C216.432 27.9349 215.716 28.6795 215.26 29.557C214.805 30.4346 214.57 31.4185 214.57 32.5088C214.57 33.5991 214.857 34.6627 215.43 35.5403C216.003 36.4178 216.797 37.1092 217.799 37.6012C218.802 38.0931 219.974 38.3458 221.289 38.3458C222.604 38.3458 223.49 38.1729 224.466 37.8139C225.443 37.4549 226.276 36.9763 227.005 36.3646C227.422 36.019 227.773 35.6334 228.086 35.2212V37.8937H231.484V23.9461C231.484 22.55 231.159 21.3268 230.495 20.2631C229.831 19.2127 228.919 18.3883 227.747 17.79V17.7634ZM227.201 32.2694C226.667 33.2135 225.937 33.9581 225 34.5032C224.062 35.0483 222.969 35.3276 221.693 35.3276C220.417 35.3276 219.87 35.0483 219.206 34.4899C218.542 33.9315 218.216 33.2268 218.216 32.3891C218.216 31.5515 218.503 30.7537 219.089 30.1421C219.674 29.5304 220.612 29.1183 221.901 28.8789L227.982 27.8418V29.1449C227.982 30.2883 227.708 31.3254 227.174 32.2694H227.201Z" fill="#EDFCFF"/>
<path d="M239.206 9.02808H235.729V37.8806H239.206V9.02808Z" fill="#EDFCFF"/>
</svg>
