<svg width="41" height="41" viewBox="0 0 41 41" fill="none" xmlns="http://www.w3.org/2000/svg">
<path d="M12.3375 4.10987C10.3435 4.10833 8.39635 4.71482 6.75589 5.84844C5.11544 6.98207 3.85962 8.58893 3.15596 10.4547C2.45231 12.3205 2.33425 14.3564 2.81756 16.291C3.30086 18.2256 4.36254 19.9668 5.86098 21.2824H18.814C20.3125 19.9668 21.3741 18.2256 21.8574 16.291C22.3407 14.3564 22.2227 12.3205 21.519 10.4547C20.8154 8.58893 19.5596 6.98207 17.9191 5.84844C16.2787 4.71482 14.3315 4.10833 12.3375 4.10987ZM14.7907 13.105C15.0076 13.105 15.2156 13.1912 15.369 13.3445C15.5223 13.4979 15.6085 13.7059 15.6085 13.9228V17.1937C15.6085 17.4106 15.5223 17.6186 15.369 17.772C15.2156 17.9253 15.0076 18.0115 14.7907 18.0115H13.1552V18.8292C13.1552 19.0461 13.0691 19.2541 12.9157 19.4075C12.7624 19.5608 12.5544 19.647 12.3375 19.647C12.1206 19.647 11.9126 19.5608 11.7593 19.4075C11.6059 19.2541 11.5198 19.0461 11.5198 18.8292V18.0115H9.88428C9.6674 18.0115 9.4594 17.9253 9.30604 17.772C9.15269 17.6186 9.06653 17.4106 9.06653 17.1937C9.06653 16.9769 9.15269 16.7689 9.30604 16.6155C9.4594 16.4621 9.6674 16.376 9.88428 16.376H13.973V14.7405H9.88428C9.6674 14.7405 9.4594 14.6544 9.30604 14.501C9.15269 14.3476 9.06653 14.1396 9.06653 13.9228V10.6518C9.06653 10.4349 9.15269 10.2269 9.30604 10.0736C9.4594 9.92021 9.6674 9.83406 9.88428 9.83406H11.5198V9.01632C11.5198 8.79944 11.6059 8.59144 11.7593 8.43809C11.9126 8.28473 12.1206 8.19858 12.3375 8.19858C12.5544 8.19858 12.7624 8.28473 12.9157 8.43809C13.0691 8.59144 13.1552 8.79944 13.1552 9.01632V9.83406H14.7907C15.0076 9.83406 15.2156 9.92021 15.369 10.0736C15.5223 10.2269 15.6085 10.4349 15.6085 10.6518C15.6085 10.8687 15.5223 11.0767 15.369 11.23C15.2156 11.3834 15.0076 11.4695 14.7907 11.4695H10.702V13.105H14.7907ZM38.4104 15.1248C38.3406 15.2559 38.2364 15.3655 38.1091 15.4419C37.9817 15.5182 37.836 15.5585 37.6875 15.5583H34.4165V37.6373C34.4165 37.8542 34.3304 38.0622 34.177 38.2155C34.0237 38.3689 33.8157 38.455 33.5988 38.455H28.6923C28.4755 38.455 28.2675 38.3689 28.1141 38.2155C27.9608 38.0622 27.8746 37.8542 27.8746 37.6373V15.5583H24.6036C24.4554 15.5593 24.3098 15.5194 24.1828 15.4429C24.0558 15.3664 23.9524 15.2564 23.884 15.1248C23.8119 14.996 23.7776 14.8494 23.7848 14.7019C23.792 14.5544 23.8406 14.412 23.9249 14.2908L30.4668 4.47785C30.5451 4.37136 30.6473 4.28478 30.7652 4.2251C30.8831 4.16543 31.0134 4.13433 31.1456 4.13433C31.2777 4.13433 31.408 4.16543 31.5259 4.2251C31.6438 4.28478 31.746 4.37136 31.8243 4.47785L38.3662 14.2908C38.4479 14.413 38.4951 14.555 38.5028 14.7017C38.5106 14.8485 38.4787 14.9947 38.4104 15.1248Z" fill="white"/>
<path d="M21.3333 34.3657H3.34295C2.89132 34.3657 2.52521 34.7318 2.52521 35.1835V37.6367C2.52521 38.0883 2.89132 38.4544 3.34295 38.4544H21.3333C21.7849 38.4544 22.151 38.0883 22.151 37.6367V35.1835C22.151 34.7318 21.7849 34.3657 21.3333 34.3657Z" fill="white"/>
<path d="M21.3333 28.6411H3.34295C2.89132 28.6411 2.52521 29.0072 2.52521 29.4589V31.9121C2.52521 32.3637 2.89132 32.7298 3.34295 32.7298H21.3333C21.7849 32.7298 22.151 32.3637 22.151 31.9121V29.4589C22.151 29.0072 21.7849 28.6411 21.3333 28.6411Z" fill="white"/>
<path d="M21.3333 22.9175H3.34295C2.89132 22.9175 2.52521 23.2836 2.52521 23.7352V26.1884C2.52521 26.6401 2.89132 27.0062 3.34295 27.0062H21.3333C21.7849 27.0062 22.151 26.6401 22.151 26.1884V23.7352C22.151 23.2836 21.7849 22.9175 21.3333 22.9175Z" fill="white"/>
</svg>
