<svg width="24" height="24" viewBox="0 0 24 24" fill="none" xmlns="http://www.w3.org/2000/svg">
<g clip-path="url(#clip0_182_6916)">
<path d="M19.9242 6.04934L15.724 1.84912C15.5456 1.6707 15.3034 1.57031 15.0512 1.57031H6.40529C5.09165 1.57031 4.02637 2.63559 4.02637 3.94923V20.1259C4.02637 21.4395 5.09165 22.5048 6.40529 22.5048H17.8241C19.1377 22.5048 20.203 21.4395 20.203 20.1259V6.7221C20.203 6.46993 20.1026 6.22776 19.9242 6.04934Z" fill="#EFF3F9"/>
<path d="M6.88107 21.0749C6.0927 21.0749 5.45372 20.4359 5.45372 19.6475V1.76853C4.61444 2.13584 4.02637 2.97179 4.02637 3.94667V20.1233C4.02637 21.437 5.09165 22.5022 6.40529 22.5022H17.8241C18.799 22.5022 19.6349 21.9142 20.0022 21.0749H6.88107ZM19.9242 6.04678L15.724 1.84656C15.6431 1.76568 15.5475 1.70288 15.4452 1.65625V4.89824C15.4452 5.68519 16.0856 6.32559 16.8725 6.32559H20.1145C20.0679 6.2233 20.0051 6.12814 19.9242 6.04678Z" fill="#CFE0F3"/>
<path d="M12.5922 6.80313H7.3586C7.09549 6.80313 6.88281 6.58998 6.88281 6.32735C6.88281 6.06471 7.09549 5.85156 7.3586 5.85156H12.5922C12.8553 5.85156 13.068 6.06471 13.068 6.32735C13.068 6.58998 12.8553 6.80313 12.5922 6.80313ZM17.3501 9.18205C17.3501 8.91942 17.1374 8.70626 16.8743 8.70626H8.78595C8.52284 8.70626 8.31016 8.91942 8.31016 9.18205C8.31016 9.44468 8.52284 9.65783 8.78595 9.65783H16.8743C17.1374 9.65783 17.3501 9.44468 17.3501 9.18205ZM17.3501 11.561C17.3501 11.2983 17.1374 11.0852 16.8743 11.0852H7.3586C7.09549 11.0852 6.88281 11.2983 6.88281 11.561C6.88281 11.8236 7.09549 12.0368 7.3586 12.0368H16.8743C17.1374 12.0368 17.3501 11.8236 17.3501 11.561ZM10.2133 14.4157H7.3586C7.09549 14.4157 6.88281 14.2025 6.88281 13.9399C6.88281 13.6773 7.09549 13.4641 7.3586 13.4641H10.2133C10.4764 13.4641 10.6891 13.6773 10.6891 13.9399C10.6891 14.2025 10.4764 14.4157 10.2133 14.4157ZM9.26173 16.7946H7.3586C7.09549 16.7946 6.88281 16.5814 6.88281 16.3188C6.88281 16.0562 7.09549 15.843 7.3586 15.843H9.26173C9.52484 15.843 9.73751 16.0562 9.73751 16.3188C9.73751 16.5814 9.52484 16.7946 9.26173 16.7946ZM9.73751 19.1735H7.3586C7.09549 19.1735 6.88281 18.9604 6.88281 18.6977C6.88281 18.4351 7.09549 18.2219 7.3586 18.2219H9.73751C10.0006 18.2219 10.2133 18.4351 10.2133 18.6977C10.2133 18.9604 10.0006 19.1735 9.73751 19.1735Z" fill="#9EB6D8"/>
<path d="M18.2469 18.7266L21.3014 21.7859C21.6725 22.157 21.6725 22.7565 21.3014 23.1276C21.1158 23.3131 20.8732 23.4083 20.6305 23.4083C20.3879 23.4083 20.1452 23.3131 19.9597 23.1276L16.9004 20.073L18.2469 18.7266Z" fill="#0075D3"/>
<path d="M15.4403 12.9883C13.0751 12.9883 11.1582 14.9052 11.1582 17.2703C11.1582 19.6355 13.0751 21.5524 15.4403 21.5524C17.8054 21.5524 19.7223 19.6355 19.7223 17.2703C19.7223 14.9052 17.8054 12.9883 15.4403 12.9883Z" fill="#0CA0F2"/>
<path d="M15.4485 20.1235C17.0251 20.1235 18.3032 18.8454 18.3032 17.2688C18.3032 15.6922 17.0251 14.4141 15.4485 14.4141C13.8718 14.4141 12.5938 15.6922 12.5938 17.2688C12.5938 18.8454 13.8718 20.1235 15.4485 20.1235Z" fill="#CFE0F3"/>
<path d="M16.1611 17.7461C16.8181 17.7461 17.3506 17.2136 17.3506 16.5566C17.3506 15.8997 16.8181 15.3672 16.1611 15.3672C15.5042 15.3672 14.9717 15.8997 14.9717 16.5566C14.9717 17.2136 15.5042 17.7461 16.1611 17.7461Z" fill="#EFF3F9"/>
</g>
<defs>
<clipPath id="clip0_182_6916">
<rect width="22.8376" height="22.8376" fill="white" transform="translate(0.693359 0.617188)"/>
</clipPath>
</defs>
</svg>
