<svg width="24" height="24" viewBox="0 0 24 24" fill="none" xmlns="http://www.w3.org/2000/svg">
<path d="M22.4597 5.125H1.76309C1.56601 5.125 1.40625 5.28476 1.40625 5.48184V21.1827C1.40625 21.3798 1.56601 21.5395 1.76309 21.5395H22.4597C22.6568 21.5395 22.8165 21.3798 22.8165 21.1827V5.48184C22.8165 5.28476 22.6568 5.125 22.4597 5.125Z" fill="#F1F2F2"/>
<path d="M22.4597 2.26953H1.76309C1.56683 2.26953 1.40625 2.43011 1.40625 2.62637V5.83791H22.8165V2.62637C22.8165 2.43011 22.6559 2.26953 22.4597 2.26953Z" fill="#49C2F1"/>
<path d="M3.54824 4.40899C3.74532 4.40899 3.90508 4.24923 3.90508 4.05215C3.90508 3.85507 3.74532 3.69531 3.54824 3.69531C3.35117 3.69531 3.19141 3.85507 3.19141 4.05215C3.19141 4.24923 3.35117 4.40899 3.54824 4.40899Z" fill="white"/>
<path d="M4.97598 4.40899C5.17305 4.40899 5.33282 4.24923 5.33282 4.05215C5.33282 3.85507 5.17305 3.69531 4.97598 3.69531C4.7789 3.69531 4.61914 3.85507 4.61914 4.05215C4.61914 4.24923 4.7789 4.40899 4.97598 4.40899Z" fill="white"/>
<path d="M6.40371 4.40899C6.60079 4.40899 6.76055 4.24923 6.76055 4.05215C6.76055 3.85507 6.60079 3.69531 6.40371 3.69531C6.20664 3.69531 6.04688 3.85507 6.04688 4.05215C6.04688 4.24923 6.20664 4.40899 6.40371 4.40899Z" fill="white"/>
<path d="M20.6746 4.40899H18.5336C18.3373 4.40899 18.1768 4.24841 18.1768 4.05215C18.1768 3.85589 18.3373 3.69531 18.5336 3.69531H20.6746C20.8709 3.69531 21.0315 3.85589 21.0315 4.05215C21.0315 4.24841 20.8709 4.40899 20.6746 4.40899Z" fill="white"/>
<path d="M14.3645 12.157C14.4358 12.2284 14.5251 12.2605 14.6178 12.2605C14.7106 12.2605 14.7998 12.2248 14.8712 12.157L17.0122 10.016C17.1514 9.87683 17.1514 9.65202 17.0122 9.51286L14.8712 7.37183C14.732 7.23266 14.5072 7.23266 14.368 7.37183C14.2289 7.511 14.2289 7.7358 14.368 7.87497L16.2557 9.76264L14.368 11.6503C14.2289 11.7895 14.2289 12.0143 14.368 12.1535L14.3645 12.157ZM9.36874 12.157C9.44011 12.2284 9.52932 12.2605 9.6221 12.2605C9.71488 12.2605 9.80409 12.2248 9.87545 12.157C10.0146 12.0179 10.0146 11.793 9.87545 11.6539L7.98778 9.76621L9.87545 7.87854C10.0146 7.73937 10.0146 7.51456 9.87545 7.3754C9.73629 7.23623 9.51148 7.23623 9.37231 7.3754L7.23128 9.51642C7.09212 9.65559 7.09212 9.8804 7.23128 10.0196L9.37231 12.1606L9.36874 12.157ZM10.8889 12.2213C10.9388 12.2462 10.9959 12.2605 11.0494 12.2605C11.1815 12.2605 11.3064 12.1891 11.3706 12.0642L13.5116 7.78219C13.6008 7.60734 13.5295 7.39324 13.3511 7.30403C13.1762 7.21482 12.9621 7.28619 12.8729 7.46461L10.7319 11.7467C10.6427 11.9215 10.714 12.1356 10.8924 12.2248L10.8889 12.2213ZM4.62637 14.0447H8.19475C8.39101 14.0447 8.55159 13.8841 8.55159 13.6879C8.55159 13.4916 8.39101 13.331 8.19475 13.331H4.62637C4.43011 13.331 4.26953 13.4916 4.26953 13.6879C4.26953 13.8841 4.43011 14.0447 4.62637 14.0447ZM9.26526 13.6879C9.26526 13.8841 9.42584 14.0447 9.6221 14.0447H19.6136C19.8098 14.0447 19.9704 13.8841 19.9704 13.6879C19.9704 13.4916 19.8098 13.331 19.6136 13.331H9.6221C9.42584 13.331 9.26526 13.4916 9.26526 13.6879ZM4.62637 15.8289H6.7674C6.96366 15.8289 7.12423 15.6683 7.12423 15.472C7.12423 15.2758 6.96366 15.1152 6.7674 15.1152H4.62637C4.43011 15.1152 4.26953 15.2758 4.26953 15.472C4.26953 15.6683 4.43011 15.8289 4.62637 15.8289ZM19.6136 15.1152H8.19475C7.99849 15.1152 7.83791 15.2758 7.83791 15.472C7.83791 15.6683 7.99849 15.8289 8.19475 15.8289H19.6136C19.8098 15.8289 19.9704 15.6683 19.9704 15.472C19.9704 15.2758 19.8098 15.1152 19.6136 15.1152ZM4.62637 17.6131H13.9042C14.1004 17.6131 14.261 17.4525 14.261 17.2562C14.261 17.06 14.1004 16.8994 13.9042 16.8994H4.62637C4.43011 16.8994 4.26953 17.06 4.26953 17.2562C4.26953 17.4525 4.43011 17.6131 4.62637 17.6131ZM19.6136 16.8994H15.3315C15.1352 16.8994 14.9747 17.06 14.9747 17.2562C14.9747 17.4525 15.1352 17.6131 15.3315 17.6131H19.6136C19.8098 17.6131 19.9704 17.4525 19.9704 17.2562C19.9704 17.06 19.8098 16.8994 19.6136 16.8994ZM4.62637 19.3973H8.55159C8.74785 19.3973 8.90842 19.2367 8.90842 19.0404C8.90842 18.8442 8.74785 18.6836 8.55159 18.6836H4.62637C4.43011 18.6836 4.26953 18.8442 4.26953 19.0404C4.26953 19.2367 4.43011 19.3973 4.62637 19.3973ZM14.261 18.6836H9.97894C9.78268 18.6836 9.6221 18.8442 9.6221 19.0404C9.6221 19.2367 9.78268 19.3973 9.97894 19.3973H14.261C14.4573 19.3973 14.6178 19.2367 14.6178 19.0404C14.6178 18.8442 14.4573 18.6836 14.261 18.6836ZM19.6136 18.6836H15.6883C15.4921 18.6836 15.3315 18.8442 15.3315 19.0404C15.3315 19.2367 15.4921 19.3973 15.6883 19.3973H19.6136C19.8098 19.3973 19.9704 19.2367 19.9704 19.0404C19.9704 18.8442 19.8098 18.6836 19.6136 18.6836Z" fill="#F27405"/>
</svg>
