<svg width="24" height="24" viewBox="0 0 24 24" fill="none" xmlns="http://www.w3.org/2000/svg">
<path d="M21.4269 10.4829H19.6616C19.4724 9.7161 19.1705 8.99386 18.7726 8.33558L20.0203 7.0879C20.3052 6.80305 20.3052 6.3414 20.0207 6.05637L18.4117 4.44516C18.1268 4.15987 17.6646 4.15969 17.3794 4.4448L16.1307 5.69356C15.4729 5.29595 14.751 4.99415 13.9846 4.80494V3.03824C13.9846 2.63528 13.6579 2.30859 13.2549 2.30859H10.9784C10.5754 2.30859 10.2487 2.63528 10.2487 3.03824V4.80423C9.48155 4.99335 8.75877 5.29533 8.10023 5.69338L6.85147 4.44471C6.56636 4.1596 6.10417 4.15978 5.81923 4.44507L4.21007 6.05637C3.9254 6.3414 3.92558 6.80314 4.21043 7.0879L5.45811 8.33558C5.06024 8.99386 4.75835 9.7161 4.56914 10.4829H2.80386C2.4009 10.4829 2.07422 10.8096 2.07422 11.2126V13.4891C2.07422 13.8921 2.4009 14.2188 2.80386 14.2188H4.56914C4.75844 14.9861 5.06068 15.709 5.459 16.3676L4.21052 17.6161C3.92558 17.9011 3.92558 18.3631 4.21052 18.648L5.81959 20.2571C6.10452 20.542 6.56654 20.542 6.85147 20.2571L8.10023 19.0082C8.75877 19.4063 9.48155 19.7083 10.2487 19.8974V21.6634C10.2487 22.0663 10.5754 22.393 10.9784 22.393H13.2549C13.6579 22.393 13.9846 22.0663 13.9846 21.6634V19.8968C14.7509 19.7076 15.4728 19.4058 16.1307 19.0081L17.3795 20.2569C17.6645 20.5418 18.1265 20.5418 18.4114 20.2569L20.0203 18.6478C20.3052 18.3629 20.3052 17.901 20.0203 17.616L18.7718 16.3676C19.1701 15.7089 19.4723 14.9861 19.6617 14.2187H21.427C21.8299 14.2187 22.1566 13.892 22.1566 13.489V11.2126C22.1565 10.8096 21.8298 10.4829 21.4269 10.4829Z" fill="white"/>
<path d="M11.5478 21.0983V18.8832L10.5621 18.6403C9.92967 18.4844 9.32796 18.2354 8.77406 17.9004L7.90507 17.3749L6.33846 18.9416L5.53022 18.1333L7.09647 16.5671L6.57103 15.6981C6.23542 15.1432 5.98608 14.5412 5.83041 13.9098L5.58749 12.924H3.37305V11.7798H5.58714L5.83041 10.7944C5.98635 10.1626 6.23506 9.56127 6.57005 9.00701L7.09522 8.13829L5.52986 6.57275L6.33908 5.76229L7.90471 7.32818L8.77343 6.80336C9.32796 6.46838 9.93003 6.21939 10.5621 6.06346L11.5478 5.82054V3.60547H12.692V5.82081L13.6772 6.06408C14.3086 6.21975 14.9097 6.46873 15.4636 6.80372L16.3326 7.32854L17.8982 5.76264L18.7072 6.57284L17.1419 8.13811L17.6671 9.00683C18.0021 9.56109 18.2508 10.1625 18.4067 10.7942L18.65 11.7796H20.8642V12.9238H18.6495L18.4066 13.9096C18.251 14.541 18.0017 15.143 17.666 15.6979L17.1406 16.5669L18.7068 18.1331L17.8986 18.9414L16.3327 17.3751L15.4637 17.8999C14.9098 18.2349 14.3087 18.4839 13.6773 18.6396L12.6921 18.8829V21.0983H11.5478Z" fill="#FDC140"/>
<path d="M18.0316 12.3548C18.0316 15.6227 15.3844 18.2721 12.1165 18.2721C8.84856 18.2721 6.19922 15.6228 6.19922 12.3548C6.19922 9.08684 8.84856 6.4375 12.1165 6.4375C15.3844 6.4375 18.0316 9.08693 18.0316 12.3548Z" fill="white"/>
<path d="M4.37427 14.4623C4.55207 15.1162 4.81149 15.7426 5.14745 16.3294L4.03171 17.4451C3.65132 17.8248 3.65141 18.4407 4.03171 18.8203L5.64069 20.4295C6.00859 20.7974 6.64956 20.7972 7.01621 20.4295L8.13231 19.3134C8.7185 19.6491 9.34484 19.9082 9.99911 20.086V21.6639C9.99911 22.2004 10.4353 22.6367 10.9716 22.6367H13.248C13.7845 22.6367 14.2208 22.2004 14.2208 21.6639V20.0854C14.8737 19.9076 15.4991 19.6485 16.085 19.3134L17.2007 20.4295C17.5686 20.7974 18.2096 20.7972 18.5762 20.4295L20.1852 18.8203C20.5647 18.4414 20.5663 17.8262 20.1852 17.4451L19.0695 16.3294C19.4054 15.7426 19.6649 15.1162 19.8427 14.4623H21.42C21.9565 14.4623 22.3927 14.0261 22.3927 13.4899V11.2134C22.3927 10.6769 21.9565 10.2407 21.42 10.2407H19.8427C19.6649 9.58712 19.4058 8.96105 19.0705 8.37512L20.1853 7.26027C20.5646 6.88131 20.5646 6.26442 20.1857 5.88537L18.5767 4.27389C18.1977 3.89431 17.5806 3.89324 17.2009 4.27354L16.0849 5.38973C15.499 5.05474 14.8736 4.79559 14.2207 4.6178V3.03888C14.2207 2.50264 13.7844 2.06641 13.2479 2.06641H10.9715C10.4353 2.06641 9.99902 2.50264 9.99902 3.03888V4.61717C9.34511 4.79497 8.71841 5.05403 8.13222 5.38937L7.01639 4.27363C6.64278 3.90002 6.02589 3.88797 5.6406 4.27398L4.03135 5.88546C3.65239 6.26442 3.65239 6.88131 4.03171 7.26036L5.14647 8.37512C4.81113 8.96096 4.55207 9.58703 4.37427 10.2407H2.79696C2.26045 10.2407 1.82422 10.6769 1.82422 11.2134V13.4899C1.82422 14.0261 2.26045 14.4623 2.79696 14.4623H4.37427ZM2.31005 13.4899V11.2134C2.31005 10.9448 2.52835 10.7265 2.79696 10.7265H4.56215C4.67384 10.7265 4.77125 10.6502 4.79811 10.5417C4.97938 9.80684 5.26913 9.10708 5.65889 8.46174C5.71678 8.3662 5.70189 8.24345 5.62285 8.16441L4.37516 6.91672C4.18533 6.72689 4.18533 6.41849 4.37481 6.22901L5.98414 4.61753C6.17416 4.42751 6.48202 4.42707 6.67284 4.61717L7.92151 5.86584C8.00064 5.94497 8.12365 5.96013 8.21884 5.90188C8.86454 5.51185 9.56457 5.22237 10.3001 5.0411C10.4086 5.01424 10.4849 4.91674 10.4849 4.80514V3.03888C10.4849 2.77063 10.7031 2.55233 10.9714 2.55233H13.2478C13.5165 2.55233 13.7348 2.77063 13.7348 3.03888V4.80567C13.7348 4.91736 13.811 5.01478 13.9195 5.04163C14.6538 5.2229 15.3532 5.51239 15.9983 5.90214C16.0932 5.96031 16.2166 5.9455 16.2956 5.8661L17.5443 4.61717C17.7336 4.42787 18.0421 4.42662 18.233 4.61753L19.8419 6.22901C20.0314 6.41849 20.0314 6.72698 19.8416 6.91672L18.5939 8.16441C18.5148 8.24354 18.5 8.3662 18.5579 8.46174C18.9476 9.10708 19.2374 9.80684 19.4186 10.5417C19.4455 10.6502 19.543 10.7265 19.6546 10.7265H21.4199C21.6885 10.7265 21.9068 10.9448 21.9068 11.2134V13.4899C21.9068 13.7581 21.6885 13.9764 21.4199 13.9764H19.6546C19.5429 13.9764 19.4455 14.0527 19.4186 14.1612C19.2377 14.8961 18.9476 15.5964 18.5569 16.2428C18.499 16.3383 18.5139 16.4611 18.5929 16.5401L19.8416 17.7888C20.0314 17.9786 20.0325 18.2859 19.8416 18.4768L18.2326 20.0861C18.0485 20.2702 17.7283 20.2702 17.5443 20.0861L16.2956 18.8372C16.2165 18.758 16.0931 18.7432 15.9983 18.8011C15.3532 19.1909 14.6538 19.4804 13.9195 19.6616C13.811 19.6885 13.7348 19.786 13.7348 19.8976V21.6641C13.7348 21.9327 13.5165 22.151 13.2478 22.151H10.9714C10.7031 22.151 10.4849 21.9327 10.4849 21.6641V19.8982C10.4849 19.7865 10.4086 19.6891 10.3001 19.6623C9.5643 19.481 8.86418 19.1912 8.21884 18.8011C8.17995 18.7774 8.13659 18.766 8.09323 18.766C8.03061 18.766 7.96825 18.7903 7.92142 18.8372L6.67248 20.0861C6.48836 20.2702 6.16818 20.2702 5.98414 20.0861L4.37516 18.4768C4.18533 18.287 4.18425 17.9797 4.37516 17.7888L5.62383 16.5401C5.70296 16.461 5.71777 16.3383 5.65987 16.2428C5.26922 15.5964 4.97911 14.8961 4.79811 14.1612C4.77125 14.0527 4.67375 13.9764 4.56215 13.9764H2.79696C2.52835 13.9764 2.31005 13.7581 2.31005 13.4899Z" fill="black"/>
<path d="M12.1161 18.5119C15.5117 18.5119 18.2745 15.7483 18.2745 12.3517C18.2745 8.95503 15.5117 6.19141 12.1161 6.19141C8.71941 6.19141 5.95605 8.95503 5.95605 12.3517C5.95605 15.7483 8.71941 18.5119 12.1161 18.5119ZM12.1161 6.67733C15.2438 6.67733 17.7885 9.22301 17.7885 12.3517C17.7885 15.4803 15.2438 18.026 12.1161 18.026C8.98739 18.026 6.44198 15.4803 6.44198 12.3517C6.44198 9.22301 8.9873 6.67733 12.1161 6.67733Z" fill="black"/>
<path d="M15.3824 9.42454L15.5583 9.24862C15.6533 9.1537 15.6533 8.99999 15.5583 8.90507C15.4634 8.81015 15.3097 8.81015 15.2148 8.90507L15.0389 9.08099C14.944 9.17591 14.944 9.32962 15.0389 9.42454C15.1338 9.51946 15.2875 9.51946 15.3824 9.42454ZM16.4953 12.5972H16.7439C16.8781 12.5972 16.9869 12.4883 16.9869 12.3543C16.9869 12.2202 16.878 12.1114 16.7439 12.1114H16.4953C16.3611 12.1114 16.2524 12.2202 16.2524 12.3543C16.2524 12.4883 16.3612 12.5972 16.4953 12.5972ZM7.72299 12.1114H7.47436C7.34019 12.1114 7.23145 12.2202 7.23145 12.3543C7.23145 12.4883 7.34028 12.5972 7.47436 12.5972H7.72299C7.85716 12.5972 7.96591 12.4883 7.96591 12.3543C7.96591 12.2202 7.85707 12.1114 7.72299 12.1114ZM8.83588 9.42454C8.9308 9.51946 9.0845 9.51946 9.17942 9.42454C9.27434 9.32962 9.27434 9.17591 9.17942 9.08099L9.0035 8.90507C8.90858 8.81015 8.75488 8.81015 8.65996 8.90507C8.56504 8.99999 8.56504 9.1537 8.65996 9.24862L8.83588 9.42454ZM12.1095 8.21102C12.2437 8.21102 12.3524 8.10219 12.3524 7.96811V7.71948C12.3524 7.58531 12.2436 7.47656 12.1095 7.47656C11.9753 7.47656 11.8666 7.5854 11.8666 7.71948V7.96811C11.8665 8.10219 11.9753 8.21102 12.1095 8.21102ZM12.1095 12.7753C12.2437 12.7753 12.3524 12.6665 12.3524 12.5324V10.4452C12.3524 10.311 12.2436 10.2023 12.1095 10.2023C11.9753 10.2023 11.8666 10.3111 11.8666 10.4452V12.5324C11.8665 12.6665 11.9753 12.7753 12.1095 12.7753ZM10.3614 15.6516H13.857C13.9912 15.6516 14.0999 15.5428 14.0999 15.4087C14.0999 15.2745 13.9911 15.1658 13.857 15.1658H10.3614C10.2272 15.1658 10.1184 15.2746 10.1184 15.4087C10.1184 15.5428 10.2272 15.6516 10.3614 15.6516Z" fill="black"/>
</svg>
