<svg width="22" height="22" viewBox="0 0 22 22" fill="none" xmlns="http://www.w3.org/2000/svg">
<path d="M13.0997 15.8491L11.9172 17.0407V11.9166C11.9172 11.6734 11.8207 11.4403 11.6488 11.2684C11.4768 11.0965 11.2437 10.9999 11.0006 10.9999C10.7575 10.9999 10.5243 11.0965 10.3524 11.2684C10.1805 11.4403 10.0839 11.6734 10.0839 11.9166V17.0407L8.9014 15.8491C8.81594 15.7636 8.71447 15.6958 8.6028 15.6495C8.49113 15.6033 8.37144 15.5795 8.25057 15.5795C8.1297 15.5795 8.01001 15.6033 7.89834 15.6495C7.78667 15.6958 7.68521 15.7636 7.59974 15.8491C7.51427 15.9345 7.44647 16.036 7.40022 16.1477C7.35396 16.2593 7.33015 16.379 7.33015 16.4999C7.33015 16.6208 7.35396 16.7404 7.40022 16.8521C7.44647 16.9638 7.51427 17.0652 7.59974 17.1507L10.3497 19.9007C10.4369 19.9842 10.5397 20.0496 10.6522 20.0932C10.762 20.1417 10.8806 20.1668 11.0006 20.1668C11.1205 20.1668 11.2392 20.1417 11.3489 20.0932C11.4614 20.0496 11.5642 19.9842 11.6514 19.9007L14.4014 17.1507C14.574 16.9781 14.671 16.744 14.671 16.4999C14.671 16.2558 14.574 16.0217 14.4014 15.8491C14.2288 15.6764 13.9947 15.5795 13.7506 15.5795C13.5065 15.5795 13.2723 15.6764 13.0997 15.8491ZM16.8856 5.70155C16.3255 4.41455 15.3588 3.3467 14.1338 2.66163C12.9088 1.97656 11.4929 1.71206 10.1031 1.90867C8.71337 2.10527 7.42642 2.75213 6.43947 3.75013C5.45252 4.74812 4.82003 6.0422 4.6389 7.43405C3.76494 7.64335 2.99827 8.16631 2.4845 8.90364C1.97072 9.64097 1.74561 10.5413 1.85193 11.4337C1.95824 12.326 2.38857 13.1483 3.0612 13.7443C3.73382 14.3402 4.6019 14.6684 5.50057 14.6666C5.74369 14.6666 5.97684 14.57 6.14875 14.3981C6.32066 14.2262 6.41724 13.993 6.41724 13.7499C6.41724 13.5068 6.32066 13.2736 6.14875 13.1017C5.97684 12.9298 5.74369 12.8332 5.50057 12.8332C5.01434 12.8332 4.54803 12.6401 4.20421 12.2962C3.86039 11.9524 3.66724 11.4861 3.66724 10.9999C3.66724 10.5137 3.86039 10.0473 4.20421 9.70352C4.54803 9.3597 5.01434 9.16655 5.50057 9.16655C5.74369 9.16655 5.97684 9.06997 6.14875 8.89806C6.32066 8.72616 6.41724 8.493 6.41724 8.24988C6.41958 7.16572 6.80617 6.11749 7.50832 5.29142C8.21047 4.46535 9.18272 3.91492 10.2523 3.73793C11.322 3.56095 12.4197 3.76886 13.3505 4.32472C14.2813 4.88059 14.985 5.74843 15.3364 6.77405C15.3888 6.93157 15.483 7.0719 15.6089 7.18007C15.7348 7.28824 15.8878 7.36018 16.0514 7.38822C16.662 7.5036 17.2155 7.82235 17.6217 8.29254C18.0279 8.76273 18.2629 9.35663 18.2884 9.97747C18.3139 10.5983 18.1285 11.2095 17.7622 11.7114C17.3959 12.2134 16.8704 12.5765 16.2714 12.7416C16.1546 12.7716 16.0449 12.8244 15.9486 12.8969C15.8522 12.9694 15.7711 13.0602 15.7098 13.164C15.6485 13.2679 15.6083 13.3828 15.5914 13.5022C15.5745 13.6216 15.5813 13.7431 15.6114 13.8599C15.6415 13.9767 15.6943 14.0863 15.7668 14.1827C15.8393 14.2791 15.93 14.3602 16.0339 14.4215C16.1377 14.4828 16.2526 14.523 16.372 14.5399C16.4914 14.5568 16.613 14.55 16.7297 14.5199C17.6944 14.265 18.5496 13.7022 19.1653 12.9171C19.7811 12.1319 20.1238 11.1673 20.1414 10.1696C20.159 9.17199 19.8506 8.19584 19.263 7.38943C18.6754 6.58301 17.8407 5.99039 16.8856 5.70155Z" fill="#0B1214"/>
</svg>
