<svg width="36" height="36" viewBox="0 0 36 36" fill="none" xmlns="http://www.w3.org/2000/svg">
<g clip-path="url(#clip0_87_755)">
<path d="M18.5835 6.34088C18.8051 6.60316 19.0541 7.11072 19.193 7.70325C19.2078 7.76236 19.2137 7.82146 19.2248 7.88057H19.2122C18.5583 8.78857 17.4804 9.32273 16.3345 9.30796C15.9053 10.4258 14.7852 11.268 13.3881 11.5229C12.339 11.602 11.4694 12.2869 11.2278 13.2222C11.1688 13.4512 11.1498 13.6886 11.1717 13.9241C11.1791 13.8051 11.1939 13.6906 11.2205 13.5975C11.4997 12.6467 12.4122 11.9729 13.4901 11.927C14.9308 11.7121 16.107 10.8846 16.5842 9.75198C17.759 9.80518 18.5377 9.36558 19.2381 8.4561C18.9403 9.9921 17.0098 10.295 17.0098 10.295C17.0098 10.295 16.2577 11.6278 15.1428 12.0512C14.2607 12.3859 13.2278 12.5905 12.6693 12.8964C11.8196 13.3633 11.5463 13.9928 11.5093 14.8808C11.6423 15.0847 11.8241 15.2598 12.0258 15.4172C12.0643 15.3372 12.1304 15.2737 12.2119 15.2384C12.8628 14.9281 13.4635 14.5705 14.0043 14.1745C14.0707 14.1247 14.1519 14.0987 14.2348 14.1006C14.3123 14.1025 14.3873 14.1288 14.449 14.1756C14.5108 14.2225 14.5563 14.2876 14.579 14.3617C14.6017 14.4358 14.6005 14.5152 14.5756 14.5886C14.5507 14.662 14.5033 14.7257 14.4402 14.7707C13.9134 15.1564 13.332 15.4985 12.7158 15.8051C13.53 16.0903 14.4616 15.9528 15.1384 15.4135C15.1679 15.3862 15.1805 15.3729 15.2307 15.3234C16.5458 15.8886 18.166 15.7851 19.3385 15.0899L19.3792 15.067C19.5816 14.9436 19.4501 15.0182 19.4501 15.0182L19.408 15.0788C18.681 16.0208 18.6322 16.7855 15.9666 17.4571C13.3002 18.1286 12.2932 21.0167 12.8311 23.3572H13.6061C13.069 21.0174 14.076 18.5062 16.7416 17.8353C19.408 17.163 19.4538 16.0223 20.1815 15.0803L20.2192 15.0256L20.89 14.7079C20.1889 20.0126 14.2333 16.3186 14.2333 23.3558L14.2378 23.7104H20.7807V23.3388H22.3765C22.4874 23.0972 22.5871 22.8519 22.6839 22.6059L25.238 22.5985C26.2553 17.3884 24.4194 11.1217 21.1265 8.21599L21.0378 8.15097C20.5398 7.28804 19.6858 6.61055 18.5827 6.34458L18.5835 6.34088ZM19.0127 6.62902C20.2783 7.61755 20.5893 8.96736 19.4006 9.61087L19.2019 9.66259C20.0966 7.90495 19.1553 6.94154 19.0127 6.62902ZM18.0789 11.1491C18.0877 11.1488 18.0966 11.1488 18.1055 11.1491H18.8443C18.9422 11.1491 19.0362 11.188 19.1055 11.2573C19.1748 11.3266 19.2137 11.4205 19.2137 11.5185C19.2137 11.6165 19.1748 11.7104 19.1055 11.7797C19.0362 11.849 18.9422 11.8879 18.8443 11.8879H18.1055C18.0075 11.8914 17.9121 11.8559 17.8403 11.7891C17.7686 11.7223 17.7263 11.6298 17.7227 11.5318C17.7192 11.4338 17.7548 11.3384 17.8215 11.2667C17.8883 11.1949 17.9809 11.1526 18.0789 11.1491ZM13.479 24.4462C12.6663 24.4462 12.0014 25.1112 12.0014 25.9239C12.0014 26.1943 12.0812 26.444 12.209 26.6627H12.008C11.1732 26.6627 10.438 27.253 10.438 28.0509V28.4292L10.4395 28.6309L10.438 28.8717V29.6135H11.1769V28.8717L11.1783 28.6309L11.1769 28.4292V28.0509C11.1769 27.253 11.9127 26.6627 12.7468 26.6627H12.9485C12.8145 26.4394 12.7428 26.1843 12.7409 25.9239C12.7409 25.1112 13.4059 24.4462 14.2186 24.4462H13.479ZM14.9566 24.4462C14.1439 24.4462 13.479 25.1112 13.479 25.9239C13.479 26.1943 13.5588 26.444 13.6866 26.6627H13.4857C12.6508 26.6627 11.9157 27.253 11.9157 28.0509V28.4292L11.9172 28.6309L11.9157 28.8717V29.6135H24.4755V28.0524C24.4755 27.2545 23.7382 26.6642 22.904 26.6642H22.7526C22.8864 26.4408 22.9578 26.1857 22.9595 25.9253C22.9595 25.1134 22.2945 24.4477 21.4818 24.4477H14.9574L14.9566 24.4462Z" fill="#A1A1A1"/>
</g>
<defs>
<clipPath id="clip0_87_755">
<rect width="23.642" height="23.642" fill="white" transform="translate(6.15631 6.1563)"/>
</clipPath>
</defs>
</svg>
