<svg width="334" height="4" viewBox="0 0 334 4" fill="none" xmlns="http://www.w3.org/2000/svg">
<path d="M135.649 0.000499359C135.392 0.00297746 135.271 0.0144969 135.369 0.0404005C135.563 0.0921523 135.98 0.13197 136.495 0.16658C136.44 0.172003 136.39 0.178279 136.349 0.185382C136.296 0.19434 136.263 0.203426 136.239 0.212644C136.039 0.221431 135.84 0.230397 135.664 0.241055C129.941 0.245868 124.22 0.262025 118.508 0.287119C118.276 0.288129 118.045 0.289769 117.813 0.290879C114.254 0.283887 110.694 0.277795 107.134 0.277926C104.294 0.27806 100.898 0.168927 98.6187 0.303308C98.2685 0.323949 98.167 0.355208 98.2262 0.390526C92.753 0.393405 87.2805 0.400736 81.819 0.426667C81.4756 0.419083 81.1741 0.41687 80.9984 0.430324C79.3787 0.438573 77.7597 0.448026 76.1422 0.459988C76.0313 0.461201 75.9201 0.462266 75.809 0.463435C75.6861 0.462667 75.5631 0.461999 75.4402 0.461241C75.5534 0.429155 74.5598 0.447386 74.1205 0.44359C70.4858 0.412128 67.5487 0.402037 63.8312 0.383947C63.4509 0.382653 61.351 0.34822 59.4505 0.359296C58.4482 0.335876 57.3155 0.294448 56.9059 0.355431C56.9039 0.355714 56.9026 0.355977 56.9005 0.35626C53.5802 0.327669 50.2613 0.301906 46.9537 0.327118C45.9722 0.334598 45.0053 0.351745 44.0561 0.374853C43.0027 0.366204 41.9503 0.357274 40.899 0.347173C40.4297 0.342663 39.1088 0.305166 39.5081 0.325238C40.2614 0.363082 41.0092 0.403679 41.7617 0.443687C40.6985 0.481443 39.668 0.525267 38.6797 0.572164C37.2703 0.568202 34.0677 0.56019 33.9631 0.565375C33.9159 0.567711 33.8755 0.570699 33.8301 0.573209C33.2971 0.57135 32.5821 0.568795 32.5327 0.568613C31.9648 0.568429 31.2801 0.566794 30.9865 0.583967C30.838 0.583908 30.6897 0.583744 30.5413 0.583643C29.3927 0.587524 27.9649 0.535788 27.0944 0.595342C26.865 0.611033 26.6936 0.630581 26.5662 0.652478C25.5925 0.638582 24.6569 0.632568 23.961 0.672742C22.8824 0.675477 21.8746 0.698174 23.2853 0.809993C22.9917 0.829276 22.8021 0.846058 22.7018 0.860548C22.4059 0.860719 22.1101 0.860452 21.8141 0.860653C19.5962 0.862148 17.3791 0.865405 15.1614 0.868174C13.9289 0.86973 12.5068 0.822707 11.4498 0.869953C10.8106 0.870519 10.172 0.872219 9.53605 0.876742C9.8332 0.925109 9.9883 0.983491 10.2262 1.03603C10.0979 1.07381 9.97376 1.11192 9.78103 1.14529C10.2354 1.14598 10.6908 1.14557 11.1456 1.14549C11.1705 1.14691 11.1893 1.14876 11.2154 1.15009C12.2881 1.2047 13.7644 1.15495 15.0389 1.15677C15.4819 1.15742 15.9249 1.1578 16.3679 1.15845C17.8407 1.16716 19.3098 1.17797 20.7789 1.18989C20.7557 1.19329 20.7373 1.19679 20.7157 1.20023C18.7696 1.21696 16.8034 1.23663 15.1087 1.25643C14.0622 1.26866 12.9866 1.27308 11.9819 1.29936C11.5262 1.31128 10.5049 1.34055 10.8334 1.3683C11.2061 1.39976 11.6399 1.42525 12.1005 1.4481C11.6458 1.44869 11.0358 1.44897 10.7149 1.44978C9.43354 1.45301 8.15817 1.46433 6.87946 1.47161C6.53401 1.55363 4.89103 1.67541 5.84289 1.71759C6.14374 1.73093 6.62086 1.7436 7.17845 1.75582C7.16825 1.75722 7.16009 1.75884 7.14946 1.76021C7.22233 1.76012 7.29523 1.76019 7.3681 1.76011C11.0139 1.83564 18.8897 1.88879 24.0506 1.91783C24.0193 1.93138 24.0006 1.94495 23.9953 1.95846C23.9506 1.96147 23.9054 1.9644 23.8622 1.96765C23.1078 1.95585 23.0455 1.95813 23.6581 1.98311C23.5047 1.99602 23.3508 2.00892 23.1958 2.02155C20.8433 2.01824 18.2349 2.01646 17.7588 2.01602C17.2579 2.09068 15.6612 2.16999 16.2467 2.23996C13.9616 2.23676 11.6758 2.23594 9.39382 2.24079C9.6412 2.29398 9.69088 2.3607 9.85876 2.4193C9.83328 2.42401 9.80654 2.42859 9.78105 2.4333C7.8275 2.43949 5.87491 2.44761 3.92519 2.46161C2.95711 2.46856 1.72717 2.43514 1.02887 2.48876C0.986642 2.49201 0.95432 2.49586 0.915605 2.49931C0.760691 2.50042 0.60549 2.50099 0.450673 2.50234C0.664081 2.50376 0.762531 2.50434 0.855022 2.50495C0.826018 2.50775 0.792422 2.51028 0.765457 2.5132C0.402763 2.52255 -0.142614 2.54667 0.222811 2.61202C0.0730972 2.66124 0.0286217 2.71431 0.000228553 2.76295C-0.0132799 2.78601 0.575414 2.77007 0.862927 2.77361C1.20921 2.77173 1.55559 2.77044 1.90213 2.76943C1.90024 2.7702 1.89474 2.77078 1.89423 2.77162C1.66489 3.0785 2.30629 3.02885 4.56795 3.02763C5.82355 3.02378 7.07159 3.01843 8.32039 3.00674C8.51423 3.00493 10.0248 2.98736 10.2526 2.98554C10.562 2.98299 10.8734 2.9819 11.1838 2.98011C11.4641 2.99589 11.7655 3.00859 12.0794 3.01917C11.9484 3.02785 11.8844 3.03738 11.9754 3.04947C12.2439 3.08513 12.7996 3.0751 13.444 3.05104C14.306 3.06381 15.2103 3.06645 16.0795 3.0664C16.0508 3.07706 16.0431 3.08804 16.0899 3.09972C16.2335 3.13541 16.6062 3.15651 17.0633 3.17158C17.0607 3.20234 17.3999 3.20645 17.9602 3.19341C18.0355 3.19489 18.1075 3.19678 18.1828 3.19822C18.276 3.22025 18.3858 3.24135 18.5213 3.26099C18.4751 3.28228 18.4299 3.30347 18.3672 3.32324C18.3382 3.33236 18.605 3.32282 18.7241 3.32262C18.8524 3.32219 18.9805 3.32179 19.1087 3.32136C19.1604 3.32511 19.2066 3.32924 19.2628 3.33265C20.1094 3.38388 21.3909 3.34005 22.4555 3.34226C26.865 3.35143 26.8579 3.34816 31.3578 3.34487C32.664 3.34228 33.9704 3.34049 35.2762 3.33714C38.9668 3.32764 42.6537 3.31181 46.3452 3.30403C49.8542 3.29663 53.3925 3.29237 56.9005 3.28752C62.7052 3.27396 68.5126 3.27679 74.3192 3.27572C74.3274 3.27578 74.336 3.27587 74.3442 3.27592C74.3246 3.31482 74.9981 3.32551 75.7087 3.32731C76.4045 3.36746 77.3391 3.36136 78.3126 3.34747C78.4401 3.3694 78.6125 3.3889 78.8421 3.40461C79.7126 3.46416 81.1391 3.41243 82.2877 3.41631C82.436 3.41622 82.5845 3.41616 82.7329 3.41611C83.0269 3.43323 83.7116 3.43154 84.2791 3.43136C84.3285 3.43117 85.0445 3.42861 85.5778 3.42676C85.6232 3.42927 85.6637 3.43226 85.7108 3.43459C85.8155 3.43978 89.021 3.43187 90.4287 3.42791C91.4163 3.47476 92.4445 3.51866 93.5068 3.55639C92.7547 3.59637 92.0073 3.63691 91.2545 3.67473C90.8552 3.6948 92.1761 3.65731 92.6454 3.6528C93.6967 3.6427 94.7504 3.63377 95.8038 3.62512C96.7529 3.64822 97.7188 3.66537 98.7001 3.67285C102.007 3.69806 105.327 3.67229 108.647 3.64371C108.649 3.64403 108.65 3.64434 108.652 3.64466C109.062 3.7057 110.197 3.6641 111.2 3.64069C113.099 3.65172 115.199 3.61733 115.579 3.61604C119.296 3.59795 122.232 3.58796 125.867 3.5565C126.306 3.55271 127.301 3.57085 127.188 3.53874C127.31 3.53798 127.433 3.53731 127.555 3.53655C127.666 3.53772 127.778 3.53878 127.889 3.54C129.2 3.5497 130.513 3.55775 131.827 3.56496C131.828 3.56706 131.828 3.56936 131.829 3.57144C131.838 3.58789 132.06 3.58198 132.361 3.56789C132.489 3.56855 132.617 3.56902 132.745 3.56966C132.824 3.57575 132.928 3.57861 133.05 3.57927C133.408 3.58933 133.821 3.58399 134.244 3.57635C139.48 3.59977 144.726 3.60681 149.972 3.60957C149.914 3.64484 150.017 3.67606 150.366 3.69668C152.646 3.83106 156.041 3.72193 158.881 3.72206C162.441 3.72219 165.998 3.7161 169.557 3.70911C169.789 3.71022 170.022 3.71186 170.255 3.71287C175.966 3.73796 181.687 3.75412 187.409 3.75893C187.586 3.76964 187.785 3.77863 187.987 3.78745C188.01 3.79664 188.044 3.80578 188.096 3.81471C188.138 3.82181 188.187 3.82798 188.242 3.83341C187.727 3.86803 187.309 3.90781 187.115 3.95959C186.726 4.0632 189.826 3.93626 191.181 3.92449C191.41 3.92251 191.957 3.91788 192.275 3.91519C192.412 3.91997 192.553 3.92428 192.682 3.92961C195.647 3.91501 198.611 3.89832 201.574 3.88114C203.34 3.94925 205.53 3.86184 207.501 3.85043C215.481 3.80425 219.248 3.77481 225.266 3.7277C225.564 3.72881 225.862 3.73025 226.161 3.73083C226.945 3.73237 227.986 3.77451 228.514 3.72854C228.553 3.7252 228.579 3.72238 228.616 3.71913C228.899 3.71837 229.118 3.71247 229.223 3.69709C229.557 3.69451 229.644 3.69386 229.996 3.69114C232.428 3.6658 235.029 3.68585 237.392 3.64205C238.807 3.65173 240.225 3.6611 241.132 3.59745C242.659 3.59529 244.185 3.59487 245.713 3.60016C246.553 3.60176 247.394 3.60402 248.234 3.60601C248.272 3.60745 248.308 3.6091 248.35 3.61008C248.586 3.61559 248.824 3.61989 249.063 3.62366C249.112 3.62662 249.161 3.62922 249.213 3.6316C249.205 3.63417 249.205 3.63703 249.197 3.63954C249.259 3.63911 249.321 3.63861 249.383 3.63818C249.842 3.65368 250.373 3.6501 250.93 3.63996C252.248 3.66131 253.631 3.64266 255.015 3.62179C258.846 3.63002 262.678 3.63428 266.51 3.62211C270.325 3.60992 270.131 3.61234 273.771 3.59422C274.15 3.59232 274.53 3.5904 274.91 3.58848C275.135 3.58973 275.359 3.59161 275.584 3.59276C279.06 3.61452 282.53 3.59005 286.001 3.57971C289.62 3.56954 293.242 3.57311 296.856 3.55391C296.843 3.55068 296.84 3.54811 296.84 3.54565C297.183 3.55138 297.54 3.55874 297.71 3.54325C298.092 3.55247 298.467 3.561 298.495 3.5419C298.541 3.50932 298.584 3.47523 298.608 3.4412C299.172 3.43411 299.734 3.42788 300.292 3.42491C302.852 3.41129 305.413 3.3985 307.969 3.38031C309.685 3.36808 311.407 3.35729 313.104 3.33362C313.615 3.3265 314.888 3.31982 314.551 3.28849C313.895 3.22734 313.059 3.18192 312.183 3.13986C312.586 3.10762 312.976 3.07455 313.333 3.03917C313.774 3.03322 314.102 3.01981 314.118 2.98756C314.119 2.98583 314.117 2.98427 314.118 2.98255C314.277 2.98176 314.425 2.98138 314.584 2.98057C315.833 2.97422 317.188 2.99866 318.326 2.95738C318.493 2.95134 318.691 2.94161 318.89 2.93033C319.947 2.93092 321.327 2.93511 322.426 2.91111C323.153 2.9204 324.046 2.94381 324.177 2.89722C324.243 2.87374 324.281 2.85263 324.303 2.83267C324.501 2.82996 324.71 2.82764 324.929 2.82556C325.427 2.83747 325.889 2.84507 326.037 2.81428C326.038 2.81398 326.039 2.81374 326.042 2.81346C327.567 2.79373 328.701 2.7475 326.4 2.53613C325.908 2.49098 324.904 2.52319 324.153 2.51963C323.017 2.51423 321.879 2.51248 320.742 2.50929C319.986 2.50716 319.154 2.48242 318.405 2.48255C318.354 2.47074 318.104 2.47393 317.849 2.47764C317.133 2.4526 316.444 2.42968 315.789 2.40974C316.835 2.36768 317.951 2.31862 319.174 2.26038C319.855 2.22799 317.59 2.25341 316.798 2.24993C315.41 2.25467 314.02 2.2585 312.631 2.26257C312.579 2.25363 312.525 2.24477 312.468 2.23604C315.598 2.21466 318.729 2.1939 321.859 2.1719C322.555 2.1547 324.556 2.15241 323.949 2.1203C322.717 2.05517 321.563 2.00291 320.454 1.95966C321.295 1.92727 322.189 1.89148 323.206 1.84862C323.72 1.82698 322.043 1.85232 321.462 1.85416C320.222 1.85896 318.984 1.86466 317.744 1.86972C316.872 1.84644 316.019 1.82959 315.169 1.81666C315.007 1.78771 314.762 1.75918 314.47 1.73519C315.723 1.72854 316.956 1.71681 318.13 1.68944C319.266 1.69798 320.427 1.70794 320.921 1.64034C321.203 1.60174 321.092 1.55073 320.788 1.50351C320.853 1.48174 320.877 1.45997 320.867 1.43896C323.627 1.42872 326.743 1.40021 329.205 1.31529C329.716 1.31275 330.227 1.31043 330.737 1.30787C331.641 1.30015 333.909 1.34686 333.449 1.28468C333.076 1.23429 332.613 1.19245 332.086 1.15725C332.581 1.11285 332.973 1.06197 333.22 1.00276C333.51 0.933051 331.37 0.997049 330.445 0.994199C329.124 0.996675 327.804 1.00034 326.484 1.00318C324.925 0.993736 323.294 1.00035 321.721 1.01394C320.827 1.01616 319.932 1.01782 319.037 1.02021C319.218 0.965899 319.266 0.905872 319.394 0.851517C319.437 0.833474 318.82 0.850123 318.346 0.860397C318.316 0.856569 318.294 0.852478 318.26 0.848803C318.062 0.827355 317.72 0.827562 317.347 0.832404C315.12 0.815363 312.894 0.795912 310.664 0.7807C310.641 0.75548 310.622 0.730268 310.618 0.70518C310.021 0.700107 309.426 0.693649 308.827 0.68993C307.544 0.682007 302.974 0.663206 301.937 0.658698C296.926 0.636919 291.92 0.6196 286.904 0.607412C283.388 0.602468 279.869 0.597192 276.351 0.59561C277.261 0.58571 278.171 0.576488 279.084 0.568765C280.647 0.548864 282.982 0.551485 281.018 0.343669C281.113 0.296986 280.823 0.282142 280.366 0.280893C280.329 0.277629 280.301 0.274837 280.263 0.271492C279.734 0.225514 278.695 0.267763 277.911 0.269299C276.812 0.271442 275.714 0.278053 274.616 0.28246C273.428 0.288685 272.237 0.293415 271.05 0.301157C266.801 0.328903 268.131 0.329826 263.906 0.355472C262.41 0.364548 260.912 0.37008 259.416 0.378034C254.775 0.40269 253.675 0.410285 249.02 0.438512C248.253 0.442959 247.486 0.44728 246.719 0.451778C246.624 0.441704 246.319 0.448471 246.005 0.455956C245.99 0.456051 245.972 0.456069 245.956 0.456158C245.783 0.441497 245.431 0.448736 245.094 0.454379C245.095 0.45193 245.099 0.449358 245.109 0.446128C241.495 0.426924 237.873 0.430601 234.255 0.420433C230.783 0.410084 227.313 0.385511 223.838 0.407272C223.613 0.408424 223.389 0.4103 223.165 0.411555C222.785 0.409635 222.405 0.407701 222.025 0.405811C218.386 0.38769 218.579 0.390109 214.764 0.377922C210.932 0.365742 207.1 0.370007 203.268 0.378225C201.884 0.357359 200.502 0.338734 199.184 0.36005C198.627 0.349895 198.095 0.346331 197.635 0.36193C197.574 0.361505 197.512 0.361 197.451 0.360575C197.458 0.363088 197.461 0.365938 197.466 0.368513C197.416 0.370856 197.366 0.373447 197.317 0.376347C197.078 0.380121 196.84 0.384528 196.603 0.390032C196.561 0.391022 196.525 0.392673 196.487 0.394104C195.648 0.396085 194.808 0.398359 193.968 0.399954C192.44 0.405248 190.913 0.404724 189.387 0.402566C188.481 0.338919 187.063 0.348394 185.649 0.358069C183.285 0.314185 180.682 0.334225 178.249 0.308872C167.905 0.229097 165.835 0.207919 155.755 0.149581C153.783 0.138175 151.593 0.0507603 149.828 0.118976C146.865 0.101799 143.902 0.0851084 140.937 0.0705096C140.808 0.0758418 140.666 0.0801492 140.53 0.0849235C140.212 0.0822392 139.665 0.0776165 139.436 0.0756276C138.419 0.0668006 136.421 -0.00690934 135.65 0.000525961L135.649 0.000499359ZM311.969 3.04436C311.732 3.04596 311.495 3.04724 311.258 3.04875C311.263 3.04834 311.271 3.048 311.276 3.0476C311.48 3.04521 311.719 3.04456 311.97 3.04436L311.969 3.04436Z" fill="#CC7722"/>
</svg>
