<svg width="202" height="35" viewBox="0 0 202 35" fill="none" xmlns="http://www.w3.org/2000/svg">
<path d="M9.99162 28.3974V6.95221H23.4368V9.73757H13.2272V16.2717H22.7352V19.0466H13.2272V25.6121H23.5624V28.3974H9.99162ZM32.9493 28.7116C31.6509 28.7116 30.492 28.38 29.4728 27.7168C28.4606 27.0466 27.6648 26.0937 27.0854 24.8581C26.5129 23.6155 26.2267 22.1251 26.2267 20.3869C26.2267 18.6486 26.5164 17.1617 27.0958 15.9261C27.6822 14.6905 28.485 13.7446 29.5042 13.0884C30.5234 12.4322 31.6788 12.1041 32.9702 12.1041C33.9685 12.1041 34.7713 12.2716 35.3786 12.6067C35.9929 12.9348 36.4676 13.3188 36.8027 13.7586C37.1448 14.1983 37.4101 14.5858 37.5985 14.9209H37.787V6.95221H40.918V28.3974H37.8603V25.8948H37.5985C37.4101 26.2369 37.1378 26.6278 36.7818 27.0676C36.4327 27.5074 35.9511 27.8913 35.3367 28.2194C34.7224 28.5475 33.9266 28.7116 32.9493 28.7116ZM33.6404 26.0414C34.5409 26.0414 35.3018 25.804 35.9231 25.3293C36.5514 24.8477 37.0261 24.181 37.3472 23.3293C37.6753 22.4777 37.8394 21.4864 37.8394 20.3555C37.8394 19.2385 37.6788 18.2612 37.3577 17.4235C37.0366 16.5858 36.5654 15.9331 35.9441 15.4654C35.3228 14.9977 34.5549 14.7638 33.6404 14.7638C32.698 14.7638 31.9126 15.0081 31.2844 15.4968C30.6561 15.9854 30.1814 16.6521 29.8603 17.4968C29.5461 18.3415 29.389 19.2944 29.389 20.3555C29.389 21.4305 29.5496 22.3974 29.8707 23.256C30.1918 24.1147 30.6665 24.7953 31.2948 25.2979C31.9301 25.7936 32.7119 26.0414 33.6404 26.0414ZM51.5509 34.764C50.2734 34.764 49.1739 34.5964 48.2524 34.2614C47.338 33.9263 46.591 33.483 46.0116 32.9315C45.4322 32.38 44.9994 31.7762 44.7131 31.12L47.4043 30.01C47.5928 30.3172 47.8441 30.6418 48.1582 30.9838C48.4793 31.3329 48.9121 31.6296 49.4566 31.8739C50.0081 32.1182 50.7167 32.2404 51.5823 32.2404C52.7691 32.2404 53.7499 31.9507 54.5248 31.3713C55.2996 30.7988 55.6871 29.8844 55.6871 28.6278V25.4655H55.4881C55.2996 25.8075 55.0274 26.188 54.6714 26.6068C54.3223 27.0257 53.8406 27.3887 53.2263 27.6959C52.612 28.003 51.8127 28.1566 50.8284 28.1566C49.5579 28.1566 48.413 27.8599 47.3938 27.2665C46.3816 26.6662 45.5788 25.7831 44.9854 24.6173C44.399 23.4445 44.1058 22.003 44.1058 20.2926C44.1058 18.5823 44.3955 17.1163 44.9749 15.8947C45.5613 14.673 46.3641 13.7376 47.3833 13.0884C48.4025 12.4322 49.5579 12.1041 50.8493 12.1041C51.8476 12.1041 52.6539 12.2716 53.2682 12.6067C53.8825 12.9348 54.3607 13.3188 54.7028 13.7586C55.0518 14.1983 55.3206 14.5858 55.5091 14.9209H55.7394V12.3135H58.8075V28.7535C58.8075 30.1357 58.4864 31.2701 57.8442 32.1566C57.2019 33.0432 56.3328 33.6994 55.2368 34.1252C54.1478 34.5511 52.9192 34.764 51.5509 34.764ZM51.5195 25.5597C52.42 25.5597 53.1809 25.3503 53.8022 24.9314C54.4305 24.5056 54.9052 23.8983 55.2263 23.1094C55.5544 22.3136 55.7185 21.3607 55.7185 20.2508C55.7185 19.1687 55.5579 18.2158 55.2368 17.3921C54.9157 16.5684 54.4445 15.9261 53.8232 15.4654C53.2019 14.9977 52.434 14.7638 51.5195 14.7638C50.5771 14.7638 49.7917 15.0081 49.1634 15.4968C48.5352 15.9785 48.0605 16.6347 47.7394 17.4654C47.4252 18.2961 47.2681 19.2246 47.2681 20.2508C47.2681 21.3049 47.4287 22.2298 47.7498 23.0257C48.0709 23.8215 48.5456 24.4428 49.1739 24.8895C49.8092 25.3363 50.591 25.5597 51.5195 25.5597ZM69.3593 28.722C67.7747 28.722 66.4099 28.3835 65.265 27.7063C64.1272 27.0222 63.2476 26.0623 62.6263 24.8267C62.012 23.5841 61.7048 22.1286 61.7048 20.4602C61.7048 18.8127 62.012 17.3607 62.6263 16.1041C63.2476 14.8476 64.1132 13.8668 65.2232 13.1617C66.3401 12.4566 67.6455 12.1041 69.1394 12.1041C70.0469 12.1041 70.9265 12.2542 71.7782 12.5544C72.6299 12.8545 73.3943 13.3257 74.0714 13.968C74.7485 14.6102 75.2826 15.4444 75.6735 16.4706C76.0644 17.4898 76.2599 18.7289 76.2599 20.1879V21.2979H63.4744V18.9523H73.1918C73.1918 18.1286 73.0243 17.3991 72.6892 16.7638C72.3541 16.1216 71.8829 15.6155 71.2756 15.2455C70.6752 14.8755 69.9701 14.6905 69.1604 14.6905C68.2808 14.6905 67.5129 14.9069 66.8567 15.3397C66.2075 15.7656 65.7048 16.324 65.3488 17.0151C64.9998 17.6993 64.8252 18.4427 64.8252 19.2455V21.078C64.8252 22.153 65.0137 23.0675 65.3907 23.8215C65.7746 24.5754 66.3087 25.1513 66.9928 25.5492C67.6769 25.9402 68.4762 26.1356 69.3907 26.1356C69.9841 26.1356 70.5251 26.0519 71.0138 25.8843C71.5024 25.7098 71.9248 25.4515 72.2808 25.1094C72.6368 24.7674 72.9091 24.345 73.0976 23.8424L76.061 24.3765C75.8236 25.2491 75.3978 26.0135 74.7835 26.6697C74.1761 27.3189 73.4117 27.825 72.4902 28.188C71.5757 28.544 70.5321 28.722 69.3593 28.722ZM118.891 13.9261H115.624C115.498 13.228 115.265 12.6137 114.923 12.0831C114.581 11.5526 114.162 11.1023 113.666 10.7323C113.17 10.3624 112.615 10.0831 112.001 9.89464C111.394 9.70616 110.748 9.61192 110.064 9.61192C108.828 9.61192 107.722 9.92257 106.744 10.5439C105.774 11.1652 105.006 12.0762 104.441 13.2769C103.882 14.4776 103.603 15.9436 103.603 17.6748C103.603 19.42 103.882 20.893 104.441 22.0937C105.006 23.2944 105.778 24.2019 106.755 24.8162C107.732 25.4306 108.832 25.7377 110.053 25.7377C110.731 25.7377 111.373 25.647 111.98 25.4655C112.594 25.277 113.149 25.0012 113.645 24.6382C114.141 24.2752 114.56 23.8319 114.902 23.3084C115.251 22.7778 115.492 22.1705 115.624 21.4864L118.891 21.4968C118.717 22.551 118.378 23.5213 117.875 24.4079C117.38 25.2875 116.741 26.0484 115.959 26.6906C115.184 27.3259 114.298 27.818 113.3 28.1671C112.301 28.5161 111.212 28.6906 110.032 28.6906C108.176 28.6906 106.521 28.2508 105.069 27.3712C103.617 26.4847 102.472 25.2176 101.634 23.5702C100.804 21.9227 100.388 19.9576 100.388 17.6748C100.388 15.3851 100.807 13.42 101.645 11.7795C102.483 10.132 103.628 8.86846 105.08 7.98887C106.532 7.1023 108.183 6.65901 110.032 6.65901C111.17 6.65901 112.231 6.82306 113.216 7.15116C114.207 7.47228 115.097 7.94698 115.886 8.57526C116.675 9.19656 117.327 9.95747 117.844 10.858C118.361 11.7516 118.71 12.7743 118.891 13.9261ZM126.613 28.7535C125.594 28.7535 124.672 28.565 123.849 28.188C123.025 27.8041 122.372 27.2491 121.891 26.5231C121.416 25.7971 121.179 24.907 121.179 23.8529C121.179 22.9454 121.353 22.1984 121.702 21.612C122.051 21.0256 122.522 20.5614 123.116 20.2193C123.709 19.8773 124.372 19.619 125.105 19.4445C125.838 19.2699 126.585 19.1373 127.346 19.0466C128.309 18.9349 129.091 18.8441 129.692 18.7743C130.292 18.6975 130.728 18.5754 131.001 18.4078C131.273 18.2403 131.409 17.968 131.409 17.591V17.5177C131.409 16.6033 131.151 15.8947 130.634 15.3921C130.125 14.8895 129.364 14.6381 128.351 14.6381C127.297 14.6381 126.467 14.872 125.859 15.3397C125.259 15.8005 124.843 16.3135 124.613 16.879L121.671 16.2088C122.02 15.2315 122.529 14.4427 123.199 13.8423C123.877 13.235 124.655 12.7952 125.535 12.5229C126.414 12.2437 127.339 12.1041 128.309 12.1041C128.952 12.1041 129.632 12.1809 130.351 12.3345C131.077 12.4811 131.755 12.7533 132.383 13.1512C133.018 13.5491 133.538 14.1181 133.943 14.858C134.348 15.591 134.55 16.5439 134.55 17.7167V28.3974H131.493V26.1985H131.367C131.165 26.6033 130.861 27.0013 130.456 27.3922C130.051 27.7831 129.531 28.1077 128.896 28.366C128.261 28.6243 127.5 28.7535 126.613 28.7535ZM127.294 26.2403C128.159 26.2403 128.899 26.0693 129.514 25.7272C130.135 25.3852 130.606 24.9384 130.927 24.3869C131.255 23.8285 131.419 23.2316 131.419 22.5963V20.523C131.308 20.6347 131.091 20.7394 130.77 20.8372C130.456 20.9279 130.097 21.0082 129.692 21.078C129.287 21.1408 128.892 21.2002 128.508 21.256C128.124 21.3049 127.803 21.3468 127.545 21.3817C126.938 21.4584 126.383 21.5876 125.88 21.7691C125.384 21.9506 124.987 22.2124 124.686 22.5544C124.393 22.8895 124.247 23.3363 124.247 23.8948C124.247 24.6696 124.533 25.256 125.105 25.6539C125.678 26.0449 126.407 26.2403 127.294 26.2403ZM138.141 34.4289V12.3135H141.199V14.9209H141.461C141.642 14.5858 141.904 14.1983 142.246 13.7586C142.588 13.3188 143.063 12.9348 143.67 12.6067C144.278 12.2716 145.08 12.1041 146.079 12.1041C147.377 12.1041 148.536 12.4322 149.555 13.0884C150.574 13.7446 151.374 14.6905 151.953 15.9261C152.539 17.1617 152.833 18.6486 152.833 20.3869C152.833 22.1251 152.543 23.6155 151.963 24.8581C151.384 26.0937 150.588 27.0466 149.576 27.7168C148.564 28.38 147.408 28.7116 146.11 28.7116C145.133 28.7116 144.333 28.5475 143.712 28.2194C143.098 27.8913 142.616 27.5074 142.267 27.0676C141.918 26.6278 141.649 26.2369 141.461 25.8948H141.272V34.4289H138.141ZM141.209 20.3555C141.209 21.4864 141.374 22.4777 141.702 23.3293C142.03 24.181 142.504 24.8477 143.126 25.3293C143.747 25.804 144.508 26.0414 145.408 26.0414C146.344 26.0414 147.126 25.7936 147.754 25.2979C148.382 24.7953 148.857 24.1147 149.178 23.256C149.506 22.3974 149.67 21.4305 149.67 20.3555C149.67 19.2944 149.51 18.3415 149.189 17.4968C148.874 16.6521 148.4 15.9854 147.765 15.4968C147.136 15.0081 146.351 14.7638 145.408 14.7638C144.501 14.7638 143.733 14.9977 143.105 15.4654C142.483 15.9331 142.012 16.5858 141.691 17.4235C141.37 18.2612 141.209 19.2385 141.209 20.3555ZM155.761 28.3974V12.3135H158.892V28.3974H155.761ZM157.342 9.83181C156.798 9.83181 156.33 9.65031 155.939 9.28731C155.555 8.91732 155.363 8.47753 155.363 7.96792C155.363 7.45134 155.555 7.01154 155.939 6.64854C156.33 6.27855 156.798 6.09356 157.342 6.09356C157.887 6.09356 158.351 6.27855 158.735 6.64854C159.126 7.01154 159.322 7.45134 159.322 7.96792C159.322 8.47753 159.126 8.91732 158.735 9.28731C158.351 9.65031 157.887 9.83181 157.342 9.83181ZM170.033 12.3135V14.8266H161.248V12.3135H170.033ZM163.604 8.46007H166.735V23.6749C166.735 24.2822 166.825 24.7395 167.007 25.0466C167.188 25.3468 167.422 25.5527 167.708 25.6644C168.002 25.7691 168.319 25.8215 168.661 25.8215C168.913 25.8215 169.133 25.804 169.321 25.7691C169.509 25.7342 169.656 25.7063 169.761 25.6854L170.326 28.2718C170.145 28.3416 169.886 28.4114 169.551 28.4812C169.216 28.558 168.797 28.5999 168.295 28.6069C167.471 28.6208 166.703 28.4742 165.991 28.1671C165.279 27.8599 164.703 27.3852 164.263 26.743C163.824 26.1007 163.604 25.2944 163.604 24.3241V8.46007ZM177.598 28.7535C176.579 28.7535 175.657 28.565 174.833 28.188C174.01 27.8041 173.357 27.2491 172.875 26.5231C172.401 25.7971 172.163 24.907 172.163 23.8529C172.163 22.9454 172.338 22.1984 172.687 21.612C173.036 21.0256 173.507 20.5614 174.1 20.2193C174.694 19.8773 175.357 19.619 176.09 19.4445C176.823 19.2699 177.57 19.1373 178.331 19.0466C179.294 18.9349 180.076 18.8441 180.676 18.7743C181.277 18.6975 181.713 18.5754 181.985 18.4078C182.258 18.2403 182.394 17.968 182.394 17.591V17.5177C182.394 16.6033 182.135 15.8947 181.619 15.3921C181.109 14.8895 180.348 14.6381 179.336 14.6381C178.282 14.6381 177.451 14.872 176.844 15.3397C176.244 15.8005 175.828 16.3135 175.598 16.879L172.655 16.2088C173.004 15.2315 173.514 14.4427 174.184 13.8423C174.861 13.235 175.64 12.7952 176.519 12.5229C177.399 12.2437 178.324 12.1041 179.294 12.1041C179.936 12.1041 180.617 12.1809 181.336 12.3345C182.062 12.4811 182.739 12.7533 183.368 13.1512C184.003 13.5491 184.523 14.1181 184.928 14.858C185.333 15.591 185.535 16.5439 185.535 17.7167V28.3974H182.478V26.1985H182.352C182.149 26.6033 181.846 27.0013 181.441 27.3922C181.036 27.7831 180.516 28.1077 179.881 28.366C179.245 28.6243 178.484 28.7535 177.598 28.7535ZM178.279 26.2403C179.144 26.2403 179.884 26.0693 180.498 25.7272C181.12 25.3852 181.591 24.9384 181.912 24.3869C182.24 23.8285 182.404 23.2316 182.404 22.5963V20.523C182.293 20.6347 182.076 20.7394 181.755 20.8372C181.441 20.9279 181.081 21.0082 180.676 21.078C180.272 21.1408 179.877 21.2002 179.493 21.256C179.109 21.3049 178.788 21.3468 178.53 21.3817C177.923 21.4584 177.368 21.5876 176.865 21.7691C176.369 21.9506 175.971 22.2124 175.671 22.5544C175.378 22.8895 175.231 23.3363 175.231 23.8948C175.231 24.6696 175.518 25.256 176.09 25.6539C176.662 26.0449 177.392 26.2403 178.279 26.2403ZM192.257 6.95221V28.3974H189.126V6.95221H192.257Z" fill="black"/>
<line y1="-0.589744" x2="20.028" y2="-0.589744" transform="matrix(-0.286531 0.958071 -0.99349 -0.113921 85.0386 11.2431)" stroke="#F9A600" stroke-width="1.17949"/>
<line y1="-0.589744" x2="20.028" y2="-0.589744" transform="matrix(-0.286531 0.958071 -0.99349 -0.113921 88.4779 11.2431)" stroke="#F9A600" stroke-width="1.17949"/>
<line y1="-0.589744" x2="20.028" y2="-0.589744" transform="matrix(-0.286531 0.958071 -0.99349 -0.113921 91.9172 11.2431)" stroke="#F9A600" stroke-width="1.17949"/>
</svg>
