<?xml version="1.0" encoding="UTF-8"?>
<svg id="Laag_1" xmlns="http://www.w3.org/2000/svg" version="1.1" viewBox="0 0 1920 588.6">
  <!-- Generator: Adobe Illustrator 29.5.0, SVG Export Plug-In . SVG Version: 2.1.0 Build 137)  -->
  <defs>
    <style>
      .st0 {
        fill: #061616;
      }

      .st1 {
        fill: #f9a600;
      }
    </style>
  </defs>
  <g>
    <rect class="st0" x="84.7" y="367" width="9.6" height="119.4"/>
    <path class="st0" d="M176.6,403.4c-4.8-2.7-10.2-4-16-4s-12.4,1.7-17.4,5c-3.3,2.2-6,5-7.9,8.3v-11.3h-9.6v85.1h9.6v-51.3c0-5.1,1-9.7,2.9-13.6,1.9-3.9,4.7-7.1,8.3-9.3,3.6-2.2,7.9-3.4,12.7-3.4s8.7,1,12.3,3c3.6,2,6.4,4.8,8.4,8.5,2,3.7,3,8.1,3,13.2v52.9h9.6v-55.6c0-6.1-1.4-11.5-4.3-16.3-2.9-4.8-6.7-8.5-11.5-11.1Z"/>
    <polygon class="st0" points="248.6 473.2 220.6 401.3 209.9 401.3 243.5 486.4 253.5 486.4 287.6 401.3 276.6 401.3 248.6 473.2"/>
    <path class="st0" d="M372.5,411.5c-3.5-3.8-7.6-6.8-12.3-8.9-4.8-2.1-10.1-3.2-15.9-3.2s-14.6,1.9-20.8,5.8c-6.2,3.8-11.1,9.1-14.7,15.8-3.6,6.7-5.4,14.2-5.4,22.7s1.9,16.1,5.6,22.8c3.7,6.8,8.8,12.1,15.2,16,6.4,3.9,13.6,5.9,21.6,5.9s10.5-.9,15.1-2.7c4.6-1.8,8.7-4.3,12.3-7.5,3.5-3.1,6.3-6.7,8.2-10.7l-8.2-4.3c-2.9,4.9-6.6,8.8-11.2,11.8-4.6,2.9-10,4.4-16.2,4.4s-11.6-1.5-16.7-4.6c-5-3-9-7.2-11.9-12.6-2.5-4.5-3.8-9.7-4-15.4h69.5c.2-1.3.4-2.5.5-3.7.1-1.2.2-2.3.2-3.4,0-5.3-.9-10.4-2.8-15.3-1.9-4.9-4.5-9.2-8-13ZM316.9,425.4c2.8-5.3,6.6-9.5,11.4-12.5,4.8-3,10.1-4.6,15.9-4.6s10.9,1.5,15.5,4.4c4.5,2.9,8,6.9,10.5,11.9,2,4.1,3,8.5,2.9,13.4h-59.8c.5-4.6,1.7-8.8,3.6-12.6Z"/>
    <path class="st0" d="M447.6,440.4l-14.3-4.2c-2.2-.6-4.4-1.5-6.5-2.6-2.1-1.1-3.8-2.6-5-4.3s-1.9-4-1.9-6.7c0-4.2,1.6-7.6,4.8-10.3s7.4-4.1,12.5-4.1,9.4,1.4,13.5,4.1c4.1,2.7,7.2,6.5,9.5,11.3l8.7-4c-2.4-6.2-6.4-11.1-12.2-14.7-5.8-3.6-12.2-5.4-19.2-5.4s-9.6,1-13.8,3c-4.2,2-7.5,4.8-9.9,8.3-2.5,3.6-3.7,7.8-3.7,12.6s1.7,10,5.2,13.9c3.5,4,8.9,6.9,16.3,9l13.1,3.7c2.6.6,5,1.6,7.2,2.8,2.2,1.2,4.1,2.8,5.5,4.7,1.4,1.9,2.2,4.3,2.2,7,0,4.5-1.9,8.1-5.7,10.8-3.8,2.7-8.5,4.1-14,4.1s-10.4-1.5-14.9-4.6c-4.5-3-8.1-7.2-10.7-12.4l-8.3,3.8c2.8,6.8,7.2,12.2,13.1,16.2,6,4,12.9,5.9,20.8,5.9s10.7-1,15.2-3.1c4.5-2.1,8-4.9,10.6-8.6,2.6-3.6,3.8-7.7,3.8-12.3s-1.9-10.6-5.7-14.7c-3.8-4.2-9.2-7.2-16.1-9.1Z"/>
    <path class="st0" d="M529.6,478.2c-3.8,0-6.8-.7-8.8-2.1-2-1.4-3.4-3.2-4.1-5.4-.7-2.2-1-4.5-1-6.9v-53.4h18.6v-9.1h-18.6v-19.9h-9.6v9.1c0,3.3-.9,5.9-2.6,7.9-1.7,1.9-4.2,2.9-7.4,2.9h-6.1v9.1h16v53.4c0,7.7,1.9,13.5,5.8,17.6s9.3,6,16.3,6,2,0,3.5-.2c1.5-.2,2.8-.4,4-.7v-8.7c-.7.1-1.7.2-3,.3s-2.3.2-3.1.2Z"/>
    <rect class="st0" x="563.6" y="401.3" width="9.6" height="85.1"/>
    <rect class="st0" x="563.6" y="367" width="9.6" height="17.6"/>
    <path class="st0" d="M655.5,403.4c-4.8-2.7-10.2-4-16-4s-12.4,1.7-17.4,5c-3.3,2.2-6,5-7.9,8.3v-11.3h-9.6v85.1h9.6v-51.3c0-5.1,1-9.7,2.9-13.6,1.9-3.9,4.7-7.1,8.3-9.3,3.6-2.2,7.9-3.4,12.7-3.4s8.7,1,12.3,3c3.6,2,6.4,4.8,8.4,8.5,2,3.7,3,8.1,3,13.2v52.9h9.6v-55.6c0-6.1-1.4-11.5-4.3-16.3-2.9-4.8-6.7-8.5-11.5-11.1Z"/>
    <path class="st0" d="M771.2,416.7c-3.1-4.8-7.1-8.7-12-11.8-6-3.7-12.7-5.5-20.2-5.5s-15.1,1.9-21.4,5.8c-6.3,3.8-11.2,9-14.7,15.5-3.6,6.5-5.4,13.7-5.4,21.6s1.8,15.1,5.4,21.6c3.6,6.5,8.5,11.7,14.8,15.5,6.3,3.8,13.4,5.8,21.3,5.8s14.3-1.9,20.4-5.7c5-3.1,8.9-7.2,11.9-12.2v16c0,6.5-1.5,11.9-4.4,16.3-2.9,4.3-6.7,7.5-11.3,9.6-4.6,2.1-9.6,3.1-14.9,3.1s-12.3-1.5-17.1-4.5c-4.8-3-8.3-6.8-10.7-11.4l-8.7,4.6c2,3.9,4.8,7.5,8.3,10.6,3.5,3.1,7.7,5.6,12.5,7.4,4.8,1.8,10,2.7,15.7,2.7s14.7-1.7,20.8-5c6-3.3,10.8-7.9,14.2-13.7,3.4-5.8,5.1-12.4,5.1-19.8v-81.9h-9.6v15.4ZM766.7,458.9c-2.8,5.1-6.5,9.1-11.3,12.1-4.8,3-10.1,4.5-16.1,4.5s-11.7-1.5-16.4-4.5c-4.8-3-8.5-7-11.1-12.1-2.7-5.1-4-10.7-4-16.7s1.3-11.6,4-16.7c2.7-5,6.4-9,11.2-12,4.8-3,10.3-4.5,16.3-4.5s11.4,1.5,16.1,4.5c4.8,3,8.5,7,11.3,12s4.2,10.6,4.2,16.7-1.4,11.7-4.2,16.7Z"/>
    <polygon class="st0" points="918.7 471.8 897.6 401.3 887.9 401.3 866.8 471.8 843.5 401.3 832.7 401.3 861.9 486.4 871.7 486.4 892.7 416.1 913.8 486.4 923.6 486.4 952.9 401.3 942.2 401.3 918.7 471.8"/>
    <rect class="st0" x="973.6" y="401.3" width="9.6" height="85.1"/>
    <rect class="st0" x="973.6" y="367" width="9.6" height="17.6"/>
    <path class="st0" d="M1046.8,478.2c-3.8,0-6.8-.7-8.8-2.1-2-1.4-3.4-3.2-4.1-5.4-.7-2.2-1-4.5-1-6.9v-53.4h18.6v-9.1h-18.6v-19.9h-9.6v9.1c0,3.3-.9,5.9-2.6,7.9-1.7,1.9-4.2,2.9-7.4,2.9h-6.1v9.1h16v53.4c0,7.7,1.9,13.5,5.8,17.6,3.8,4,9.3,6,16.3,6s2,0,3.5-.2c1.5-.2,2.8-.4,4-.7v-8.7c-.7.1-1.7.2-3,.3s-2.3.2-3.1.2Z"/>
    <path class="st0" d="M1131.8,403.4c-4.8-2.7-10.2-4-16-4s-12.4,1.7-17.4,5c-3.3,2.2-6,5-7.9,8.3v-47.5h-9.6v121.3h9.6v-51.3c0-5.1,1-9.7,3-13.6,2-3.9,4.7-7.1,8.3-9.3,3.6-2.2,7.8-3.4,12.6-3.4s8.5,1,12.1,3c3.6,2,6.4,4.8,8.5,8.5,2.1,3.7,3.1,8.1,3.1,13.2v52.9h9.6v-55.6c0-6.1-1.4-11.5-4.3-16.3-2.9-4.8-6.7-8.5-11.5-11.1Z"/>
    <path class="st0" d="M1258.8,403c-4.8-2.4-10.2-3.6-16.4-3.6s-9.6.9-13.9,2.6c-4.4,1.7-8.2,4-11.5,6.9-3.3,2.9-5.8,6-7.4,9.5l8.7,4.6c2.2-4.3,5.5-7.7,9.8-10.4,4.3-2.7,9.1-4,14.4-4s11.8,1.8,15.9,5.3c4.1,3.5,6.1,8.1,6.1,13.8v4.8l-31.9,5.3c-6.5,1.1-11.8,2.9-15.9,5.5-4.1,2.6-7,5.7-8.8,9.4-1.8,3.6-2.7,7.5-2.7,11.7s1.2,8.9,3.7,12.5c2.5,3.6,5.8,6.5,9.9,8.5,4.2,2,8.9,3,14.3,3s10-.9,14.3-2.6,8.1-4.1,11.3-6.9c2.5-2.2,4.4-4.5,5.8-7v14.7h9.6v-58.8c0-5.6-1.3-10.4-4-14.7-2.7-4.2-6.4-7.5-11.1-9.9ZM1249.7,475.3c-4.6,2.8-10,4.2-16.2,4.2s-9.8-1.4-13.2-4.3c-3.5-2.9-5.2-6.6-5.2-11.2s1.5-8,4.5-11.2c3-3.2,8.1-5.4,15.4-6.6l29.3-4.9v7.4c0,5.6-1.3,10.7-3.8,15.3s-6.1,8.4-10.7,11.2Z"/>
    <path class="st0" d="M1356.2,403.4c-4.8-2.7-10.2-4-16-4s-12.4,1.7-17.4,5c-3.3,2.2-6,5-7.9,8.3v-11.3h-9.6v85.1h9.6v-51.3c0-5.1,1-9.7,2.9-13.6,1.9-3.9,4.7-7.1,8.3-9.3,3.6-2.2,7.9-3.4,12.7-3.4s8.7,1,12.3,3c3.6,2,6.4,4.8,8.4,8.5,2,3.7,3,8.1,3,13.2v52.9h9.6v-55.6c0-6.1-1.4-11.5-4.3-16.3-2.9-4.8-6.7-8.5-11.5-11.1Z"/>
    <path class="st0" d="M1498.7,411.5c-3.5-3.8-7.6-6.8-12.3-8.9-4.8-2.1-10.1-3.2-15.9-3.2s-14.6,1.9-20.8,5.8c-6.2,3.8-11.1,9.1-14.7,15.8-3.6,6.7-5.4,14.2-5.4,22.7s1.9,16.1,5.6,22.8c3.7,6.8,8.8,12.1,15.2,16,6.4,3.9,13.6,5.9,21.6,5.9s10.5-.9,15.1-2.7c4.6-1.8,8.7-4.3,12.3-7.5,3.5-3.1,6.2-6.7,8.2-10.7l-8.2-4.3c-2.9,4.9-6.6,8.8-11.2,11.8-4.6,2.9-10,4.4-16.2,4.4s-11.6-1.5-16.7-4.6c-5-3-9-7.2-11.9-12.6-2.5-4.5-3.8-9.7-4-15.4h69.5c.2-1.3.4-2.5.5-3.7.1-1.2.2-2.3.2-3.4,0-5.3-.9-10.4-2.8-15.3-1.9-4.9-4.5-9.2-8-13ZM1443.2,425.4c2.8-5.3,6.6-9.5,11.4-12.5,4.8-3,10.1-4.6,15.9-4.6s10.9,1.5,15.5,4.4c4.5,2.9,8,6.9,10.5,11.9,2,4.1,3,8.5,2.9,13.4h-59.8c.5-4.6,1.7-8.8,3.6-12.6Z"/>
    <path class="st0" d="M1608.6,416.9c-3-4.9-7.1-8.9-12.2-12-6.1-3.7-13-5.5-20.8-5.5s-15,1.9-21.4,5.8c-6.4,3.8-11.4,9.1-15,15.9-3.6,6.7-5.4,14.3-5.4,22.8s1.8,16,5.4,22.8c3.6,6.7,8.6,12,15,15.9,6.4,3.9,13.5,5.9,21.4,5.9s14.8-1.9,20.9-5.7c5.1-3.2,9.2-7.4,12.1-12.5v16.3h9.6v-121.3h-9.6v51.8ZM1604.1,461.6c-2.9,5.3-6.8,9.5-11.6,12.5-4.9,3-10.4,4.6-16.6,4.6s-11.5-1.5-16.3-4.6c-4.8-3-8.6-7.2-11.4-12.5-2.8-5.3-4.2-11.2-4.2-17.9s1.4-12.6,4.2-17.8c2.8-5.2,6.6-9.4,11.4-12.4,4.8-3,10.3-4.6,16.3-4.6s11.7,1.5,16.6,4.6c4.9,3,8.7,7.2,11.6,12.4,2.9,5.2,4.3,11.2,4.3,17.8s-1.4,12.6-4.3,17.9Z"/>
    <path class="st0" d="M1719.8,416.7c-3.1-4.8-7.1-8.7-12-11.8-6-3.7-12.7-5.5-20.2-5.5s-15.1,1.9-21.4,5.8c-6.2,3.8-11.2,9-14.7,15.5-3.6,6.5-5.4,13.7-5.4,21.6s1.8,15.1,5.4,21.6c3.6,6.5,8.5,11.7,14.8,15.5,6.3,3.8,13.4,5.8,21.3,5.8s14.3-1.9,20.4-5.7c5-3.1,8.9-7.2,11.9-12.2v16c0,6.5-1.5,11.9-4.4,16.3-2.9,4.3-6.7,7.5-11.3,9.6-4.6,2.1-9.6,3.1-14.9,3.1s-12.3-1.5-17.1-4.5c-4.8-3-8.3-6.8-10.7-11.4l-8.7,4.6c2,3.9,4.8,7.5,8.3,10.6,3.5,3.1,7.7,5.6,12.5,7.4,4.8,1.8,10,2.7,15.7,2.7s14.7-1.7,20.8-5c6-3.3,10.8-7.9,14.2-13.7,3.4-5.8,5.1-12.4,5.1-19.8v-81.9h-9.6v15.4ZM1715.3,458.9c-2.8,5.1-6.6,9.1-11.3,12.1-4.8,3-10.1,4.5-16.1,4.5s-11.7-1.5-16.4-4.5c-4.8-3-8.5-7-11.1-12.1-2.7-5.1-4-10.7-4-16.7s1.3-11.6,4-16.7c2.7-5,6.4-9,11.2-12,4.8-3,10.3-4.5,16.3-4.5s11.4,1.5,16.1,4.5c4.7,3,8.5,7,11.3,12,2.8,5,4.2,10.6,4.2,16.7s-1.4,11.7-4.2,16.7Z"/>
    <path class="st0" d="M1834.5,424.5c-1.9-4.9-4.5-9.2-8-13-3.5-3.8-7.6-6.8-12.3-8.9-4.8-2.1-10.1-3.2-15.9-3.2s-14.6,1.9-20.8,5.8c-6.2,3.8-11.1,9.1-14.7,15.8-3.6,6.7-5.4,14.2-5.4,22.7s1.9,16.1,5.6,22.8c3.7,6.8,8.8,12.1,15.2,16,6.4,3.9,13.6,5.9,21.6,5.9s10.5-.9,15.1-2.7c4.6-1.8,8.7-4.3,12.3-7.5,3.5-3.1,6.2-6.7,8.2-10.7l-8.2-4.3c-2.9,4.9-6.6,8.8-11.2,11.8-4.6,2.9-10,4.4-16.2,4.4s-11.6-1.5-16.7-4.6c-5-3-9-7.2-11.9-12.6-2.5-4.5-3.8-9.7-4-15.4h69.5c.2-1.3.4-2.5.5-3.7.1-1.2.2-2.3.2-3.4,0-5.3-.9-10.4-2.8-15.3ZM1771,425.4c2.8-5.3,6.6-9.5,11.4-12.5,4.8-3,10.1-4.6,15.9-4.6s10.9,1.5,15.5,4.4c4.5,2.9,8,6.9,10.5,11.9,2,4.1,3,8.5,2.9,13.4h-59.8c.5-4.6,1.7-8.8,3.6-12.6Z"/>
  </g>
  <g>
    <path class="st0" d="M206.8,148.8c-6.3-7-14-12.5-23.2-16.5-9.2-4-19.6-6-31.2-6s-27.5,3.5-39,10.5c-11.5,7-20.6,16.5-27.4,28.5-6.8,12-10.2,25.9-10.2,41.6s3.3,29.1,10,41.4c6.7,12.3,16,22.1,27.9,29.2,11.9,7.2,25.6,10.7,41.1,10.7s20.2-1.7,29.1-5c8.9-3.3,16.5-7.9,22.9-13.8,6.4-5.8,11.1-12.4,14.2-19.6l-26.4-12.9c-3.8,6.7-9,12.1-15.6,16.3-6.6,4.2-14.6,6.3-23.9,6.3s-17.3-2.2-24.5-6.6c-7.2-4.4-12.7-10.5-16.6-18.3-2.7-5.4-4.2-11.4-4.6-18.1h115.4c.6-2.3,1-4.8,1.1-7.5.2-2.7.3-5.3.3-7.7,0-10.1-1.7-19.7-5-28.7-3.3-9-8.2-17-14.5-23.9ZM114,178.3c3.6-7.9,8.8-14,15.5-18.3,6.7-4.3,14.3-6.4,22.9-6.4s16.1,2.1,22.5,6.4c6.4,4.3,11.2,10.1,14.3,17.5,1.8,4.1,2.7,8.6,2.9,13.3h-81.8c.7-4.5,1.9-8.7,3.7-12.5Z"/>
    <path class="st0" d="M371.3,147.8c-4.9-5.7-10.8-10.4-17.8-14-9.6-5-20.5-7.5-33-7.5s-27.9,3.5-39.6,10.6c-11.7,7.1-20.9,16.7-27.8,28.9-6.9,12.2-10.3,26-10.3,41.3s3.4,29,10.2,41.3c6.8,12.2,16,21.9,27.8,29.1,11.8,7.2,25.1,10.7,40,10.7s22.7-2.5,32.7-7.5c7.8-3.9,14.2-9.2,19.2-15.9v19.9h30.7V67.9h-32.1v79.9ZM365.2,233.4c-4.1,7.7-9.7,13.8-16.9,18.2-7.2,4.4-15.2,6.6-24.2,6.6s-17.3-2.2-24.5-6.6c-7.2-4.4-12.8-10.5-16.8-18.2-4-7.7-6-16.5-6-26.2s2-18.4,6-26.1c4-7.6,9.6-13.7,16.9-18.1,7.3-4.4,15.4-6.6,24.4-6.6s17.1,2.2,24.2,6.6c7.2,4.4,12.8,10.4,16.9,18.1,4.1,7.6,6.2,16.3,6.2,26.1s-2.1,18.5-6.2,26.2Z"/>
    <path class="st0" d="M551.9,149.7c-5.2-6.6-11.3-11.9-18.5-15.8-9.3-5.1-19.8-7.6-31.7-7.6s-27.4,3.3-38.7,10c-11.3,6.7-20.2,15.8-26.8,27.2-6.6,11.5-9.9,24.6-9.9,39.3s3.3,27.6,9.9,39.3c6.6,11.7,15.6,20.8,27.1,27.5,11.5,6.7,24.4,10,38.7,10s22.5-2.6,32-7.7c6.5-3.5,11.9-8.2,16.5-13.9v19.7c0,8.4-1.9,15.6-5.7,21.6-3.8,6-9,10.6-15.5,13.8-6.5,3.2-13.9,4.7-22.1,4.7s-19.3-2.4-26.5-7.2c-7.2-4.8-12.1-10.8-14.8-18.1l-29.8,12.3c3.4,8.6,8.6,16.1,15.5,22.5,6.9,6.4,15.1,11.4,24.6,15,9.6,3.6,20,5.4,31.2,5.4s27.7-3.1,39-9.2c11.3-6.1,20.1-14.5,26.5-25.1,6.4-10.6,9.6-22.6,9.6-36v-147.9h-30.7v19.9ZM544.6,226.8c-3.9,7-9.2,12.5-15.9,16.6-6.7,4.1-14.3,6.2-22.9,6.2s-16.6-2.1-23.5-6.2c-6.9-4.1-12.3-9.7-16.2-16.8-3.9-7.1-5.9-14.9-5.9-23.5s2-17,5.9-23.9c3.9-7,9.3-12.5,16.2-16.6,6.9-4.1,14.7-6.2,23.5-6.2s16,2.1,22.6,6.2c6.7,4.1,12,9.7,16,16.8,4,7.1,6,15,6,23.8s-2,16.7-5.9,23.6Z"/>
    <path class="st0" d="M751,172.8c-3.3-9-8.2-17-14.5-23.9-6.3-7-14-12.5-23.2-16.5-9.2-4-19.6-6-31.2-6s-27.5,3.5-39,10.5c-11.5,7-20.6,16.5-27.4,28.5-6.8,12-10.2,25.9-10.2,41.6s3.3,29.1,10,41.4c6.7,12.3,16,22.1,27.9,29.2,11.9,7.2,25.6,10.7,41.1,10.7s20.2-1.7,29.1-5c8.9-3.3,16.5-7.9,22.9-13.8,6.4-5.8,11.1-12.4,14.2-19.6l-26.4-12.9c-3.8,6.7-9,12.1-15.6,16.3-6.6,4.2-14.6,6.3-23.9,6.3s-17.3-2.2-24.5-6.6c-7.2-4.4-12.7-10.5-16.6-18.3-2.7-5.4-4.2-11.4-4.6-18.1h115.4c.6-2.3,1-4.8,1.1-7.5.2-2.7.3-5.3.3-7.7,0-10.1-1.7-19.7-5-28.7ZM643.6,178.3c3.6-7.9,8.8-14,15.5-18.3,6.7-4.3,14.3-6.4,22.9-6.4s16.1,2.1,22.5,6.4c6.4,4.3,11.2,10.1,14.3,17.5,1.8,4.1,2.7,8.6,2.9,13.3h-81.8c.7-4.5,1.9-8.7,3.7-12.5Z"/>
  </g>
  <g>
    <polygon class="st1" points="923.9 236.6 963 129.7 935 129.7 896 236.6 923.9 236.6"/>
    <polygon class="st1" points="867.3 259.5 914.7 129.7 886.7 129.7 839.3 259.5 867.3 259.5"/>
    <polygon class="st1" points="782.7 282.5 838.4 129.7 866.4 129.7 810.7 282.5 782.7 282.5"/>
    <polygon class="st1" points="782.7 282.5 838.4 129.7 866.4 129.7 810.7 282.5 782.7 282.5"/>
  </g>
  <g>
    <path class="st0" d="M1036.7,159.9c7.5-4.8,16-7.2,25.4-7.2s18.3,2.5,25.8,7.6c7.5,5.1,13,11.6,16.6,19.6l23.8-11.5c-3.1-8.2-7.9-15.4-14.6-21.5-6.7-6.1-14.4-11-23.2-14.6-8.8-3.6-18.2-5.4-28.4-5.4-15.1,0-28.5,3.5-40.3,10.6-11.8,7.1-21,16.6-27.7,28.7-6.7,12-10,25.8-10,41.3s3.3,29,10,41.3c6.7,12.2,15.9,21.9,27.7,28.9,11.7,7.1,25.2,10.6,40.3,10.6s19.6-1.8,28.4-5.4c8.8-3.6,16.5-8.5,23.2-14.8,6.7-6.2,11.6-13.3,14.6-21.4l-23.8-12c-3.6,8.4-9.2,15.1-16.6,20.2-7.5,5.1-16.1,7.6-25.8,7.6s-17.8-2.4-25.4-7.2c-7.5-4.8-13.5-11.3-17.9-19.6-4.4-8.3-6.6-17.6-6.6-27.9s2.2-20.2,6.6-28.4c4.4-8.2,10.4-14.7,17.9-19.5Z"/>
    <path class="st0" d="M1247.5,133.6c-9-4.5-19.4-6.7-31.2-6.7s-18,1.6-26.4,4.9c-8.4,3.3-15.8,7.7-22.1,13.3-6.3,5.6-10.9,12-13.8,19.1l23.2,12c3.2-7.5,8.3-13.4,15-17.9,6.8-4.5,14.6-6.7,23.4-6.7s18.3,2.6,24.5,7.9c6.2,5.3,9.3,12.1,9.3,20.5v7.1l-52.7,8.7c-11.5,1.9-21,5.2-28.5,9.7-7.6,4.6-13.1,10.2-16.6,16.8-3.5,6.6-5.3,14-5.3,22.2s2.2,16.2,6.6,22.8c4.4,6.6,10.5,11.8,18.2,15.5,7.7,3.7,16.7,5.6,26.8,5.6s16.9-1.3,24.4-4,13.9-6.3,19.5-10.9c3.2-2.6,5.9-5.5,8.3-8.6v20.1h26.1v-104.9c0-10.5-2.5-19.7-7.6-27.7-5.1-7.9-12.1-14.1-21.1-18.6ZM1243.3,242.7c-4.1,7.1-9.7,12.7-16.9,16.8-7.2,4.1-15.6,6.2-25.4,6.2s-14-2.1-19.1-6.3c-5.1-4.2-7.6-9.5-7.6-15.8s2.2-12.3,6.7-16.9c4.5-4.6,11.7-7.7,21.6-9.5l46.7-7.8v9.8c0,8.6-2.1,16.4-6.2,23.5Z"/>
    <path class="st0" d="M1428.2,137.5c-11.6-7.1-24.6-10.6-39.1-10.6s-24.2,2.7-34.1,8.2c-8.1,4.4-14.8,10.1-20.1,17v-21.8h-26.1v211.8h26.7v-79c5.1,6.9,11.5,12.5,19.3,16.8,10.2,5.5,21.5,8.3,34,8.3s27.8-3.5,39.4-10.6c11.6-7.1,20.7-16.7,27.4-28.9,6.7-12.2,10-25.9,10-41s-3.3-29.3-10-41.4c-6.7-12.1-15.8-21.7-27.4-28.8ZM1430.8,235.7c-4.3,8.3-10.3,14.9-17.9,19.6-7.6,4.8-16.3,7.2-26.1,7.2s-18.5-2.4-26.2-7.2c-7.7-4.8-13.9-11.3-18.3-19.6-4.5-8.3-6.7-17.6-6.7-27.9s2.2-19.9,6.7-28.2c4.5-8.3,10.6-14.9,18.3-19.6,7.7-4.8,16.5-7.2,26.2-7.2s18.4,2.4,26.1,7.3c7.6,4.9,13.6,11.4,17.9,19.5,4.3,8.1,6.4,17.5,6.4,28.2s-2.2,19.6-6.4,27.9Z"/>
    <rect class="st0" x="1492" y="130.3" width="26.7" height="154.5"/>
    <rect class="st0" x="1492" y="71.3" width="26.7" height="34.4"/>
    <path class="st0" d="M1619.5,262.2c-6.3,0-11.4-1.1-15.2-3.3-3.8-2.2-6.5-5.2-8.2-9-1.6-3.8-2.4-8.3-2.4-13.5v-80.5h34.7v-25.5h-34.7v-35.5h-26.7v12.6c0,6.9-2,12.4-6,16.6-4,4.2-9.5,6.3-16.3,6.3h-5.7v25.5h28.1v81.4c0,15.7,4.1,27.8,12.2,36.4s19.7,12.9,34.8,12.9,4.7-.1,7.7-.4c3.1-.3,5.8-.7,8.3-1.3v-23.5c-1.7.2-3.6.4-5.6.6-2,.2-3.7.3-5,.3Z"/>
    <path class="st0" d="M1749.1,133.6c-9-4.5-19.4-6.7-31.2-6.7s-18,1.6-26.4,4.9c-8.4,3.3-15.8,7.7-22.1,13.3-6.3,5.6-10.9,12-13.8,19.1l23.2,12c3.2-7.5,8.3-13.4,15-17.9,6.8-4.5,14.6-6.7,23.4-6.7s18.3,2.6,24.5,7.9c6.2,5.3,9.3,12.1,9.3,20.5v7.1l-52.7,8.7c-11.5,1.9-21,5.2-28.5,9.7-7.6,4.6-13.1,10.2-16.6,16.8-3.5,6.6-5.3,14-5.3,22.2s2.2,16.2,6.6,22.8c4.4,6.6,10.5,11.8,18.2,15.5,7.7,3.7,16.7,5.6,26.8,5.6s16.9-1.3,24.4-4c7.5-2.7,13.9-6.3,19.5-10.9,3.2-2.6,5.9-5.5,8.3-8.6v20.1h26.1v-104.9c0-10.5-2.5-19.7-7.6-27.7-5.1-7.9-12.1-14.1-21.1-18.6ZM1744.9,242.7c-4.1,7.1-9.7,12.7-16.9,16.8-7.2,4.1-15.6,6.2-25.4,6.2s-14-2.1-19.1-6.3c-5.1-4.2-7.6-9.5-7.6-15.8s2.2-12.3,6.7-16.9c4.5-4.6,11.7-7.7,21.6-9.5l46.7-7.8v9.8c0,8.6-2.1,16.4-6.2,23.5Z"/>
    <rect class="st0" x="1810.4" y="67.9" width="26.7" height="217"/>
  </g>
</svg>