<svg width="23" height="23" viewBox="0 0 23 23" fill="none" xmlns="http://www.w3.org/2000/svg">
<path d="M2.0625 17.2179L4.88645 13.4663C5.99562 11.9856 8.2563 11.5722 9.5536 13.4346L10.0798 14.1779C11.0507 15.6013 13.2433 16.045 14.658 13.5947L18.6069 5.94922" stroke="#F6FEFF" stroke-width="1.37889" stroke-linecap="round" stroke-linejoin="round"/>
<path d="M14.8945 6.61068L17.7072 5.82834C18.4232 5.6365 18.9623 5.79827 19.1618 6.51549L19.9884 9.48755" stroke="#F6FEFF" stroke-width="1.37889" stroke-linecap="round" stroke-linejoin="round"/>
<path d="M2.0625 11.7442V4.80661C2.0625 3.2788 3.29248 2.04883 4.82028 2.04883H19.9493M19.9884 13.2092V17.2166C19.9884 18.7444 18.7584 19.9744 17.2306 19.9744H4.8206C3.29279 19.9744 2.06282 18.7444 2.06282 17.2166" stroke="#F6FEFF" stroke-width="1.37889" stroke-linecap="round" stroke-linejoin="round"/>
</svg>
