<svg width="23" height="23" viewBox="0 0 23 23" fill="none" xmlns="http://www.w3.org/2000/svg">
<path d="M12.5385 9.35764L13.4405 8.36545C13.9304 7.8266 13.9304 7.00369 13.4405 6.46484L12.5385 5.47266M10.0663 13.2426L9.16427 14.2348C8.67441 14.7736 8.67441 15.5966 9.16427 16.1354L10.0663 17.1276" stroke="#F6FEFF" stroke-width="1.05954" stroke-linecap="round" stroke-linejoin="round"/>
<path d="M13.7732 7.41602L9.67677 7.41603C7.25782 7.41603 5.29688 9.37698 5.29688 11.7959V11.9463C5.29688 12.9507 5.67517 13.9182 6.35641 14.6562M8.82867 15.186L12.9251 15.186C15.344 15.186 17.305 13.225 17.305 10.8061V10.6557C17.305 9.65136 16.9267 8.68383 16.2455 7.9458" stroke="#F6FEFF" stroke-width="1.05954" stroke-linecap="round"/>
</svg>
