<svg width="32" height="32" viewBox="0 0 32 32" fill="none" xmlns="http://www.w3.org/2000/svg">
<path d="M8.07617 9.83836C8.07617 9.54936 8.3252 9.32327 8.61285 9.3511L9.28429 9.41609C10.9417 9.57648 12.596 9.08083 13.8922 8.03551L15.3566 6.85457C15.5359 6.70994 15.7919 6.70994 15.9712 6.85457L17.4356 8.03551C18.7318 9.08083 20.3861 9.57648 22.0435 9.41609L22.715 9.3511C23.0026 9.32327 23.2516 9.54936 23.2516 9.83836V16.2037C23.2516 18.3148 22.2047 20.2885 20.4569 21.4725L16.7621 23.9755C16.0989 24.4247 15.2289 24.4247 14.5657 23.9755L10.8709 21.4725C9.12308 20.2885 8.07617 18.3148 8.07617 16.2037V9.83836Z" stroke="#F5FDFF" stroke-width="1.46859"/>
<path d="M8.07617 16.398L11.7477 12.7266L14.5625 15.5414L17.3773 12.7266" stroke="#F5FDFF" stroke-width="1.46859" stroke-linecap="round" stroke-linejoin="round"/>
</svg>
