<svg width="35" height="35" viewBox="0 0 35 35" fill="none" xmlns="http://www.w3.org/2000/svg">
<g clip-path="url(#clip0_2825_26190)">
<path d="M0 31.3079H6.76519V16.2812H0.908438L0 31.3079Z" fill="#EAF7FA"/>
<path d="M14.3375 14.1973C15.0215 14.379 15.7269 14.2935 16.3308 13.9462C16.9293 13.6148 17.3407 13.0805 17.5117 12.4392C17.6934 11.7232 17.5491 10.9216 17.127 10.3017C16.769 9.77269 16.2506 9.44672 15.6628 9.37191C14.5299 9.23831 12.4031 10.2162 11.2489 10.8308C12.0558 12.172 13.3917 13.9568 14.3375 14.1973ZM26.2648 10.8842C26.3182 10.9537 26.3824 11.0231 26.4465 11.0873C26.9702 11.6109 27.7343 11.8888 28.4825 11.8461C29.1184 11.8033 29.6634 11.5201 30.0215 11.0498C30.3688 10.5956 30.5986 9.78337 30.7482 8.92837C30.9032 8.06803 30.9726 7.15425 31.0047 6.50231C29.4497 6.51834 27.232 6.76416 26.5373 7.45884C26.0404 7.96116 25.7518 8.61309 25.7411 9.30244C25.7304 9.76734 25.8426 10.2055 26.0671 10.5903C26.1312 10.6972 26.1953 10.7933 26.2648 10.8842ZM34.0186 21.1282C33.8422 20.7488 33.5644 20.4709 33.233 20.3533C32.9659 20.2571 32.6987 20.2785 32.4368 20.4014L23.812 24.4894C23.438 24.965 22.9036 25.2642 22.2997 25.2642H16.5659C15.8765 25.2642 15.3101 25.991 15.3101 26.8994C15.3101 27.204 15.059 27.4498 14.7597 27.4498C14.4605 27.4498 14.2093 27.1987 14.2093 26.8994C14.2093 25.3871 15.2674 24.1581 16.5659 24.1581H22.3051C22.8181 24.1581 23.2563 23.5809 23.2563 22.8916C23.2563 22.2129 22.8181 21.6305 22.3051 21.6305H17.1644C16.5766 21.6305 15.9888 21.4702 15.4651 21.1709L15.0696 20.9411C15.0643 20.9411 15.059 20.9411 15.059 20.9411L11.7512 19.0281C11.2221 18.7235 10.6504 18.5685 10.0732 18.5685H7.87695V29.0209H9.7152C10.3297 29.0209 10.9282 29.1598 11.4947 29.427C12.8146 30.0576 16.133 31.5805 18.4041 32.1309C19.0935 32.2966 19.8309 32.1683 20.4668 31.7622L33.4735 23.4794C34.1522 23.0572 34.4033 21.9725 34.0186 21.1282ZM19.5637 8.06803C20.1355 8.36728 20.8035 8.40469 21.3646 8.18559C21.3966 8.17491 21.4287 8.16422 21.4661 8.14819C21.9417 7.93978 22.3318 7.57641 22.6204 7.07409C22.8555 6.65194 22.957 6.18703 22.9036 5.74884C22.8181 5.16103 22.5295 4.63734 22.0272 4.18313C21.0493 3.30141 19.6653 2.47313 18.7782 1.99219C18.7782 2.68153 18.6927 3.69684 18.3881 4.99003C18.2225 5.64731 18.0194 7.27716 19.5637 8.06803Z" fill="#EAF7FA"/>
<path d="M22.214 9.00391C22.1178 9.05734 22.0216 9.11612 21.9147 9.15887C21.6796 9.27109 21.4231 9.34056 21.1719 9.38331C21.3696 10.3078 21.391 11.7025 21.017 12.8407C20.2955 12.2262 19.5314 11.8949 18.6978 11.8414L18.5107 12.9476C19.2802 12.9636 19.9749 13.311 20.6536 14.0163V17.2333V17.5967C20.6536 17.6127 20.6643 17.6287 20.6643 17.6448C19.7451 18.5906 18.1848 19.2318 16.9824 19.6113L17.0305 19.9372H22.0536C23.0957 19.9372 23.94 20.9258 23.94 22.1335C23.94 22.1656 23.94 22.1976 23.9346 22.2297L23.8919 22.5343L26.3767 21.3533L26.366 21.2411C26.3073 20.5571 25.5271 19.7395 24.811 19.1944L24.7683 19.1624H23.5178C23.0529 19.1624 22.6521 18.8792 22.5239 18.457C22.401 18.0776 22.075 17.8051 21.749 17.6127C21.749 17.6073 21.7544 17.5967 21.7544 17.5913V17.2279V14.0057C22.8926 12.6911 24.0843 11.9269 25.463 11.6384C25.2011 11.3391 25.0087 11.0025 24.8698 10.6391C23.972 10.8902 23.1331 11.3124 22.3422 11.9269C22.4918 10.8475 22.401 9.76806 22.214 9.00391Z" fill="#EAF7FA"/>
</g>
<defs>
<clipPath id="clip0_2825_26190">
<rect width="34.2" height="34.2" fill="white"/>
</clipPath>
</defs>
</svg>
