<svg width="22" height="22" viewBox="0 0 22 22" fill="none" xmlns="http://www.w3.org/2000/svg">
<path d="M19.6008 2.52995H16.8611V1.47619C16.8611 1.24352 16.6722 1.05469 16.4396 1.05469H14.7536C14.5209 1.05469 14.3321 1.24352 14.3321 1.47619V2.52995H6.74499V1.47619C6.74499 1.24352 6.55615 1.05469 6.32348 1.05469H4.63747C4.4048 1.05469 4.21597 1.24352 4.21597 1.47619V2.52995H1.47619C1.24352 2.52995 1.05469 2.71878 1.05469 2.95145V5.90198V14.9643V18.7578C1.05469 19.3153 1.84859 20.0224 2.7407 20.0224H18.3363C19.266 20.0224 20.0224 19.266 20.0224 18.3363V16.8611V5.90198V2.95145C20.0224 2.71878 19.8335 2.52995 19.6008 2.52995ZM15.1751 1.89769H16.0181V2.52995H15.1751V1.89769ZM5.05897 1.89769H5.90198V2.52995H5.05897V1.89769ZM4.21597 3.37296V4.42672C4.21597 4.65939 4.4048 4.84822 4.63747 4.84822C4.87014 4.84822 5.05897 4.65939 5.05897 4.42672V3.37296H14.3321V4.42672C14.3321 4.65939 14.5209 4.84822 14.7536 4.84822C14.9862 4.84822 15.1751 4.65939 15.1751 4.42672V3.37296H19.1793V5.48048H1.89769V3.37296H4.21597ZM19.1793 16.8611C19.1793 17.326 18.8013 17.7041 18.3363 17.7041H5.05897V14.9643C5.05897 14.7316 4.87014 14.5428 4.63747 14.5428H1.89769V6.32348H19.1793V16.8611ZM2.4937 15.3858H4.21597V17.1081L2.4937 15.3858ZM18.3363 19.1793H2.7407C2.30424 19.1793 1.95734 18.8571 1.89769 18.7277V15.9818L4.33925 18.4234C4.35864 18.443 4.38014 18.4605 4.40311 18.4759C4.4088 18.4796 4.41513 18.482 4.42082 18.4855C4.43852 18.4963 4.45622 18.5066 4.4754 18.5146C4.48341 18.518 4.49205 18.5195 4.50027 18.5224C4.51797 18.5285 4.53525 18.5351 4.55401 18.5387C4.58141 18.5441 4.60923 18.5471 4.63747 18.5471H18.3363C18.6436 18.5471 18.9311 18.4632 19.1793 18.3191V18.3363C19.1793 18.8013 18.8013 19.1793 18.3363 19.1793Z" fill="#F7FDFF"/>
</svg>
