<svg width="17" height="17" viewBox="0 0 17 17" fill="none" xmlns="http://www.w3.org/2000/svg">
<path d="M5.18424 1.30375L3.28236 3.81125C3.25747 3.84499 3.22189 3.86933 3.18142 3.88031C3.14229 3.89092 3.10103 3.89092 3.06189 3.88031C3.04023 3.87238 3.01969 3.86167 3.0008 3.84843L1.86127 2.97984C1.77682 2.92057 1.67267 2.89637 1.57073 2.91233C1.4688 2.92829 1.37704 2.98317 1.31475 3.06542C1.25246 3.14767 1.2245 3.25088 1.23676 3.35332C1.24902 3.45576 1.30055 3.54946 1.38049 3.61468L2.52533 4.48328C2.61958 4.55604 2.72687 4.61014 2.84142 4.64265C2.93431 4.6714 3.03106 4.68573 3.1283 4.68515C3.22443 4.68516 3.32009 4.67175 3.41252 4.64531C3.61652 4.58484 3.79604 4.46113 3.92517 4.29203L5.81908 1.78718C5.85082 1.7455 5.87404 1.69797 5.88742 1.64731C5.90079 1.59665 5.90406 1.54385 5.89703 1.49193C5.89 1.44001 5.87281 1.38998 5.84645 1.34471C5.82008 1.29943 5.78506 1.25978 5.74338 1.22804C5.70169 1.1963 5.65416 1.17308 5.6035 1.1597C5.55285 1.14633 5.50005 1.14306 5.44813 1.15009C5.39621 1.15712 5.34618 1.17431 5.3009 1.20067C5.25562 1.22704 5.21598 1.26206 5.18424 1.30375ZM2.83611 10.2261C2.929 10.2548 3.02575 10.2692 3.12299 10.2686C3.21912 10.2686 3.31478 10.2552 3.4072 10.2287C3.61121 10.1683 3.79072 10.0446 3.91986 9.87546L5.81908 7.36796C5.85293 7.32648 5.87807 7.2786 5.893 7.22719C5.90793 7.17578 5.91234 7.12188 5.90598 7.06872C5.89962 7.01556 5.88261 6.96423 5.85597 6.9178C5.82932 6.87136 5.7936 6.83076 5.75092 6.79844C5.70824 6.76612 5.65948 6.74273 5.60756 6.72967C5.55564 6.71661 5.50162 6.71415 5.44872 6.72243C5.39583 6.73072 5.34515 6.74957 5.29971 6.77788C5.25426 6.80619 5.21499 6.84336 5.18424 6.88718L3.28236 9.39203C3.25822 9.42708 3.22247 9.45248 3.18142 9.46375C3.14247 9.47565 3.10085 9.47565 3.06189 9.46375C3.03991 9.45783 3.0192 9.44792 3.0008 9.43453L1.86127 8.56328C1.81979 8.52943 1.77191 8.50429 1.72049 8.48936C1.66908 8.47443 1.61518 8.47001 1.56203 8.47637C1.50887 8.48274 1.45754 8.49975 1.4111 8.52639C1.36466 8.55303 1.32407 8.58876 1.29174 8.63144C1.25942 8.67412 1.23603 8.72288 1.22297 8.7748C1.20991 8.82672 1.20745 8.88074 1.21573 8.93363C1.22402 8.98653 1.24288 9.03721 1.27118 9.08265C1.29949 9.12809 1.33666 9.16737 1.38049 9.19812L2.52002 10.0667C2.61427 10.1395 2.72156 10.1936 2.83611 10.2261ZM5.95189 12.3936C5.86725 12.3298 5.76079 12.302 5.65576 12.3165C5.55074 12.3309 5.4557 12.3863 5.39142 12.4706L3.48955 14.9755C3.46464 15.0098 3.42919 15.035 3.38861 15.0472C3.34947 15.0578 3.30822 15.0578 3.26908 15.0472C3.24826 15.0392 3.22861 15.0285 3.21064 15.0153L2.06314 14.1467C2.02174 14.1147 1.9744 14.0912 1.92386 14.0776C1.87332 14.064 1.82059 14.0606 1.76871 14.0675C1.71684 14.0744 1.66685 14.0915 1.62164 14.1179C1.57643 14.1443 1.53689 14.1793 1.50533 14.2211C1.47442 14.2638 1.45223 14.3122 1.44004 14.3635C1.42784 14.4148 1.42589 14.468 1.43427 14.52C1.44266 14.5721 1.46123 14.622 1.48892 14.6669C1.51661 14.7117 1.55288 14.7507 1.59564 14.7816L2.74314 15.6502C2.83802 15.7219 2.94511 15.7759 3.05924 15.8095C3.15121 15.8383 3.24709 15.8526 3.34345 15.852C3.43959 15.852 3.53525 15.8386 3.62767 15.8122C3.83269 15.7524 4.01265 15.6274 4.14033 15.4562L6.03955 12.9514C6.10142 12.8656 6.12692 12.7589 6.11051 12.6545C6.09409 12.55 6.03709 12.4562 5.95189 12.3936ZM15.4453 2.95328H7.24017C7.1345 2.95328 7.03316 2.99525 6.95844 3.06998C6.88371 3.1447 6.84174 3.24604 6.84174 3.35171C6.84174 3.45739 6.88371 3.55873 6.95844 3.63345C7.03316 3.70817 7.1345 3.75015 7.24017 3.75015H15.4453C15.551 3.75015 15.6523 3.70817 15.7271 3.63345C15.8018 3.55873 15.8438 3.45739 15.8438 3.35171C15.8438 3.24604 15.8018 3.1447 15.7271 3.06998C15.6523 2.99525 15.551 2.95328 15.4453 2.95328ZM15.4453 8.10109H7.24017C7.1345 8.10109 7.03316 8.14307 6.95844 8.21779C6.88371 8.29251 6.84174 8.39385 6.84174 8.49953C6.84174 8.6052 6.88371 8.70654 6.95844 8.78126C7.03316 8.85599 7.1345 8.89796 7.24017 8.89796H15.4453C15.551 8.89796 15.6523 8.85599 15.7271 8.78126C15.8018 8.70654 15.8438 8.6052 15.8438 8.49953C15.8438 8.39385 15.8018 8.29251 15.7271 8.21779C15.6523 8.14307 15.551 8.10109 15.4453 8.10109ZM15.4453 13.2489H7.24017C7.1345 13.2489 7.03316 13.2909 6.95844 13.3656C6.88371 13.4403 6.84174 13.5417 6.84174 13.6473C6.84174 13.753 6.88371 13.8544 6.95844 13.9291C7.03316 14.0038 7.1345 14.0458 7.24017 14.0458H15.4453C15.551 14.0458 15.6523 14.0038 15.7271 13.9291C15.8018 13.8544 15.8438 13.753 15.8438 13.6473C15.8438 13.5417 15.8018 13.4403 15.7271 13.3656C15.6523 13.2909 15.551 13.2489 15.4453 13.2489Z" fill="#F6FEFF"/>
</svg>
