<svg width="17" height="17" viewBox="0 0 17 17" fill="none" xmlns="http://www.w3.org/2000/svg">
<path d="M5.3112 0.708984H1.76953C1.18516 0.708984 0.707031 1.18711 0.707031 1.77148V15.2298C0.707031 15.8142 1.18516 16.2923 1.76953 16.2923H5.3112C5.89557 16.2923 6.3737 15.8142 6.3737 15.2298V1.77148C6.3737 1.18711 5.89557 0.708984 5.3112 0.708984ZM1.41536 6.37565H5.66536V10.6257H1.41536V6.37565ZM1.76953 1.41732H5.3112C5.50599 1.41732 5.66536 1.57669 5.66536 1.77148V5.66732H1.41536V1.77148C1.41536 1.57669 1.57474 1.41732 1.76953 1.41732ZM5.3112 15.584H1.76953C1.57474 15.584 1.41536 15.4246 1.41536 15.2298V11.334H5.66536V15.2298C5.66536 15.4246 5.50599 15.584 5.3112 15.584ZM10.9495 8.63878C10.9424 8.66003 10.9247 8.67419 10.9141 8.6919C10.8999 8.71315 10.8929 8.7344 10.8752 8.75211L9.81266 9.81461C9.74182 9.88544 9.65328 9.91732 9.5612 9.91732C9.46911 9.91732 9.38057 9.8819 9.30974 9.81461C9.17161 9.67648 9.17161 9.45336 9.30974 9.31523L9.76661 8.85836H7.78682C7.59203 8.85836 7.43266 8.69898 7.43266 8.50419C7.43266 8.3094 7.59203 8.15003 7.78682 8.15003H9.76661L9.30974 7.69315C9.17161 7.55503 9.17161 7.3319 9.30974 7.19378C9.44786 7.05565 9.67099 7.05565 9.80911 7.19378L10.8716 8.25628C10.8716 8.25628 10.8858 8.28107 10.8964 8.29169C10.9141 8.31648 10.9354 8.34128 10.946 8.36961C10.9814 8.45815 10.9814 8.55378 10.946 8.64232L10.9495 8.63878ZM16.2904 4.25065C16.2904 4.44544 16.131 4.60482 15.9362 4.60482H12.7487V15.2298C12.7487 15.4246 12.9081 15.584 13.1029 15.584H15.9362C16.131 15.584 16.2904 15.7434 16.2904 15.9382C16.2904 16.1329 16.131 16.2923 15.9362 16.2923H13.1029C12.5185 16.2923 12.0404 15.8142 12.0404 15.2298V1.77148C12.0404 1.18711 12.5185 0.708984 13.1029 0.708984H15.9362C16.131 0.708984 16.2904 0.868359 16.2904 1.06315C16.2904 1.25794 16.131 1.41732 15.9362 1.41732H13.1029C12.9081 1.41732 12.7487 1.57669 12.7487 1.77148V3.89648H15.9362C16.131 3.89648 16.2904 4.05586 16.2904 4.25065ZM16.2904 7.08398C16.2904 7.27878 16.131 7.43815 15.9362 7.43815H14.1654C13.9706 7.43815 13.8112 7.27878 13.8112 7.08398C13.8112 6.88919 13.9706 6.72982 14.1654 6.72982H15.9362C16.131 6.72982 16.2904 6.88919 16.2904 7.08398ZM16.2904 13.459C16.2904 13.6538 16.131 13.8132 15.9362 13.8132H14.1654C13.9706 13.8132 13.8112 13.6538 13.8112 13.459C13.8112 13.2642 13.9706 13.1048 14.1654 13.1048H15.9362C16.131 13.1048 16.2904 13.2642 16.2904 13.459ZM16.2904 10.2715C16.2904 10.4663 16.131 10.6257 15.9362 10.6257H14.8737C14.6789 10.6257 14.5195 10.4663 14.5195 10.2715C14.5195 10.0767 14.6789 9.91732 14.8737 9.91732H15.9362C16.131 9.91732 16.2904 10.0767 16.2904 10.2715Z" fill="#F6FEFF"/>
</svg>
