<svg width="36" height="36" viewBox="0 0 36 36" fill="none" xmlns="http://www.w3.org/2000/svg">
<path d="M10.875 22.1695L15.3645 16.3345L20.4855 20.3575L24.879 14.6875" stroke="#ECF5F4" stroke-width="2.25" stroke-linecap="round" stroke-linejoin="round"/>
<path d="M30.0002 9.18006C31.5924 9.18006 32.8832 7.8893 32.8832 6.29706C32.8832 4.70483 31.5924 3.41406 30.0002 3.41406C28.408 3.41406 27.1172 4.70483 27.1172 6.29706C27.1172 7.8893 28.408 9.18006 30.0002 9.18006Z" stroke="#ECF5F4" stroke-width="2.25" stroke-linecap="round" stroke-linejoin="round"/>
<path d="M22.3916 4.67969H11.49C6.97279 4.67969 4.17188 7.87877 4.17188 12.3959V24.5195C4.17188 29.0367 6.91787 32.222 11.49 32.222H24.3961C28.9133 32.222 31.7142 29.0367 31.7142 24.5195V13.9612" stroke="#ECF5F4" stroke-width="2.25" stroke-linecap="round" stroke-linejoin="round"/>
</svg>
