<svg width="32" height="32" viewBox="0 0 32 32" fill="none" xmlns="http://www.w3.org/2000/svg">
<g clip-path="url(#clip0_2884_20)">
<path d="M27.1322 14.9718C24.0874 11.9379 19.9644 10.2344 15.6661 10.2344C11.3679 10.2344 7.24481 11.9379 4.20007 14.9718C4.01569 15.1562 3.91211 15.4063 3.91211 15.667C3.91211 15.9278 4.01569 16.1778 4.20007 16.3622C4.38445 16.5466 4.63453 16.6502 4.89528 16.6502C5.15604 16.6502 5.40611 16.5466 5.59049 16.3622C8.2637 13.6919 11.8876 12.1919 15.6661 12.1919C19.4446 12.1919 23.0685 13.6919 25.7417 16.3622C25.8328 16.454 25.9411 16.5268 26.0604 16.5766C26.1797 16.6263 26.3077 16.6519 26.4369 16.6519C26.5662 16.6519 26.6942 16.6263 26.8135 16.5766C26.9328 16.5268 27.0411 16.454 27.1322 16.3622C27.2239 16.2712 27.2968 16.1629 27.3465 16.0436C27.3962 15.9243 27.4218 15.7963 27.4218 15.667C27.4218 15.5378 27.3962 15.4098 27.3465 15.2905C27.2968 15.1711 27.2239 15.0628 27.1322 14.9718ZM23.4994 20.7293C20.341 22.7949 16.4962 23.5336 12.7972 22.7856C12.5375 22.7336 12.2678 22.787 12.0474 22.9339C11.8271 23.0808 11.6741 23.3092 11.6222 23.5689C11.5702 23.8286 11.6236 24.0983 11.7705 24.3186C11.9174 24.539 12.1458 24.692 12.4055 24.7439C16.6137 25.5947 20.9876 24.7502 24.5765 22.3939C24.7973 22.2511 24.9522 22.0264 25.0073 21.7693C25.0624 21.5122 25.0131 21.2438 24.8703 21.0231C24.7275 20.8023 24.5028 20.6474 24.2457 20.5923C23.9886 20.5372 23.7202 20.5865 23.4994 20.7293ZM9.4582 21.6595C8.89862 21.3816 8.35588 21.071 7.83278 20.7293C7.61779 20.614 7.36749 20.5831 7.1309 20.6426C6.89431 20.7022 6.68847 20.8479 6.55371 21.0513C6.41894 21.2547 6.36496 21.501 6.40232 21.7421C6.43968 21.9832 6.5657 22.2017 6.7557 22.3547C7.3502 22.7534 7.97186 23.1101 8.61612 23.422C8.7467 23.4876 8.89103 23.5212 9.03716 23.5199C9.2583 23.5186 9.47249 23.4425 9.64486 23.304C9.81723 23.1654 9.93763 22.9726 9.98644 22.7569C10.0353 22.5412 10.0096 22.3154 9.9137 22.1161C9.81778 21.9168 9.65724 21.7559 9.4582 21.6595Z" fill="#F5FDFF"/>
<path d="M15.6667 21.5417C16.4413 21.5417 17.1986 21.312 17.8427 20.8816C18.4868 20.4512 18.9888 19.8395 19.2852 19.1238C19.5817 18.4082 19.6592 17.6207 19.5081 16.8609C19.357 16.1011 18.984 15.4033 18.4362 14.8555C17.8884 14.3077 17.1906 13.9347 16.4308 13.7836C15.671 13.6325 14.8835 13.71 14.1679 14.0065C13.4522 14.3029 12.8405 14.8049 12.4101 15.449C11.9797 16.0931 11.75 16.8504 11.75 17.625C11.75 18.6638 12.1627 19.66 12.8972 20.3945C13.6317 21.129 14.6279 21.5417 15.6667 21.5417ZM15.6667 15.6667C16.054 15.6667 16.4326 15.7815 16.7547 15.9967C17.0767 16.2119 17.3277 16.5177 17.476 16.8756C17.6242 17.2334 17.663 17.6272 17.5874 18.0071C17.5118 18.3869 17.3253 18.7359 17.0514 19.0097C16.7776 19.2836 16.4286 19.4701 16.0487 19.5457C15.6689 19.6213 15.2751 19.5825 14.9173 19.4343C14.5594 19.286 14.2536 19.035 14.0384 18.713C13.8232 18.3909 13.7084 18.0123 13.7084 17.625C13.7084 17.1056 13.9147 16.6075 14.2819 16.2402C14.6492 15.873 15.1473 15.6667 15.6667 15.6667ZM15.6667 7.83333C15.9264 7.83333 16.1754 7.73017 16.3591 7.54654C16.5427 7.36291 16.6459 7.11386 16.6459 6.85417V3.91667C16.6459 3.65698 16.5427 3.40792 16.3591 3.22429C16.1754 3.04066 15.9264 2.9375 15.6667 2.9375C15.407 2.9375 15.1579 3.04066 14.9743 3.22429C14.7907 3.40792 14.6875 3.65698 14.6875 3.91667V6.85417C14.6875 7.11386 14.7907 7.36291 14.9743 7.54654C15.1579 7.73017 15.407 7.83333 15.6667 7.83333ZM20.5625 8.8125C20.7238 8.81167 20.8824 8.77101 21.0242 8.69414C21.1659 8.61727 21.2865 8.50657 21.3752 8.37187L23.3336 5.43438C23.419 5.32827 23.4814 5.2055 23.5167 5.07392C23.552 4.94233 23.5595 4.80482 23.5386 4.67019C23.5178 4.53555 23.469 4.40676 23.3956 4.29203C23.3221 4.1773 23.2255 4.07917 23.1119 4.00391C22.9983 3.92866 22.8703 3.87793 22.736 3.85497C22.6017 3.83202 22.4641 3.83734 22.332 3.8706C22.1999 3.90386 22.0761 3.96432 21.9687 4.04813C21.8613 4.13193 21.7726 4.23723 21.7082 4.35729L19.7498 7.29479C19.6081 7.51066 19.5574 7.77378 19.6087 8.02685C19.6601 8.27993 19.8093 8.50247 20.024 8.64604C20.1817 8.75648 20.37 8.8147 20.5625 8.8125ZM9.95815 8.37187C10.0469 8.50657 10.1675 8.61727 10.3092 8.69414C10.451 8.77101 10.6096 8.81167 10.7709 8.8125C10.9634 8.8147 11.1517 8.75648 11.3094 8.64604C11.524 8.50247 11.6733 8.27993 11.7246 8.02685C11.776 7.77378 11.7253 7.51066 11.5836 7.29479L9.62524 4.35729C9.56084 4.23723 9.47209 4.13193 9.36467 4.04813C9.25725 3.96432 9.13353 3.90386 9.00141 3.8706C8.86929 3.83734 8.73168 3.83202 8.59739 3.85497C8.46309 3.87793 8.33507 3.92866 8.2215 4.00391C8.10793 4.07917 8.01131 4.1773 7.93783 4.29203C7.86435 4.40676 7.81562 4.53555 7.79475 4.67019C7.77389 4.80482 7.78135 4.94233 7.81666 5.07392C7.85197 5.2055 7.91436 5.32827 7.99982 5.43438L9.95815 8.37187Z" fill="#F5FDFF"/>
</g>
<defs>
<clipPath id="clip0_2884_20">
<rect width="31.3333" height="31.3333" fill="white"/>
</clipPath>
</defs>
</svg>
