<svg width="44" height="44" viewBox="0 0 44 44" fill="none" xmlns="http://www.w3.org/2000/svg">
<path d="M44 23.6841C44 17.9298 38.2594 13.241 31.1988 13.241C28.7856 13.241 26.4825 13.7773 24.4681 14.7948C22.4606 11.1716 17.9987 8.63477 12.815 8.63477C5.7475 8.63477 0 13.3166 0 19.071C0 21.8073 1.32688 24.4473 3.67125 26.386L3.52688 29.7341C3.51313 30.0916 3.69188 30.4216 3.9875 30.6141C4.14563 30.7104 4.32438 30.7654 4.51 30.7654C4.675 30.7654 4.83312 30.7241 4.9775 30.6485L8.28438 28.8541C9.72125 29.301 11.2338 29.5279 12.8013 29.5279C15.2625 29.5279 17.5588 28.9504 19.5181 27.9604C21.5531 31.6866 26.0906 34.1341 31.1919 34.1341C32.7525 34.1341 34.265 33.9073 35.7019 33.4673L39.0088 35.2616C39.1531 35.3441 39.3181 35.3785 39.4762 35.3785C39.655 35.3785 39.8406 35.3304 39.9987 35.2273C40.3013 35.0416 40.48 34.7048 40.4594 34.3541L40.3219 31.006C42.6663 29.0604 44 26.4204 44 23.6841ZM12.8081 27.5479C11.3094 27.5479 9.86563 27.3141 8.51813 26.8466C8.25688 26.7573 7.96812 26.7779 7.7275 26.9154L5.57562 28.0841L5.665 25.9735C5.67875 25.6504 5.53438 25.341 5.27313 25.1485C3.14875 23.5398 1.97312 21.381 1.97312 19.0779C1.97312 14.4098 6.83375 10.6079 12.8081 10.6079C17.6206 10.6079 21.7112 13.0829 23.1137 16.4929C23.1206 16.5066 23.1275 16.5135 23.1275 16.5273C23.4575 17.3316 23.6363 18.191 23.6363 19.0848C23.6294 23.746 18.7756 27.5479 12.8081 27.5479ZM38.7269 29.7479C38.4725 29.9404 38.3212 30.2498 38.335 30.5729L38.4175 32.6835L36.2656 31.5148C36.025 31.3841 35.7362 31.3566 35.475 31.446C34.1206 31.9135 32.6838 32.1473 31.185 32.1473C26.7644 32.1473 22.8662 30.0779 21.1956 26.9291C23.8838 25.011 25.5956 22.206 25.5956 19.071C25.5956 18.2185 25.4581 17.4004 25.2244 16.6098C26.9912 15.6885 29.04 15.2004 31.1919 15.2004C37.1662 15.2004 42.0269 19.0023 42.0269 23.6773C42.0269 25.9873 40.8581 28.1391 38.7269 29.7479Z" fill="black"/>
<path d="M13.1176 21.8139C13.0489 21.7452 12.9595 21.6902 12.8426 21.6627C12.7326 21.6283 12.5951 21.6145 12.4232 21.6145C12.2445 21.6145 12.1001 21.6283 11.9832 21.6627C11.8732 21.6902 11.7839 21.7452 11.7151 21.8139C11.6464 21.8895 11.5982 21.9858 11.5707 22.1027C11.5501 22.2195 11.5364 22.3639 11.5364 22.5427C11.5364 22.7145 11.5501 22.8658 11.5707 22.9827C11.5982 23.0927 11.6464 23.1889 11.7151 23.2577C11.7839 23.3264 11.8732 23.3814 11.9832 23.4089C12.1001 23.4433 12.2376 23.457 12.4232 23.457C12.5882 23.457 12.7326 23.4433 12.8426 23.4089C12.9595 23.3814 13.0489 23.3264 13.1176 23.2577C13.1864 23.1889 13.2345 23.0927 13.262 22.9827C13.2895 22.8658 13.3032 22.7214 13.3032 22.5427C13.3032 22.3708 13.2895 22.2195 13.262 22.1027C13.2394 21.9956 13.1897 21.8962 13.1176 21.8139ZM14.5132 15.4408C14.2932 15.2139 14.0045 15.0283 13.6539 14.8908C13.3032 14.7602 12.8839 14.6914 12.3889 14.6914C12.1757 14.6914 11.9626 14.7052 11.7632 14.7395C11.5639 14.7739 11.3782 14.8152 11.2201 14.8633C11.0551 14.9114 10.9107 14.9595 10.7939 15.0145C10.677 15.0695 10.6014 15.1177 10.5601 15.1589C10.5189 15.2002 10.4914 15.2552 10.4776 15.3239C10.4639 15.3927 10.4639 15.4958 10.4639 15.647C10.4639 15.7845 10.4639 15.9014 10.4776 15.9977C10.4845 16.087 10.4982 16.1627 10.5189 16.2108C10.5326 16.2589 10.5532 16.2933 10.5807 16.3139C10.6014 16.3345 10.6289 16.3414 10.6564 16.3414C10.6976 16.3414 10.7595 16.3208 10.8351 16.2795C11.0582 16.1576 11.2963 16.0651 11.5432 16.0045C11.7082 15.9633 11.9007 15.9427 12.107 15.9427C12.3407 15.9427 12.547 15.977 12.7189 16.0389C12.8907 16.1008 13.042 16.197 13.1589 16.3139C13.2689 16.4377 13.3514 16.5752 13.4132 16.747C13.5219 17.0936 13.5243 17.4647 13.4201 17.8127C13.375 17.9681 13.2953 18.1113 13.1869 18.2316C13.0786 18.3518 12.9444 18.446 12.7945 18.507C12.6364 18.5758 12.4439 18.6102 12.2239 18.6102H12.1345C12.0451 18.6102 11.9626 18.6239 11.9007 18.6377C11.832 18.6583 11.777 18.6927 11.7357 18.7408C11.6886 18.798 11.6577 18.8669 11.6464 18.9402C11.6257 19.0227 11.6257 19.1327 11.6257 19.2702L11.6807 20.7483C11.6876 20.7895 11.7014 20.8308 11.7289 20.8583C11.7495 20.8858 11.7907 20.9064 11.8457 20.927C11.9007 20.9408 11.9695 20.9545 12.0657 20.9614C12.1551 20.9683 12.272 20.9683 12.4164 20.9683C12.6295 20.9683 12.8014 20.9477 12.9114 20.9133C13.0282 20.8789 13.0832 20.817 13.0901 20.7483L13.1382 19.5245C13.4476 19.4902 13.7157 19.4145 13.9632 19.2908C14.2107 19.1739 14.4239 19.0158 14.6026 18.8095C14.7745 18.6102 14.9189 18.3695 15.0151 18.0945C15.1114 17.8264 15.1595 17.5102 15.1595 17.1664C15.1595 16.8295 15.1114 16.5202 15.0082 16.2245C14.8982 15.9358 14.7332 15.6677 14.5132 15.4408ZM31.5014 22.6939C30.9514 22.6939 30.5114 23.1339 30.5114 23.677C30.5114 24.2202 30.9582 24.6602 31.5014 24.6602C31.7621 24.6602 32.0122 24.5566 32.1965 24.3722C32.3809 24.1878 32.4845 23.9378 32.4845 23.677C32.4845 23.4163 32.3809 23.1662 32.1965 22.9819C32.0122 22.7975 31.7621 22.6939 31.5014 22.6939ZM27.232 22.6939C26.682 22.6939 26.242 23.1339 26.242 23.677C26.242 24.2202 26.6889 24.6602 27.232 24.6602C27.4927 24.6602 27.7428 24.5566 27.9272 24.3722C28.1115 24.1878 28.2151 23.9378 28.2151 23.677C28.2151 23.4163 28.1115 23.1662 27.9272 22.9819C27.7428 22.7975 27.4927 22.6939 27.232 22.6939ZM36.0526 22.6939C35.5026 22.6939 35.0626 23.1339 35.0626 23.677C35.0626 24.2202 35.5095 24.6602 36.0526 24.6602C36.5957 24.6602 37.0357 24.2202 37.0357 23.677C37.0357 23.1339 36.6026 22.6939 36.0526 22.6939Z" fill="black"/>
</svg>
