<svg width="36" height="36" viewBox="0 0 36 36" fill="none" xmlns="http://www.w3.org/2000/svg">
<path fill-rule="evenodd" clip-rule="evenodd" d="M22.4993 14.1608C22.9628 14.5746 23.003 15.2858 22.5893 15.7493L17.232 21.7493C17.0186 21.9884 16.7133 22.125 16.3929 22.125C16.0724 22.125 15.7671 21.9884 15.5537 21.7493L13.4108 19.3493C12.997 18.8858 13.0373 18.1746 13.5007 17.7608C13.9642 17.3471 14.6754 17.3873 15.0893 17.8508L16.3929 19.3109L20.9108 14.2507C21.3246 13.7873 22.0358 13.747 22.4993 14.1608Z" fill="#ECF5F4"/>
<path fill-rule="evenodd" clip-rule="evenodd" d="M18 4.125C17.0134 4.125 16.0427 4.44246 13.6209 5.27145L12.7617 5.56556C10.4928 6.34221 8.83815 6.90908 7.67638 7.38103C7.0965 7.61661 6.67635 7.81403 6.38144 7.9853C6.23583 8.06985 6.13551 8.13963 6.06851 8.19409C6.0117 8.24026 5.99004 8.26643 5.98694 8.27024C5.98404 8.27495 5.96539 8.3061 5.93915 8.37981C5.90916 8.46398 5.87594 8.58464 5.84356 8.75259C5.77806 9.09254 5.72841 9.55951 5.69412 10.1894C5.62542 11.4512 5.625 13.2125 5.625 15.6251C5.625 16.2464 5.12132 16.7501 4.5 16.7501C3.87868 16.7501 3.375 16.2464 3.375 15.6251V15.5849C3.375 13.2205 3.375 11.3976 3.44745 10.067C3.48393 9.39696 3.54047 8.81334 3.63422 8.32683C3.7244 7.85886 3.8679 7.37274 4.14544 6.97731C4.42623 6.57726 4.83951 6.27885 5.25147 6.03962C5.67955 5.79101 6.21117 5.54769 6.82955 5.29648C8.05712 4.79778 9.77195 4.2108 11.9939 3.45019L12.8922 3.14271C12.9573 3.12045 13.0215 3.09845 13.0851 3.07668C15.2509 2.33487 16.5938 1.875 18 1.875C19.4062 1.875 20.7491 2.33487 22.9149 3.07668C22.9785 3.09845 23.0427 3.12045 23.1078 3.14271L24.006 3.45019C26.2281 4.2108 27.9429 4.79778 29.1705 5.29648C29.7888 5.54769 30.3204 5.79101 30.7485 6.03962C31.1606 6.27885 31.5738 6.57726 31.8546 6.97731C32.1321 7.37274 32.2757 7.85886 32.3658 8.32683C32.4595 8.81334 32.5161 9.39696 32.5526 10.067C32.625 11.3976 32.625 13.2204 32.625 15.5847V17.9871C32.625 22.0177 31.2716 25.1574 29.3835 27.5526C28.9989 28.0406 28.2915 28.1244 27.8036 27.7398C27.3156 27.3551 27.2319 26.6478 27.6165 26.1598C29.2182 24.1279 30.375 21.4713 30.375 17.9871V15.6251C30.375 13.2125 30.3745 11.4512 30.3058 10.1894C30.2716 9.55951 30.222 9.09254 30.1564 8.75259C30.1241 8.58464 30.0909 8.46398 30.0609 8.37981C30.0346 8.30606 30.0159 8.2749 30.0131 8.27022C30.0099 8.26638 29.9883 8.24023 29.9314 8.19409C29.8645 8.13963 29.7642 8.06985 29.6186 7.9853C29.3237 7.81403 28.9035 7.61661 28.3236 7.38103C27.1618 6.90908 25.5072 6.34221 23.2383 5.56556L22.3791 5.27145C19.9573 4.44246 18.9866 4.125 18 4.125ZM4.56919 19.8967C5.17851 19.7752 5.77098 20.1707 5.89252 20.7799C7.06863 26.676 11.9221 29.7852 15.2982 31.26C15.8554 31.5035 16.1772 31.6411 16.5354 31.7328C16.8775 31.8204 17.295 31.875 18 31.875C18.705 31.875 19.1225 31.8204 19.4646 31.7328C19.8228 31.6411 20.1446 31.5035 20.7018 31.26C21.5282 30.899 22.4582 30.4331 23.4062 29.8437C23.9339 29.5158 24.6274 29.6777 24.9555 30.2053C25.2834 30.733 25.1216 31.4266 24.5939 31.7547C23.5391 32.4103 22.5105 32.9251 21.6026 33.3219L21.5619 33.3396C21.0522 33.5624 20.5731 33.7716 20.0226 33.9126C19.4414 34.0614 18.8239 34.125 18 34.125C17.1761 34.125 16.5587 34.0614 15.9774 33.9126C15.4269 33.7716 14.9478 33.5624 14.4381 33.3396L14.3975 33.3219C10.8071 31.7535 5.08213 28.2192 3.68599 21.2201C3.56445 20.6108 3.95986 20.0182 4.56919 19.8967Z" fill="#ECF5F4"/>
</svg>
