<svg width="22" height="22" viewBox="0 0 22 22" fill="none" xmlns="http://www.w3.org/2000/svg">
<g clip-path="url(#clip0_3152_280)">
<path d="M19.7422 17.8132C19.697 17.8132 19.6523 17.8221 19.6106 17.8394C19.5689 17.8566 19.531 17.882 19.4991 17.9139C19.4672 17.9458 19.4419 17.9837 19.4246 18.0254C19.4073 18.0671 19.3984 18.1118 19.3984 18.157V19.5938C19.3981 19.8672 19.2894 20.1293 19.0961 20.3226C18.9027 20.516 18.6406 20.6247 18.3672 20.625H3.24219C2.96877 20.6247 2.70665 20.516 2.51331 20.3226C2.31998 20.1293 2.21124 19.8672 2.21094 19.5938V3.4375C2.21124 3.16409 2.31998 2.90196 2.51331 2.70863C2.70665 2.51529 2.96877 2.40655 3.24219 2.40625H6.67969V3.4375H4.96094C4.59638 3.43789 4.24687 3.58288 3.98909 3.84066C3.73132 4.09844 3.58633 4.44795 3.58594 4.8125V17.875C3.58647 18.3307 3.76773 18.7675 4.08994 19.0897C4.41215 19.412 4.84901 19.5932 5.30469 19.5938H17.3359C17.7211 19.5951 18.0955 19.4663 18.3983 19.2282C18.701 18.99 18.9144 18.6565 19.0038 18.2819C19.023 18.194 19.007 18.1021 18.9592 18.0259C18.9114 17.9497 18.8357 17.8953 18.7482 17.8743C18.6608 17.8533 18.5686 17.8674 18.4914 17.9136C18.4142 17.9598 18.3582 18.0344 18.3354 18.1214C18.2817 18.3458 18.1537 18.5454 17.9723 18.6878C17.7909 18.8303 17.5666 18.9073 17.3359 18.9062H6.67089C6.89826 18.6104 7.02213 18.2481 7.02344 17.875V16.1562H15.3354C15.4256 16.1549 15.5118 16.1181 15.5751 16.0538C15.6385 15.9895 15.674 15.9028 15.674 15.8125C15.674 15.7222 15.6385 15.6355 15.5751 15.5712C15.5118 15.5069 15.4256 15.4701 15.3353 15.4688H6.67969C6.63454 15.4687 6.58984 15.4776 6.54813 15.4949C6.50641 15.5122 6.46852 15.5375 6.43659 15.5694C6.40467 15.6013 6.37935 15.6392 6.36208 15.6809C6.34481 15.7226 6.33593 15.7674 6.33594 15.8125V17.875C6.3328 18.1464 6.22276 18.4057 6.0297 18.5965C5.83664 18.7874 5.57613 18.8944 5.30467 18.8944C5.03321 18.8944 4.7727 18.7874 4.57964 18.5965C4.38659 18.4057 4.27657 18.1464 4.27344 17.875V4.8125C4.27365 4.63023 4.34615 4.45548 4.47503 4.32659C4.60392 4.19771 4.77867 4.12521 4.96094 4.125H6.7285C6.80427 4.41942 6.97558 4.68038 7.21557 4.867C7.45556 5.05361 7.75068 5.15535 8.05469 5.15625H13.5547C13.8587 5.15535 14.1538 5.05361 14.3938 4.867C14.6338 4.68038 14.8051 4.41942 14.8809 4.125H16.6484C16.8307 4.12521 17.0055 4.19771 17.1343 4.3266C17.2632 4.45548 17.3357 4.63023 17.3359 4.8125V11.4951C17.3373 11.5854 17.3741 11.6716 17.4384 11.7349C17.5027 11.7983 17.5894 11.8338 17.6797 11.8338C17.77 11.8338 17.8567 11.7983 17.921 11.7349C17.9853 11.6715 18.0221 11.5854 18.0234 11.4951V4.8125C18.023 4.44795 17.8781 4.09844 17.6203 3.84066C17.3625 3.58288 17.013 3.43789 16.6484 3.4375H14.9297V2.40625H18.3672C18.6406 2.40655 18.9027 2.51529 19.0961 2.70863C19.2894 2.90196 19.3981 3.16409 19.3984 3.4375V13.2277C19.3984 13.3188 19.4347 13.4063 19.4991 13.4707C19.5636 13.5352 19.651 13.5714 19.7422 13.5714C19.8334 13.5714 19.9208 13.5352 19.9853 13.4707C20.0497 13.4063 20.0859 13.3188 20.0859 13.2277V3.4375C20.0854 2.98182 19.9041 2.54496 19.5819 2.22275C19.2597 1.90054 18.8229 1.71929 18.3672 1.71875H14.8809C14.8051 1.42433 14.6338 1.16337 14.3938 0.976754C14.1538 0.790136 13.8587 0.688404 13.5547 0.6875H8.0547C7.75069 0.688404 7.45557 0.790136 7.21558 0.976754C6.97559 1.16337 6.80428 1.42433 6.72851 1.71875H3.24219C2.78651 1.71928 2.34965 1.90054 2.02744 2.22275C1.70523 2.54496 1.52397 2.98182 1.52344 3.4375V19.5938C1.52397 20.0494 1.70523 20.4863 2.02744 20.8085C2.34965 21.1307 2.78651 21.312 3.24219 21.3125H18.3672C18.8229 21.312 19.2597 21.1307 19.5819 20.8085C19.9041 20.4863 20.0854 20.0494 20.0859 19.5938V18.157C20.0859 18.1118 20.0771 18.0671 20.0598 18.0254C20.0425 17.9837 20.0172 17.9458 19.9853 17.9139C19.9534 17.882 19.9155 17.8566 19.8737 17.8394C19.832 17.8221 19.7873 17.8132 19.7422 17.8132ZM7.36719 2.0625C7.3674 1.88023 7.4399 1.70548 7.56878 1.57659C7.69767 1.44771 7.87242 1.37521 8.05469 1.375H13.5547C13.737 1.37521 13.9117 1.44771 14.0406 1.5766C14.1695 1.70548 14.242 1.88023 14.2422 2.0625V3.78125C14.242 3.96352 14.1695 4.13827 14.0406 4.26715C13.9117 4.39604 13.737 4.46854 13.5547 4.46875H8.05469C7.87242 4.46854 7.69767 4.39604 7.56878 4.26716C7.4399 4.13827 7.3674 3.96352 7.36719 3.78125V2.0625Z" fill="#F6FEFF"/>
<path d="M16.6632 11.9917C18.4736 7.2757 12.4757 3.60019 9.10018 7.44115C5.90633 11.3947 10.5595 16.7211 14.8952 14.0998L18.2218 16.8912C18.3602 17.0074 18.5202 17.0951 18.6925 17.1495C18.8648 17.2038 19.0461 17.2236 19.2261 17.2079C19.4061 17.1922 19.5812 17.1411 19.7415 17.0577C19.9017 16.9743 20.044 16.8601 20.1601 16.7217C20.2763 16.5833 20.364 16.4234 20.4183 16.2511C20.4727 16.0788 20.4925 15.8974 20.4768 15.7175C20.4611 15.5375 20.41 15.3623 20.3266 15.2021C20.2432 15.0418 20.129 14.8996 19.9906 14.7834L16.6632 11.9917ZM12.8531 14.0805C9.537 14.3981 7.46777 10.4225 9.62697 7.88287C10.2723 7.11574 11.1955 6.63586 12.1942 6.54845C13.1928 6.46105 14.1854 6.77327 14.9542 7.41663C17.5212 9.54274 16.1741 13.818 12.8531 14.0805ZM19.6344 16.2789C19.5139 16.414 19.3464 16.4981 19.1661 16.5141C18.9858 16.53 18.8062 16.4767 18.6638 16.3649L15.4597 13.6764C15.8106 13.3758 16.1095 13.0192 16.3442 12.6212L19.5482 15.3094C19.6873 15.4271 19.7744 15.5949 19.7906 15.7765C19.8067 15.958 19.7506 16.1385 19.6344 16.2789ZM8.05469 7.56332C8.0547 7.51818 8.04582 7.47347 8.02854 7.43176C8.01127 7.39005 7.98595 7.35215 7.95403 7.32023C7.92211 7.28831 7.88421 7.26299 7.8425 7.24572C7.80079 7.22845 7.75608 7.21956 7.71094 7.21957H5.64844C5.55727 7.21957 5.46983 7.25579 5.40537 7.32026C5.3409 7.38472 5.30469 7.47216 5.30469 7.56332C5.30469 7.65449 5.3409 7.74193 5.40537 7.80639C5.46983 7.87086 5.55727 7.90707 5.64844 7.90707H7.71094C7.75608 7.90709 7.80079 7.8982 7.8425 7.88093C7.88421 7.86366 7.92211 7.83834 7.95403 7.80642C7.98595 7.7745 8.01127 7.7366 8.02854 7.69489C8.04582 7.65318 8.0547 7.60847 8.05469 7.56332ZM7.12314 9.62582C7.21346 9.62455 7.29966 9.58777 7.36308 9.52344C7.4265 9.45912 7.46206 9.37241 7.46206 9.28207C7.46206 9.19174 7.4265 9.10503 7.36308 9.04071C7.29966 8.97638 7.21346 8.9396 7.12314 8.93832H5.64845C5.55812 8.9396 5.47193 8.97638 5.4085 9.04071C5.34508 9.10503 5.30952 9.19174 5.30952 9.28207C5.30952 9.37241 5.34508 9.45912 5.4085 9.52344C5.47193 9.58777 5.55812 9.62455 5.64845 9.62582H7.12314ZM5.64844 11.3446H7.07161C7.16193 11.3433 7.24813 11.3065 7.31155 11.2422C7.37497 11.1779 7.41053 11.0912 7.41053 11.0008C7.41053 10.9105 7.37497 10.8238 7.31155 10.7595C7.24813 10.6951 7.16193 10.6584 7.07161 10.6571H5.64844C5.55811 10.6584 5.47192 10.6951 5.40849 10.7595C5.34507 10.8238 5.30951 10.9105 5.30951 11.0008C5.30951 11.0912 5.34507 11.1779 5.40849 11.2422C5.47192 11.3065 5.55811 11.3433 5.64844 11.3446ZM5.64844 13.0633H7.58036C7.67153 13.0633 7.75896 13.0271 7.82342 12.9626C7.88789 12.8982 7.92411 12.8107 7.92411 12.7196C7.92411 12.6284 7.88789 12.541 7.82342 12.4765C7.75896 12.412 7.67153 12.3758 7.58036 12.3758H5.64844C5.55811 12.3771 5.47192 12.4139 5.40849 12.4782C5.34507 12.5425 5.30951 12.6292 5.30951 12.7196C5.30951 12.8099 5.34507 12.8966 5.40849 12.9609C5.47192 13.0253 5.55811 13.062 5.64844 13.0633Z" fill="#F6FEFF"/>
</g>
<defs>
<clipPath id="clip0_3152_280">
<rect width="22" height="22" fill="white"/>
</clipPath>
</defs>
</svg>
