<svg width="32" height="32" viewBox="0 0 32 32" fill="none" xmlns="http://www.w3.org/2000/svg">
<path d="M22.1912 22.1914V24.4759C22.1912 25.5573 21.3145 26.434 20.2331 26.434H17.2959" stroke="#F5FDFF" stroke-width="1.63177" stroke-linecap="round"/>
<path d="M16.9697 28.0663C17.8709 28.0663 18.6014 27.3357 18.6014 26.4345C18.6014 25.5333 17.8709 24.8027 16.9697 24.8027C16.0685 24.8027 15.3379 25.5333 15.3379 26.4345C15.3379 27.3357 16.0685 28.0663 16.9697 28.0663Z" fill="#F5FDFF"/>
<path d="M25.7807 15.3368V13.3787C25.7807 7.79125 21.2512 3.26172 15.6637 3.26172C10.0763 3.26172 5.54674 7.79125 5.54674 13.3787V15.3368M22.1908 16.8203C22.1908 16.001 22.855 15.3368 23.6742 15.3368H24.3121C26.7453 15.3368 28.7179 17.3094 28.7179 19.7426C28.7179 22.1758 26.7453 24.1484 24.3121 24.1484H23.6742C22.855 24.1484 22.1908 23.4842 22.1908 22.6649V16.8203ZM8.81029 16.8203C8.81029 16.001 8.14612 15.3368 7.32684 15.3368H6.68898C4.25575 15.3368 2.2832 17.3094 2.2832 19.7426C2.2832 22.1758 4.25575 24.1484 6.68898 24.1484H7.32684C8.14612 24.1484 8.81029 23.4842 8.81029 22.6649V16.8203Z" stroke="#F5FDFF" stroke-width="1.63177"/>
</svg>
