<svg width="21" height="21" viewBox="0 0 21 21" fill="none" xmlns="http://www.w3.org/2000/svg">
<g clip-path="url(#clip0_53_497)">
<path d="M8.57622 2.85402C8.73018 1.62868 9.68955 0.557952 11.0476 0.660496C11.7275 0.711841 12.2822 1.12784 12.6247 1.65039C12.8732 2.02953 13.0295 2.49013 13.0551 2.97945C13.1967 2.84475 13.353 2.72478 13.5193 2.62487C14.0175 2.32552 14.6832 2.16503 15.3516 2.43885C15.7625 2.60715 16.195 2.89512 16.4876 3.34319C16.7915 3.80853 16.9074 4.39178 16.7584 5.05608C16.7087 5.27687 16.573 5.67981 16.4136 6.13365C16.2926 6.47849 16.1476 6.88104 15.9948 7.30544C15.9392 7.45979 15.8826 7.61703 15.8257 7.77545C15.6278 8.32643 15.4281 8.88759 15.2529 9.40131C15.4311 9.27294 15.5924 9.15108 15.7166 9.05533C16.2603 8.63599 16.8311 8.26127 17.534 8.18882C18.192 8.12103 18.8015 8.38195 19.3255 8.99948C19.8505 9.61833 20.0021 10.2746 19.895 10.8666C19.7938 11.4271 19.473 11.8657 19.1617 12.1237C17.3024 13.6646 15.9161 14.838 14.7791 16.8069C13.3901 19.2122 10.9419 20.287 8.97024 20.3458L8.94451 20.3466L8.91879 20.3453C7.76287 20.2892 6.60524 20.0061 5.57519 19.3406C4.53993 18.6718 3.67731 17.6446 3.07304 16.1745C2.69177 15.2469 2.49785 14.0174 2.38567 12.9912C2.32861 12.4692 2.2911 11.9823 2.26286 11.5908L2.24768 11.3782C2.22818 11.1039 2.2145 10.9114 2.20114 10.7998L1.41803 6.81785L1.4141 6.79783L1.41141 6.77755C1.25274 5.58292 2.08264 4.48085 3.2708 4.3031L3.2744 4.30256C3.7816 4.22955 4.24551 4.32691 4.63795 4.54199L4.63426 4.45894C4.60312 3.77061 4.84886 3.19638 5.27015 2.79454C5.67918 2.40439 6.2186 2.20873 6.74266 2.18409C7.26681 2.15944 7.82232 2.30365 8.26602 2.65465C8.37522 2.74103 8.47529 2.83816 8.56474 2.94537L8.57622 2.85402ZM8.03876 6.8525L8.03902 6.85105L8.04053 6.84416L8.03961 6.84882C8.03902 6.85151 8.03876 6.8525 8.03876 6.8525ZM4.55058 6.43511C4.39023 5.83445 3.93156 5.53493 3.46318 5.60142C2.99119 5.67302 2.65626 6.10935 2.71033 6.58724L3.49337 10.5689L3.49743 10.5895L3.50016 10.6104C3.51985 10.7609 3.53773 11.0137 3.55836 11.3053L3.57197 11.4964C3.59986 11.8832 3.63601 12.351 3.6904 12.8486C3.80114 13.8616 3.98126 14.9317 4.28699 15.6755C4.80187 16.9282 5.50297 17.7313 6.28745 18.2382C7.0702 18.7439 7.9791 18.9822 8.95646 19.0331C10.5284 18.9775 12.515 18.1029 13.6425 16.1506C14.9107 13.9543 16.4717 12.6484 18.3243 11.1131C18.4375 11.0192 18.5659 10.8416 18.6035 10.6333C18.6354 10.4566 18.6157 10.1916 18.3246 9.84861C18.0325 9.50427 17.8268 9.47809 17.6685 9.49443C17.4378 9.51818 17.1561 9.65475 16.7572 9.90708L16.7132 9.94212C16.6667 9.97907 16.6 10.0315 16.5182 10.0946C16.3549 10.2206 16.1291 10.3906 15.8807 10.5656C15.6339 10.7394 15.3563 10.9241 15.091 11.0758C14.8452 11.2164 14.541 11.3699 14.2599 11.4226C14.0402 11.4638 13.8146 11.3903 13.6613 11.2276C13.5081 11.0648 13.4482 10.8353 13.5024 10.6184C13.6967 9.84086 14.166 8.51353 14.5904 7.33176C14.6484 7.17025 14.7057 7.01111 14.7617 6.85571C14.9138 6.43326 15.0561 6.03833 15.1753 5.69888C15.344 5.21811 15.4487 4.89759 15.4777 4.76859C15.5541 4.42801 15.4867 4.21093 15.3886 4.06078C15.2794 3.89336 15.0915 3.75067 14.8541 3.6534C14.6715 3.57859 14.4454 3.59962 14.1952 3.74992C13.9381 3.9044 13.7374 4.15184 13.6546 4.36791C13.4749 4.83667 13.2948 5.313 13.128 5.75397L13.1278 5.75471L13.1269 5.75692C13.0064 6.07571 12.8928 6.37607 12.7915 6.64151C12.729 6.80525 12.6713 6.95553 12.6202 7.08671L12.0568 8.59386C11.9299 8.9334 11.5519 9.10573 11.2124 8.97881C10.8729 8.85196 10.7005 8.47389 10.8274 8.13435L11.1353 7.31062C11.1361 7.29684 11.137 7.28549 11.1379 7.27722L11.1395 7.26101L11.1419 7.24493L11.7264 3.35868L11.7276 3.35041C11.7875 2.98422 11.6979 2.63062 11.527 2.36986C11.3531 2.10461 11.1321 1.98312 10.9488 1.96927C10.4508 1.93167 9.96708 2.31238 9.87849 3.01761C9.75012 4.0396 9.61139 5.10379 9.50469 5.88955C9.45416 6.26139 9.41045 6.57339 9.37829 6.78963L9.26443 7.81489C9.2244 8.1751 8.89995 8.43465 8.53974 8.39462C8.17952 8.35465 7.91991 8.0302 7.95994 7.66999L8.02406 7.09288C8.02169 7.07615 8.02045 7.06243 8.01972 7.05318L8.01894 7.04182L7.74397 4.35361L7.74213 4.3354L7.74128 4.31711C7.72632 3.99293 7.60012 3.80143 7.45167 3.68398C7.28952 3.55571 7.05687 3.48326 6.80435 3.49513C6.5518 3.50701 6.32625 3.60102 6.17604 3.74429C6.0384 3.87557 5.93068 4.07794 5.94545 4.40038L5.94552 4.40187C5.9865 5.34374 6.05735 6.21689 6.11555 6.84022C6.17307 7.45631 6.23702 8.07036 6.35427 8.67832L6.36227 8.71953L6.36431 8.72996L6.3648 8.73246L6.36492 8.73311C6.435 9.08867 6.20355 9.43379 5.84796 9.50388C5.49237 9.57397 5.14729 9.34251 5.0772 8.98688L5.07696 8.98564L5.07635 8.98255L5.07405 8.97087L5.06553 8.9269C5.0582 8.88891 5.04772 8.83411 5.03498 8.76619C5.00951 8.63054 4.97489 8.442 4.93827 8.23042C4.91176 8.07719 4.8836 7.90853 4.85695 7.73719L4.55058 6.43511ZM5.97238 11.7295C6.73249 11.6752 7.9606 11.6016 9.19828 11.6527C9.62051 11.6701 10.0305 11.7017 10.4151 11.7502C10.3738 11.7688 10.332 11.7878 10.29 11.8072C9.06507 12.3738 7.53187 13.3375 6.39751 14.9167C6.18606 15.211 6.25328 15.6211 6.54765 15.8326C6.84202 16.044 7.25204 15.9767 7.46349 15.6824C8.42096 14.3495 9.73831 13.5085 10.841 12.9984C11.3894 12.7448 11.8759 12.5771 12.2229 12.4734C12.3961 12.4216 12.5338 12.3861 12.6261 12.3638C12.6723 12.3527 12.7071 12.3449 12.7291 12.3402L12.7526 12.3352L12.7561 12.3345L12.7571 12.3344C13.0282 12.2815 13.2372 12.0648 13.28 11.7919C13.3229 11.5187 13.1899 11.248 12.9475 11.1149C11.9659 10.576 10.536 10.3943 9.25236 10.3413C7.93822 10.2871 6.65 10.3653 5.87887 10.4203C5.51735 10.4462 5.24522 10.7602 5.27104 11.1217C5.29686 11.4832 5.61087 11.7553 5.97238 11.7295Z" fill="#212121"/>
</g>
<defs>
<clipPath id="clip0_53_497">
<rect width="21" height="21" fill="white"/>
</clipPath>
</defs>
</svg>
