<svg width="21" height="21" viewBox="0 0 21 21" fill="none" xmlns="http://www.w3.org/2000/svg">
<path d="M9.25591 18.2221C8.71923 18.1321 8.16277 17.9929 7.66077 17.7797C7.4445 17.6878 7.24894 17.5563 7.03881 17.4523C6.07212 16.9739 4.7669 16.8961 3.81918 17.4715C3.71661 17.5338 3.60183 17.6262 3.47927 17.6364C3.0628 17.6708 3.0201 17.2664 3.1499 16.9507C3.55507 15.9651 4.9434 15.7511 4.1494 14.4815C1.14127 9.67164 4.51979 3.23283 10.2629 2.95365C11.3239 2.94523 12.2103 3.03539 13.2224 3.40291C15.4368 4.20702 17.1433 6.0224 17.8726 8.24873C19.4194 12.9706 15.8789 18.0545 10.9143 18.3137C10.3562 18.3429 9.80821 18.2954 9.25591 18.2221ZM10.3922 3.4376C9.59641 3.47956 8.80143 3.6219 8.05622 3.91164C5.32836 4.9723 3.53387 7.63264 3.52892 10.5458L3.53486 11.0898C3.58542 12.0766 3.92703 13.1953 4.43953 14.0279C4.54076 14.1924 4.65987 14.3482 4.74226 14.5233C5.01099 15.0943 4.89001 15.6833 4.4833 16.1401C4.2334 16.4207 3.88815 16.6391 3.69167 16.9615C4.8886 16.4599 5.89719 16.4473 7.08547 16.9336L7.33162 17.0306C7.58225 17.124 7.61138 17.2407 7.78608 17.3228C8.22163 17.5274 8.95942 17.6805 9.42401 17.7491C9.65186 17.7804 9.88618 17.8155 10.1156 17.8272C13.8882 18.0184 17.1812 15.2322 17.6924 11.4969C17.7123 11.3512 17.7342 11.2007 17.7431 11.0541L17.7497 10.4561C17.7482 9.91403 17.6653 9.33138 17.5292 8.80838C16.6764 5.52913 13.7375 3.37315 10.3922 3.4376Z" fill="#F6FEFF"/>
<path d="M12.8008 5.30321C9.35578 3.90022 5.46435 6.10367 5.01039 9.84909C4.83806 11.2709 5.19933 12.7114 6.06797 13.8608C6.13432 13.9486 6.21284 14.0288 6.27567 14.1187C6.45198 14.3708 6.11141 14.6161 5.89229 14.4181C5.77184 14.3093 5.66641 14.1476 5.57129 14.0147C5.01787 13.2417 4.66481 12.3299 4.53198 11.3897C4.03589 7.87831 6.71162 4.59545 10.2879 4.39352C12.449 4.29659 14.4576 5.23838 15.6967 7.04615C17.4729 9.63745 17.0487 13.1515 14.6806 15.2464C14.5232 15.3856 14.0133 15.8937 13.8544 15.4749C13.7781 15.2736 14.0296 15.1439 14.1574 15.0397L14.4689 14.7629C16.1594 13.1828 16.7859 10.6334 15.9148 8.46637C15.3384 7.03253 14.2117 5.9091 12.8008 5.30321Z" fill="#F6FEFF"/>
<path d="M10.7576 8.5607C10.0591 8.63857 9.3156 8.06425 9.22543 7.36416C9.11741 6.52524 9.65123 5.8179 10.4943 5.70582C11.1863 5.63396 11.8965 6.15781 12.0111 6.85042C12.1518 7.70085 11.6036 8.42565 10.7576 8.5607ZM10.5085 6.19764C9.49518 6.35275 9.4162 7.79873 10.4014 8.04112L10.421 8.04617C10.523 8.07216 10.6331 8.06894 10.737 8.0591C11.9913 7.82386 11.6643 6.06137 10.5085 6.19764ZM10.3053 15.5489C9.81851 15.3925 9.43861 15.0085 9.39569 14.4846C9.36494 14.1093 9.45669 13.7503 9.51211 13.3821C9.56674 13.0189 9.57242 12.6556 9.57288 12.2896L9.58033 11.1632C9.58659 11.0118 9.60953 10.8553 9.6262 10.7044C9.13454 10.4877 8.87253 9.89873 9.21749 9.44519C9.48917 9.088 10.0121 8.79931 10.455 8.74087C11.0917 8.69021 11.7229 9.13771 11.751 9.78992C11.7668 10.1586 11.7035 10.5284 11.6786 10.8956L11.6498 12.4454L11.7111 13.4071C11.7481 13.8245 11.8285 14.2675 11.7199 14.6794C11.5507 15.321 10.957 15.7247 10.3053 15.5489ZM10.5265 9.24382C10.1309 9.27913 9.19396 9.80095 9.68365 10.181C9.81595 10.2838 10.089 10.2182 10.1257 10.4405C10.1442 10.5526 10.1075 10.7085 10.0968 10.8231L10.0536 12.8457L9.92335 13.9024C9.86166 14.2993 9.83446 14.6834 10.1883 14.9566L10.2731 15.0131C10.4343 15.0931 10.6127 15.1392 10.7911 15.0807C11.377 14.8883 11.2961 14.1572 11.2492 13.6797L11.2021 13.116C11.1704 12.7727 11.165 12.4403 11.1651 12.0946L11.173 11.2091C11.1774 11.1158 11.1942 11.0251 11.2022 10.9325L11.2671 10.0003C11.2822 9.54045 11.0201 9.21593 10.5265 9.24382ZM12.2748 16.6617C12.1764 16.6896 12.0711 16.7019 11.9703 16.7192L11.4926 16.7954C11.2371 16.8276 10.9914 16.8484 10.7331 16.8489L9.63539 16.7925C8.80858 16.689 8.02154 16.4341 7.30537 16.0064C7.20053 15.9438 7.03483 15.8683 6.96468 15.7689C6.84649 15.6014 6.99277 15.4347 7.16385 15.4049C7.2004 15.403 7.23646 15.4006 7.27259 15.4077L7.28424 15.4102C7.37667 15.4292 7.48699 15.5487 7.56767 15.6009C8.27491 16.0578 9.22874 16.3017 10.0588 16.3491L10.5597 16.3551C10.9879 16.3549 11.3975 16.3189 11.8205 16.2448C11.9418 16.2236 12.0643 16.1897 12.1856 16.1736C12.5391 16.1265 12.6278 16.5449 12.2748 16.6617Z" fill="#F6FEFF"/>
</svg>
