<svg width="21" height="18" viewBox="0 0 21 18" fill="none" xmlns="http://www.w3.org/2000/svg">
<path d="M2.7954 8.77077L1.38397 9.58341C0.460552 10.1151 0.460552 11.4475 1.38397 11.9792L9.39577 16.592C9.99347 16.9362 10.7292 16.9362 11.3269 16.592L19.3387 11.9792C20.2621 11.4475 20.2621 10.1151 19.3387 9.58341L17.9273 8.77077M11.3269 12.571L19.3387 7.95812C20.2621 7.42646 20.2621 6.09401 19.3387 5.56238L11.3269 0.949497C10.7292 0.605376 9.99347 0.605376 9.39577 0.949497L1.38397 5.56238C0.460552 6.09401 0.460552 7.42646 1.38397 7.95812L9.39577 12.571C9.99347 12.9151 10.7292 12.9151 11.3269 12.571Z" stroke="#EBFBFF" stroke-width="1.38224"/>
</svg>
