<svg width="20" height="21" viewBox="0 0 20 21" fill="none" xmlns="http://www.w3.org/2000/svg">
<path d="M1.33227 7.67735C0.441328 7.1644 0.441328 5.87878 1.33227 5.3658L9.06253 0.915056C9.63923 0.583002 10.3491 0.583002 10.9258 0.915056L18.656 5.3658C19.547 5.87878 19.547 7.1644 18.656 7.67735L10.9258 12.1281C10.3491 12.4601 9.63923 12.4601 9.0625 12.1281L1.33227 7.67735Z" stroke="#EBFBFF" stroke-width="1.33366"/>
<path d="M2.69412 8.46484L1.33227 9.24893C0.441328 9.76191 0.441328 11.0475 1.33227 11.5605L9.0625 16.0112C9.63923 16.3433 10.3491 16.3433 10.9258 16.0112L18.656 11.5605C19.547 11.0475 19.547 9.76191 18.656 9.24893L17.2942 8.46484" stroke="#EBFBFF" stroke-width="1.33366"/>
<path d="M2.69412 12.3421L1.33227 13.1262C0.441328 13.6392 0.441328 14.9248 1.33227 15.4378L9.0625 19.8885C9.63923 20.2206 10.3491 20.2206 10.9258 19.8885L18.656 15.4378C19.547 14.9248 19.547 13.6392 18.656 13.1262L17.107 12.2344" stroke="#EBFBFF" stroke-width="1.33366"/>
</svg>
