<svg width="36" height="36" viewBox="0 0 36 36" fill="none" xmlns="http://www.w3.org/2000/svg">
<path d="M30 16.5C29.1 16.5 28.5 17.1 28.5 18V22.5C28.5 24.15 27.15 25.5 25.5 25.5H12.6L14.55 23.55C15.15 22.95 15.15 22.05 14.55 21.45C13.95 20.85 13.05 20.85 12.45 21.45L7.95 25.95C7.35 26.55 7.35 27.45 7.95 28.05L12.45 32.55C12.75 32.85 13.05 33 13.5 33C13.95 33 14.25 32.85 14.55 32.55C15.15 31.95 15.15 31.05 14.55 30.45L12.6 28.5H25.5C28.8 28.5 31.5 25.8 31.5 22.5V18C31.5 17.1 30.9 16.5 30 16.5Z" fill="#D2CDD3"/>
<path d="M9 22.5C9.9 22.5 10.5 21.9 10.5 21V16.5C10.5 14.85 11.85 13.5 13.5 13.5H26.4L24.45 15.45C23.85 16.05 23.85 16.95 24.45 17.55C24.75 17.85 25.2 18 25.5 18C25.8 18 26.25 17.85 26.55 17.55L31.05 13.05C31.65 12.45 31.65 11.55 31.05 10.95L26.55 6.45C25.95 5.85 25.05 5.85 24.45 6.45C23.85 7.05 23.85 7.95 24.45 8.55L26.4 10.5H13.5C10.2 10.5 7.5 13.2 7.5 16.5V21C7.5 21.9 8.1 22.5 9 22.5Z" fill="#D2CDD3"/>
<path d="M28.5 15C27.6 15 27 15.6 27 16.5V21C27 22.65 25.65 24 24 24H11.1L13.05 22.05C13.65 21.45 13.65 20.55 13.05 19.95C12.45 19.35 11.55 19.35 10.95 19.95L6.45 24.45C5.85 25.05 5.85 25.95 6.45 26.55L10.95 31.05C11.25 31.35 11.55 31.5 12 31.5C12.45 31.5 12.75 31.35 13.05 31.05C13.65 30.45 13.65 29.55 13.05 28.95L11.1 27H24C27.3 27 30 24.3 30 21V16.5C30 15.6 29.4 15 28.5 15Z" fill="#ECF5F4"/>
<path d="M7.5 21C8.4 21 9 20.4 9 19.5V15C9 13.35 10.35 12 12 12H24.9L22.95 13.95C22.35 14.55 22.35 15.45 22.95 16.05C23.25 16.35 23.7 16.5 24 16.5C24.3 16.5 24.75 16.35 25.05 16.05L29.55 11.55C30.15 10.95 30.15 10.05 29.55 9.45L25.05 4.95C24.45 4.35 23.55 4.35 22.95 4.95C22.35 5.55 22.35 6.45 22.95 7.05L24.9 9H12C8.7 9 6 11.7 6 15V19.5C6 20.4 6.6 21 7.5 21Z" fill="#ECF5F4"/>
</svg>
