<svg width="21" height="21" viewBox="0 0 21 21" fill="none" xmlns="http://www.w3.org/2000/svg">
<path d="M18.4988 17.0625H1.01953L3.57234 7.21875H4.0875M10.3711 7.21875H17.4258L19.9786 17.0625" stroke="#002D38" stroke-width="0.65625" stroke-linecap="round" stroke-linejoin="round"/>
<path d="M18.107 9.83984L16.4533 10.3747H16.45M15.2228 10.7717L9.835 12.5108L8.60125 12.9078L1.50719 15.1981H1.50391M4.12562 15.8872L9.93016 14.0136L12.3222 16.0086M17.4081 11.5986L16.5484 11.8775L11.1573 13.6166L15.2917 17.0619" stroke="#002D38" stroke-width="0.65625" stroke-linecap="round" stroke-linejoin="round"/>
<path d="M16.4498 10.3753H16.4466L13.8937 8.24578M15.2194 10.7723L10.957 7.21875" stroke="#002D38" stroke-width="0.65625" stroke-linecap="round" stroke-linejoin="round"/>
<path d="M7.21984 8.31469C8.42857 8.31469 9.40844 7.33482 9.40844 6.12609C9.40844 4.91737 8.42857 3.9375 7.21984 3.9375C6.01112 3.9375 5.03125 4.91737 5.03125 6.12609C5.03125 7.33482 6.01112 8.31469 7.21984 8.31469Z" stroke="#002D38" stroke-width="0.65625" stroke-linecap="round" stroke-linejoin="round"/>
<path d="M7.44516 4.9375C7.63409 4.97466 7.81148 5.05623 7.96267 5.17547C8.11386 5.29471 8.23452 5.44821 8.31469 5.62328M7.21875 8.30734V10.8602" stroke="#002D38" stroke-width="0.65625" stroke-linecap="round" stroke-linejoin="round"/>
</svg>
