<svg width="18" height="18" viewBox="0 0 18 18" fill="none" xmlns="http://www.w3.org/2000/svg">
<g clip-path="url(#clip0_3152_2088)">
<path d="M5.34375 5.625C5.34375 6.5947 5.72896 7.52468 6.41464 8.21036C7.10032 8.89604 8.0303 9.28125 9 9.28125C9.07459 9.28125 9.14613 9.25162 9.19887 9.19887C9.25162 9.14613 9.28125 9.07459 9.28125 9C9.28125 8.92541 9.25162 8.85387 9.19887 8.80113C9.14613 8.74838 9.07459 8.71875 9 8.71875C8.38811 8.71875 7.78997 8.5373 7.2812 8.19736C6.77244 7.85741 6.37591 7.37424 6.14175 6.80893C5.90759 6.24362 5.84632 5.62157 5.9657 5.02144C6.08507 4.42131 6.37972 3.87006 6.81239 3.43739C7.24506 3.00472 7.79631 2.71007 8.39644 2.5907C8.99657 2.47132 9.61862 2.53259 10.1839 2.76675C10.7492 3.00091 11.2324 3.39744 11.5724 3.9062C11.9123 4.41497 12.0938 5.01311 12.0938 5.625V6.46875C12.0938 6.61793 12.0345 6.76101 11.929 6.8665C11.8235 6.97199 11.6804 7.03125 11.5312 7.03125C11.3821 7.03125 11.239 6.97199 11.1335 6.8665C11.028 6.76101 10.9688 6.61793 10.9688 6.46875V5.625C10.9695 5.16298 10.8077 4.71543 10.5117 4.36066C10.2158 4.0059 9.80445 3.76652 9.34978 3.68444C8.89512 3.60235 8.42606 3.68279 8.02472 3.91166C7.62338 4.14054 7.31531 4.50327 7.15445 4.93638C6.99358 5.36948 6.99016 5.84537 7.14478 6.28074C7.2994 6.71612 7.60221 7.08324 8.00022 7.31787C8.39823 7.55249 8.86608 7.63966 9.32188 7.56413C9.77768 7.48859 10.1924 7.25516 10.4934 6.90469C10.5938 7.14461 10.7742 7.34233 11.004 7.46423C11.2337 7.58612 11.4986 7.62465 11.7535 7.57327C12.0085 7.52188 12.2378 7.38375 12.4023 7.18237C12.5669 6.981 12.6566 6.72882 12.6562 6.46875V5.625C12.6562 4.6553 12.271 3.72532 11.5854 3.03964C10.8997 2.35396 9.9697 1.96875 9 1.96875C8.0303 1.96875 7.10032 2.35396 6.41464 3.03964C5.72896 3.72532 5.34375 4.6553 5.34375 5.625ZM9 7.03125C8.72187 7.03125 8.44999 6.94877 8.21873 6.79425C7.98747 6.63973 7.80723 6.42011 7.70079 6.16315C7.59436 5.90619 7.56651 5.62344 7.62077 5.35065C7.67503 5.07787 7.80896 4.8273 8.00563 4.63063C8.2023 4.43396 8.45287 4.30003 8.72565 4.24577C8.99844 4.19151 9.28119 4.21936 9.53815 4.32579C9.79511 4.43223 10.0147 4.61247 10.1693 4.84373C10.3238 5.07499 10.4062 5.34687 10.4062 5.625C10.4062 5.99796 10.2581 6.35565 9.99437 6.61937C9.73065 6.88309 9.37296 7.03125 9 7.03125Z" fill="#002D38"/>
<path d="M16.425 6.13969L14.9063 5.14687V1.40625C14.9063 1.18247 14.8174 0.967862 14.6591 0.809629C14.5009 0.651395 14.2863 0.5625 14.0625 0.5625H10.125C10.0504 0.5625 9.97887 0.592132 9.92613 0.644876C9.87338 0.697621 9.84375 0.769158 9.84375 0.84375C9.84375 0.918342 9.87338 0.989879 9.92613 1.04262C9.97887 1.09537 10.0504 1.125 10.125 1.125H14.0625C14.1371 1.125 14.2086 1.15463 14.2614 1.20738C14.3141 1.26012 14.3438 1.33166 14.3438 1.40625V9.05906L11.4553 11.6325L10.6256 10.9237C10.1772 10.5267 9.59894 10.3076 9 10.3076C8.40107 10.3076 7.82284 10.5267 7.37438 10.9237L6.55875 11.6438L3.65625 9.05906V1.40625C3.65625 1.33166 3.68589 1.26012 3.73863 1.20738C3.79137 1.15463 3.86291 1.125 3.9375 1.125H7.875C7.9496 1.125 8.02113 1.09537 8.07388 1.04262C8.12662 0.989879 8.15625 0.918342 8.15625 0.84375C8.15625 0.769158 8.12662 0.697621 8.07388 0.644876C8.02113 0.592132 7.9496 0.5625 7.875 0.5625H3.9375C3.71373 0.5625 3.49912 0.651395 3.34088 0.809629C3.18265 0.967862 3.09375 1.18247 3.09375 1.40625V5.14687L1.55813 6.15375C1.248 6.39042 0.996771 6.69558 0.824062 7.04539C0.651353 7.3952 0.561837 7.78019 0.562504 8.17031V14.9062C0.566956 15.5786 0.836998 16.222 1.31377 16.6962C1.79055 17.1703 2.43541 17.4368 3.10782 17.4375H14.9063C15.5762 17.4331 16.2175 17.165 16.6912 16.6912C17.165 16.2175 17.4331 15.5762 17.4375 14.9062V8.17031C17.4384 7.7764 17.3473 7.38772 17.1715 7.03519C16.9958 6.68267 16.7401 6.37604 16.425 6.13969ZM14.9063 5.81906L16.0988 6.59812C16.2774 6.73521 16.4315 6.90163 16.5544 7.09031L14.9063 8.55844V5.81906ZM1.88438 6.61219L3.09375 5.81906V8.55844L1.44282 7.09031C1.56107 6.90646 1.7105 6.74466 1.88438 6.61219ZM1.125 14.9062V8.17031C1.12554 7.98657 1.15205 7.80382 1.20375 7.6275L3.1725 9.38531L6.13125 12.0178L1.53 16.0875C1.2704 15.7481 1.12824 15.3335 1.125 14.9062ZM3.10782 16.875C2.68408 16.8746 2.27178 16.7375 1.93219 16.4841L7.74563 11.3456C8.09216 11.0392 8.5388 10.87 9.00141 10.87C9.46402 10.87 9.91066 11.0392 10.2572 11.3456L16.1634 16.4081C15.8119 16.7061 15.367 16.8713 14.9063 16.875H3.10782ZM16.8891 14.9062C16.8894 15.2945 16.7749 15.6742 16.56 15.9975L11.8856 12.0009L14.8247 9.38531L16.7934 7.6275C16.8461 7.80368 16.8736 7.98643 16.875 8.17031L16.8891 14.9062Z" fill="#002D38"/>
<path d="M9 1.125C9.15533 1.125 9.28125 0.99908 9.28125 0.84375C9.28125 0.68842 9.15533 0.5625 9 0.5625C8.84467 0.5625 8.71875 0.68842 8.71875 0.84375C8.71875 0.99908 8.84467 1.125 9 1.125Z" fill="#002D38"/>
</g>
<defs>
<clipPath id="clip0_3152_2088">
<rect width="18" height="18" fill="white"/>
</clipPath>
</defs>
</svg>
