<svg width="35" height="35" viewBox="0 0 35 35" fill="none" xmlns="http://www.w3.org/2000/svg">
<path d="M5.34648 10.6875H28.859C29.1424 10.6875 29.4143 10.5749 29.6147 10.3745C29.8151 10.174 29.9277 9.9022 29.9277 9.61875C29.9277 9.3353 29.8151 9.06346 29.6147 8.86303C29.4143 8.6626 29.1424 8.55 28.859 8.55H5.34648C5.06303 8.55 4.79119 8.6626 4.59076 8.86303C4.39033 9.06346 4.27773 9.3353 4.27773 9.61875C4.27773 9.9022 4.39033 10.174 4.59076 10.3745C4.79119 10.5749 5.06303 10.6875 5.34648 10.6875ZM7.48398 7.48125H26.7215C27.0049 7.48125 27.2768 7.36865 27.4772 7.16822C27.6776 6.96779 27.7902 6.69595 27.7902 6.4125C27.7902 6.12905 27.6776 5.85721 27.4772 5.65678C27.2768 5.45635 27.0049 5.34375 26.7215 5.34375H7.48398C7.20053 5.34375 6.92869 5.45635 6.72826 5.65678C6.52783 5.85721 6.41523 6.12905 6.41523 6.4125C6.41523 6.69595 6.52783 6.96779 6.72826 7.16822C6.92869 7.36865 7.20053 7.48125 7.48398 7.48125ZM29.9277 11.7563H4.27773C3.99428 11.7563 3.72244 11.8689 3.52201 12.0693C3.32158 12.2697 3.20898 12.5416 3.20898 12.825V27.7875C3.20898 28.071 3.32158 28.3428 3.52201 28.5432C3.72244 28.7437 3.99428 28.8563 4.27773 28.8563H29.9277C30.2112 28.8563 30.483 28.7437 30.6835 28.5432C30.8839 28.3428 30.9965 28.071 30.9965 27.7875V12.825C30.9965 12.5416 30.8839 12.2697 30.6835 12.0693C30.483 11.8689 30.2112 11.7563 29.9277 11.7563ZM8.2428 16.7901C8.03799 16.9854 7.76695 17.0961 7.48398 17.1C7.34432 17.0983 7.20635 17.0693 7.07786 17.0145C6.94834 16.9604 6.82906 16.8845 6.72517 16.7901C6.52988 16.5853 6.41917 16.3142 6.41523 16.0312C6.41692 15.8916 6.44597 15.7536 6.50073 15.6251C6.5516 15.4939 6.62787 15.3741 6.72517 15.2724C6.82906 15.178 6.94834 15.1021 7.07786 15.048C7.33876 14.9416 7.6311 14.9426 7.8913 15.0507C8.15149 15.1588 8.35848 15.3652 8.46723 15.6251C8.522 15.7536 8.55105 15.8916 8.55273 16.0312C8.5488 16.3142 8.43809 16.5853 8.2428 16.7901ZM17.1027 24.5813C16.2572 24.5813 15.4307 24.3305 14.7277 23.8608C14.0247 23.391 13.4767 22.7234 13.1531 21.9422C12.8296 21.1611 12.7449 20.3015 12.9099 19.4722C13.0748 18.643 13.482 17.8812 14.0799 17.2834C14.6777 16.6855 15.4395 16.2783 16.2687 16.1134C17.098 15.9484 17.9576 16.0331 18.7387 16.3567C19.5199 16.6802 20.1875 17.2282 20.6573 17.9312C21.127 18.6342 21.3777 19.4607 21.3777 20.3063C21.3777 21.4401 20.9273 22.5274 20.1256 23.3291C19.3239 24.1308 18.2365 24.5813 17.1027 24.5813ZM27.4803 25.3401C27.3062 25.5156 27.0767 25.6253 26.8308 25.6506C26.5849 25.6759 26.3379 25.6151 26.1317 25.4787C25.9256 25.3423 25.7731 25.1387 25.7002 24.9025C25.6274 24.6663 25.6386 24.4121 25.7321 24.1833C25.8256 23.9545 25.9955 23.7651 26.2129 23.6475C26.4303 23.5298 26.6817 23.4912 26.9244 23.5381C27.1671 23.585 27.386 23.7146 27.5439 23.9048C27.7017 24.095 27.7888 24.3341 27.7902 24.5813C27.7863 24.8642 27.6756 25.1353 27.4803 25.3401Z" fill="#EAF7FA"/>
</svg>
