<svg width="32" height="32" viewBox="0 0 32 32" fill="none" xmlns="http://www.w3.org/2000/svg">
<g clip-path="url(#clip0_2884_100)">
<path d="M29.8604 3.42578H1.46762C1.07812 3.42578 0.704579 3.58051 0.429165 3.85592C0.15375 4.13134 -0.000976562 4.50488 -0.000976562 4.89437L-0.000976562 21.5384C-0.000976562 21.9279 0.15375 22.3015 0.429165 22.5769C0.704579 22.8523 1.07812 23.007 1.46762 23.007H1.71238V23.9861C1.71238 24.3756 1.86711 24.7491 2.14252 25.0245C2.41794 25.3 2.79148 25.4547 3.18098 25.4547H3.42574V26.4337C3.42574 26.8232 3.58047 27.1968 3.85588 27.4722C4.1313 27.7476 4.50484 27.9023 4.89434 27.9023H26.4337C26.8232 27.9023 27.1967 27.7476 27.4722 27.4722C27.7476 27.1968 27.9023 26.8232 27.9023 26.4337V25.4547H28.1471C28.5366 25.4547 28.9101 25.3 29.1855 25.0245C29.4609 24.7491 29.6157 24.3756 29.6157 23.9861V23.007H29.8604C30.2499 23.007 30.6235 22.8523 30.8989 22.5769C31.1743 22.3015 31.329 21.9279 31.329 21.5384V4.89437C31.329 4.50488 31.1743 4.13134 30.8989 3.85592C30.6235 3.58051 30.2499 3.42578 29.8604 3.42578ZM26.9232 26.4337C26.9232 26.5636 26.8717 26.6881 26.7799 26.7799C26.6881 26.8717 26.5635 26.9233 26.4337 26.9233H4.89434C4.7645 26.9233 4.63999 26.8717 4.54819 26.7799C4.45638 26.6881 4.4048 26.5636 4.4048 26.4337V25.4547H26.9232V26.4337ZM28.6366 23.9861C28.6366 24.1159 28.585 24.2404 28.4932 24.3322C28.4014 24.424 28.2769 24.4756 28.1471 24.4756H3.18098C3.05114 24.4756 2.92663 24.424 2.83483 24.3322C2.74302 24.2404 2.69145 24.1159 2.69145 23.9861V23.007H28.6366V23.9861ZM30.35 21.5384C30.35 21.6683 30.2984 21.7928 30.2066 21.8846C30.1148 21.9764 29.9903 22.028 29.8604 22.028H1.46762C1.33779 22.028 1.21327 21.9764 1.12147 21.8846C1.02966 21.7928 0.978086 21.6683 0.978086 21.5384V4.89437C0.978086 4.76454 1.02966 4.64003 1.12147 4.54822C1.21327 4.45642 1.33779 4.40484 1.46762 4.40484H29.8604C29.9903 4.40484 30.1148 4.45642 30.2066 4.54822C30.2984 4.64003 30.35 4.76454 30.35 4.89437V21.5384Z" fill="#F5FDFF"/>
<path d="M27.4128 10.2783C26.6338 10.2783 25.8867 9.96883 25.3359 9.418C24.7851 8.86717 24.4756 8.12008 24.4756 7.34109C24.4756 7.21126 24.424 7.08675 24.3322 6.99494C24.2404 6.90314 24.1159 6.85156 23.9861 6.85156H7.34203C7.2122 6.85156 7.08769 6.90314 6.99588 6.99494C6.90408 7.08675 6.8525 7.21126 6.8525 7.34109C6.8525 8.12008 6.54305 8.86717 5.99222 9.418C5.44139 9.96883 4.6943 10.2783 3.91531 10.2783C3.78548 10.2783 3.66097 10.3299 3.56916 10.4217C3.47736 10.5135 3.42578 10.638 3.42578 10.7678V15.6631C3.42578 15.793 3.47736 15.9175 3.56916 16.0093C3.66097 16.1011 3.78548 16.1527 3.91531 16.1527C4.6943 16.1527 5.44139 16.4621 5.99222 17.0129C6.54305 17.5638 6.8525 18.3109 6.8525 19.0898C6.8525 19.2197 6.90408 19.3442 6.99588 19.436C7.08769 19.5278 7.2122 19.5794 7.34203 19.5794H23.9861C24.1159 19.5794 24.2404 19.5278 24.3322 19.436C24.424 19.3442 24.4756 19.2197 24.4756 19.0898C24.4756 18.3109 24.7851 17.5638 25.3359 17.0129C25.8867 16.4621 26.6338 16.1527 27.4128 16.1527C27.5426 16.1527 27.6672 16.1011 27.759 16.0093C27.8508 15.9175 27.9023 15.793 27.9023 15.6631V10.7678C27.9023 10.638 27.8508 10.5135 27.759 10.4217C27.6672 10.3299 27.5426 10.2783 27.4128 10.2783ZM26.9233 15.203C26.0601 15.3114 25.2576 15.7043 24.6424 16.3194C24.0272 16.9346 23.6344 17.7371 23.5259 18.6003H7.80219C7.69371 17.7371 7.30089 16.9346 6.68571 16.3194C6.07054 15.7043 5.26804 15.3114 4.40484 15.203V11.228C5.26804 11.1195 6.07054 10.7267 6.68571 10.1115C7.30089 9.49632 7.69371 8.69382 7.80219 7.83062H23.5259C23.6344 8.69382 24.0272 9.49632 24.6424 10.1115C25.2576 10.7267 26.0601 11.1195 26.9233 11.228V15.203Z" fill="#F5FDFF"/>
<path d="M15.6636 8.81055C14.7922 8.81055 13.9404 9.06894 13.2159 9.55305C12.4913 10.0372 11.9266 10.7253 11.5932 11.5303C11.2597 12.3354 11.1725 13.2212 11.3425 14.0759C11.5125 14.9305 11.9321 15.7155 12.5482 16.3317C13.1644 16.9478 13.9494 17.3675 14.8041 17.5375C15.6587 17.7075 16.5446 17.6202 17.3496 17.2867C18.1547 16.9533 18.8428 16.3886 19.3269 15.664C19.811 14.9395 20.0694 14.0877 20.0694 13.2163C20.0694 12.0478 19.6052 10.9272 18.779 10.101C17.9527 9.27473 16.8321 8.81055 15.6636 8.81055ZM15.6636 16.643C14.9859 16.643 14.3233 16.4421 13.7598 16.0655C13.1963 15.689 12.7571 15.1538 12.4977 14.5277C12.2384 13.9015 12.1705 13.2125 12.3027 12.5478C12.4349 11.8831 12.7613 11.2725 13.2405 10.7933C13.7198 10.314 14.3304 9.98767 14.9951 9.85545C15.6598 9.72323 16.3488 9.79109 16.9749 10.0505C17.6011 10.3098 18.1363 10.749 18.5128 11.3125C18.8893 11.8761 19.0903 12.5386 19.0903 13.2163C19.0903 14.1252 18.7293 14.9967 18.0867 15.6394C17.444 16.282 16.5724 16.643 15.6636 16.643Z" fill="#F5FDFF"/>
</g>
<defs>
<clipPath id="clip0_2884_100">
<rect width="31.33" height="31.33" fill="white"/>
</clipPath>
</defs>
</svg>
