<svg width="35" height="35" viewBox="0 0 35 35" fill="none" xmlns="http://www.w3.org/2000/svg">
<path d="M12.8246 15.6754C13.952 15.6754 15.054 15.3411 15.9914 14.7148C16.9287 14.0884 17.6593 13.1982 18.0907 12.1567C18.5221 11.1152 18.635 9.96907 18.4151 8.86338C18.1952 7.75769 17.6523 6.74204 16.8551 5.94488C16.058 5.14772 15.0423 4.60485 13.9366 4.38492C12.8309 4.16498 11.6849 4.27786 10.6433 4.70928C9.60178 5.1407 8.71156 5.87128 8.08523 6.80864C7.45891 7.746 7.12461 8.84804 7.12461 9.97539C7.12461 11.4871 7.72514 12.9369 8.7941 14.0059C9.86306 15.0749 11.3129 15.6754 12.8246 15.6754ZM24.2246 18.5254C25.0701 18.5254 25.8967 18.2747 26.5997 17.8049C27.3027 17.3352 27.8506 16.6675 28.1742 15.8864C28.4978 15.1052 28.5824 14.2457 28.4175 13.4164C28.2525 12.5871 27.8454 11.8254 27.2475 11.2275C26.6496 10.6296 25.8879 10.2225 25.0586 10.0575C24.2294 9.89258 23.3698 9.97724 22.5886 10.3008C21.8075 10.6244 21.1398 11.1723 20.6701 11.8753C20.2003 12.5784 19.9496 13.4049 19.9496 14.2504C19.9496 15.3842 20.4 16.4716 21.2017 17.2733C22.0034 18.075 23.0908 18.5254 24.2246 18.5254ZM29.9246 28.5004C30.3025 28.5004 30.665 28.3503 30.9322 28.083C31.1995 27.8158 31.3496 27.4533 31.3496 27.0754C31.3485 25.7436 30.9741 24.4388 30.2689 23.3089C29.5637 22.1791 28.556 21.2696 27.3601 20.6835C26.1642 20.0974 24.8279 19.8583 23.503 19.9931C22.178 20.128 20.9174 20.6316 19.8641 21.4466C18.4683 20.0564 16.6921 19.1105 14.7595 18.7283C12.8269 18.3462 10.8244 18.5449 9.00451 19.2994C7.18465 20.0538 5.62895 21.3303 4.53359 22.9677C3.43823 24.6052 2.85227 26.5303 2.84961 28.5004C2.84961 28.8783 2.99974 29.2408 3.26698 29.508C3.53422 29.7753 3.89668 29.9254 4.27461 29.9254H21.3746C21.7525 29.9254 22.115 29.7753 22.3822 29.508C22.6495 29.2408 22.7996 28.8783 22.7996 28.5004" fill="#EAF7FA"/>
</svg>
