<svg width="18" height="18" viewBox="0 0 18 18" fill="none" xmlns="http://www.w3.org/2000/svg">
<g clip-path="url(#clip0_3152_2101)">
<path d="M15.3912 0.589844H7.69801C7.40568 0.589843 7.1253 0.705847 6.91843 0.912385C6.71155 1.11892 6.59509 1.39912 6.59461 1.69144V1.74544C6.37938 1.39273 6.07714 1.10122 5.71688 0.898866C5.35662 0.696515 4.95041 0.590106 4.53721 0.589844H3.92701C3.28569 0.590796 2.67091 0.845981 2.21743 1.29946C1.76395 1.75294 1.50876 2.36772 1.50781 3.00904V12.5202C1.50902 13.1011 1.71889 13.6622 2.09918 14.1013C2.47947 14.5404 3.00486 14.8283 3.57961 14.9124V15.1878C3.57961 16.3434 4.62181 17.283 5.90341 17.283C7.18501 17.283 8.22721 16.3434 8.22721 15.1878V14.943H15.3912C15.6835 14.943 15.9639 14.827 16.1708 14.6205C16.3777 14.414 16.4941 14.1338 16.4946 13.8414V1.69144C16.4941 1.39912 16.3777 1.11892 16.1708 0.912385C15.9639 0.705847 15.6835 0.589843 15.3912 0.589844ZM6.98161 14.673V15.0744C6.98161 15.5964 6.49741 16.0194 5.90161 16.0194C5.30581 16.0194 4.82161 15.5964 4.82161 15.0744V14.9214C5.18343 14.8774 5.53064 14.7522 5.83733 14.5552C6.14401 14.3582 6.40226 14.0946 6.59281 13.7838V13.8378C6.59313 13.9969 6.62808 14.154 6.69522 14.2983C6.76236 14.4425 6.86008 14.5704 6.98161 14.673ZM3.75961 14.5704C3.69918 14.5664 3.63906 14.5586 3.57961 14.547C3.10117 14.4652 2.66703 14.2169 2.35383 13.846C2.04062 13.4752 1.86849 13.0056 1.86781 12.5202V3.00904C1.86829 2.46306 2.08539 1.93957 2.47146 1.5535C2.85754 1.16742 3.38102 0.95032 3.92701 0.949844H4.53721C5.08289 0.950797 5.60592 1.16811 5.9916 1.55413C6.37728 1.94015 6.59414 2.46337 6.59461 3.00904V12.5202C6.59391 13.0161 6.41443 13.4952 6.08909 13.8694C5.76376 14.2437 5.31439 14.4881 4.82341 14.5578C4.76401 14.5578 4.70461 14.5704 4.64341 14.574C4.58221 14.5776 4.57321 14.574 4.53721 14.574H3.92701C3.86941 14.583 3.81361 14.583 3.75961 14.5704ZM7.86721 15.1878C7.86721 16.1454 6.98701 16.923 5.90341 16.923C4.81981 16.923 3.93961 16.1454 3.93961 15.1878V14.943H4.46341V15.078C4.46341 15.798 5.10961 16.383 5.90341 16.383C6.69721 16.383 7.34341 15.798 7.34341 15.078V14.88C7.45933 14.9195 7.58096 14.9396 7.70341 14.9394H7.87261L7.86721 15.1878ZM16.1346 13.8378C16.1348 13.9356 16.1158 14.0325 16.0785 14.1229C16.0413 14.2133 15.9866 14.2954 15.9175 14.3647C15.8485 14.4339 15.7664 14.4888 15.6761 14.5263C15.5858 14.5638 15.489 14.583 15.3912 14.583H7.69801C7.57172 14.5834 7.44757 14.5505 7.33801 14.4876C7.27145 14.4521 7.21074 14.4066 7.15801 14.3526C7.07174 14.2608 7.00985 14.1488 6.97801 14.0268C6.96203 13.9681 6.95297 13.9077 6.95101 13.8468V1.69144C6.95196 1.49474 7.03065 1.30639 7.16991 1.16747C7.30917 1.02854 7.49771 0.950317 7.69441 0.949844H15.3912C15.5881 0.949843 15.7769 1.02792 15.9162 1.16694C16.0556 1.30597 16.1341 1.49459 16.1346 1.69144V13.8378Z" fill="#002D38"/>
<path d="M9.32948 6.79208H8.64188C8.45008 6.79537 8.26723 6.87377 8.13261 7.01041C7.99798 7.14706 7.92232 7.33105 7.92188 7.52288V8.20508C7.92231 8.39707 7.99791 8.58126 8.13249 8.71819C8.26707 8.85512 8.44992 8.93391 8.64188 8.93768H9.32408C9.51806 8.9372 9.70394 8.8598 9.84094 8.72247C9.97794 8.58513 10.0549 8.39906 10.0549 8.20508V7.52288C10.0549 7.32999 9.97863 7.14492 9.84274 7.00802C9.70686 6.87112 9.52236 6.7935 9.32948 6.79208ZM9.70028 8.20508C9.70028 8.30358 9.66127 8.39808 9.59178 8.46791C9.5223 8.53773 9.42798 8.5772 9.32948 8.57768H8.64188C8.54526 8.57441 8.45369 8.53371 8.38652 8.46419C8.31934 8.39466 8.28182 8.30175 8.28188 8.20508V7.52288C8.28229 7.42651 8.32002 7.33406 8.38714 7.26492C8.45427 7.19578 8.54557 7.15533 8.64188 7.15208H9.32408C9.37277 7.15208 9.42099 7.16167 9.46598 7.1803C9.51096 7.19894 9.55184 7.22625 9.58627 7.26068C9.6207 7.29511 9.64802 7.33599 9.66665 7.38098C9.68529 7.42596 9.69488 7.47418 9.69488 7.52288L9.70028 8.20508ZM9.32948 9.36428H8.64188C8.45193 9.36752 8.27067 9.44441 8.13634 9.57874C8.00201 9.71307 7.92512 9.89433 7.92188 10.0843V10.7665C7.92137 10.9591 7.99655 11.1442 8.13123 11.2819C8.26591 11.4196 8.4493 11.4989 8.64188 11.5027H9.32408C9.51806 11.5022 9.70394 11.4248 9.84094 11.2875C9.97794 11.1501 10.0549 10.9641 10.0549 10.7701V10.0843C10.0521 9.89326 9.97456 9.71095 9.83898 9.57638C9.70339 9.4418 9.5205 9.36567 9.32948 9.36428ZM9.70028 10.7773C9.70028 10.8758 9.66127 10.9703 9.59178 11.0401C9.5223 11.1099 9.42798 11.1494 9.32948 11.1499H8.64188C8.544 11.1466 8.45135 11.1049 8.38398 11.0338C8.31661 10.9627 8.27993 10.868 8.28188 10.7701V10.0843C8.28502 9.9898 8.32396 9.90005 8.3908 9.8332C8.45765 9.76636 8.5474 9.72742 8.64188 9.72428H9.32408C9.42151 9.72282 9.5156 9.75976 9.586 9.82713C9.6564 9.8945 9.69745 9.98688 9.70028 10.0843V10.7773ZM9.32948 11.9221H8.64188C8.45008 11.9254 8.26723 12.0038 8.13261 12.1404C7.99798 12.2771 7.92232 12.4611 7.92188 12.6529V13.3351C7.92226 13.3872 7.92829 13.4391 7.93988 13.4899C7.97631 13.6537 8.06749 13.8002 8.19838 13.9053C8.32927 14.0103 8.49205 14.0676 8.65988 14.0677H9.34208C9.53606 14.0672 9.72194 13.9898 9.85894 13.8525C9.99594 13.7151 10.0729 13.5291 10.0729 13.3351V12.6529C10.0729 12.5558 10.0536 12.4598 10.0161 12.3703C9.97856 12.2808 9.9236 12.1996 9.8544 12.1316C9.78519 12.0636 9.70314 12.01 9.61301 11.974C9.52289 11.9381 9.4265 11.9204 9.32948 11.9221ZM9.70028 13.3351C9.70028 13.4336 9.66127 13.5281 9.59178 13.5979C9.5223 13.6677 9.42798 13.7072 9.32948 13.7077H8.64188C8.54526 13.7044 8.45369 13.6637 8.38652 13.5942C8.31934 13.5247 8.28182 13.4318 8.28188 13.3351V12.6529C8.28229 12.5565 8.32002 12.4641 8.38714 12.3949C8.45427 12.3258 8.54557 12.2853 8.64188 12.2821H9.32408C9.42242 12.2821 9.51673 12.3211 9.58627 12.3907C9.65581 12.4602 9.69488 12.5545 9.69488 12.6529L9.70028 13.3351ZM12.0043 6.79208H11.3203C11.2243 6.79208 11.1293 6.81098 11.0406 6.8477C10.9519 6.88443 10.8714 6.93826 10.8035 7.00612C10.7357 7.07398 10.6818 7.15455 10.6451 7.24321C10.6084 7.33187 10.5895 7.42691 10.5895 7.52288V8.20508C10.5895 8.39906 10.6664 8.58513 10.8034 8.72247C10.9404 8.8598 11.1263 8.9372 11.3203 8.93768H12.0043C12.1983 8.9372 12.3841 8.8598 12.5211 8.72247C12.6581 8.58513 12.7351 8.39906 12.7351 8.20508V7.52288C12.7351 7.32906 12.6581 7.14317 12.521 7.00612C12.384 6.86907 12.1981 6.79208 12.0043 6.79208ZM12.3751 8.20508C12.3751 8.30358 12.3361 8.39808 12.2666 8.46791C12.1971 8.53773 12.1028 8.5772 12.0043 8.57768H11.3203C11.2218 8.5772 11.1275 8.53773 11.058 8.46791C10.9885 8.39808 10.9495 8.30358 10.9495 8.20508V7.52288C10.9495 7.47418 10.9591 7.42596 10.9777 7.38098C10.9963 7.33599 11.0236 7.29511 11.0581 7.26068C11.0925 7.22625 11.1334 7.19894 11.1784 7.1803C11.2234 7.16167 11.2716 7.15208 11.3203 7.15208H12.0043C12.053 7.15208 12.1012 7.16167 12.1462 7.1803C12.1912 7.19894 12.232 7.22625 12.2665 7.26068C12.3009 7.29511 12.3282 7.33599 12.3469 7.38098C12.3655 7.42596 12.3751 7.47418 12.3751 7.52288V8.20508ZM12.0043 9.36428H11.3203C11.1283 9.36425 10.944 9.43976 10.8073 9.57449C10.6706 9.70921 10.5923 9.89233 10.5895 10.0843V10.7665C10.5895 10.9605 10.6664 11.1465 10.8034 11.2839C10.9404 11.4212 11.1263 11.4986 11.3203 11.4991H12.0043C12.1983 11.4986 12.3841 11.4212 12.5211 11.2839C12.6581 11.1465 12.7351 10.9605 12.7351 10.7665V10.0843C12.7322 9.89233 12.654 9.70921 12.5172 9.57449C12.3805 9.43976 12.1962 9.36425 12.0043 9.36428ZM12.3751 10.7773C12.3751 10.8758 12.3361 10.9703 12.2666 11.0401C12.1971 11.1099 12.1028 11.1494 12.0043 11.1499H11.3203C11.2218 11.1494 11.1275 11.1099 11.058 11.0401C10.9885 10.9703 10.9495 10.8758 10.9495 10.7773V10.0843C10.9523 9.98782 10.9926 9.89625 11.0618 9.82903C11.1311 9.76181 11.2238 9.72423 11.3203 9.72428H12.0043C12.1008 9.72423 12.1935 9.76181 12.2627 9.82903C12.332 9.89625 12.3723 9.98782 12.3751 10.0843V10.7773ZM12.0043 11.9221H11.3203C11.2243 11.9221 11.1293 11.941 11.0406 11.9777C10.9519 12.0144 10.8714 12.0683 10.8035 12.1361C10.7357 12.204 10.6818 12.2845 10.6451 12.3732C10.6084 12.4619 10.5895 12.5569 10.5895 12.6529V13.3351C10.5895 13.5291 10.6664 13.7151 10.8034 13.8525C10.9404 13.9898 11.1263 14.0672 11.3203 14.0677H12.0043C12.1983 14.0672 12.3841 13.9898 12.5211 13.8525C12.6581 13.7151 12.7351 13.5291 12.7351 13.3351V12.6529C12.7351 12.4591 12.6581 12.2732 12.521 12.1361C12.384 11.9991 12.1981 11.9221 12.0043 11.9221ZM12.3751 13.3351C12.3751 13.4336 12.3361 13.5281 12.2666 13.5979C12.1971 13.6677 12.1028 13.7072 12.0043 13.7077H11.3203C11.2218 13.7072 11.1275 13.6677 11.058 13.5979C10.9885 13.5281 10.9495 13.4336 10.9495 13.3351V12.6529C10.9495 12.5545 10.9885 12.4602 11.0581 12.3907C11.1276 12.3211 11.2219 12.2821 11.3203 12.2821H12.0043C12.1026 12.2821 12.1969 12.3211 12.2665 12.3907C12.336 12.4602 12.3751 12.5545 12.3751 12.6529V13.3351ZM14.6773 6.79208H13.9951C13.8011 6.79207 13.615 6.86901 13.4777 7.00601C13.3403 7.14301 13.263 7.32889 13.2625 7.52288V8.20508C13.263 8.39923 13.3403 8.58529 13.4776 8.72258C13.6149 8.85986 13.8009 8.9372 13.9951 8.93768H14.6773C14.8713 8.9372 15.0571 8.8598 15.1941 8.72247C15.3311 8.58513 15.4081 8.39906 15.4081 8.20508V7.52288C15.4081 7.32906 15.3311 7.14317 15.194 7.00612C15.057 6.86907 14.8711 6.79208 14.6773 6.79208ZM15.0481 8.20508C15.0481 8.30358 15.0091 8.39808 14.9396 8.46791C14.8701 8.53773 14.7758 8.5772 14.6773 8.57768H13.9951C13.8963 8.57768 13.8015 8.53842 13.7316 8.46854C13.6617 8.39867 13.6225 8.30389 13.6225 8.20508V7.52288C13.623 7.42437 13.6624 7.33006 13.7322 7.26057C13.8021 7.19108 13.8966 7.15207 13.9951 7.15208H14.6773C14.726 7.15208 14.7742 7.16167 14.8192 7.1803C14.8642 7.19894 14.905 7.22625 14.9395 7.26068C14.9739 7.29511 15.0012 7.33599 15.0199 7.38098C15.0385 7.42596 15.0481 7.47418 15.0481 7.52288V8.20508ZM14.6773 9.36428H13.9951C13.8029 9.36425 13.6185 9.4397 13.4815 9.57438C13.3444 9.70905 13.2658 9.89217 13.2625 10.0843V10.7665C13.263 10.9606 13.3403 11.1467 13.4776 11.284C13.6149 11.4213 13.8009 11.4986 13.9951 11.4991H14.6773C14.8713 11.4986 15.0571 11.4212 15.1941 11.2839C15.3311 11.1465 15.4081 10.9605 15.4081 10.7665V10.0843C15.4052 9.89233 15.327 9.70921 15.1902 9.57449C15.0535 9.43976 14.8692 9.36425 14.6773 9.36428ZM15.0481 10.7773C15.0481 10.8758 15.0091 10.9703 14.9396 11.0401C14.8701 11.1099 14.7758 11.1494 14.6773 11.1499H13.9951C13.8963 11.1499 13.8015 11.1106 13.7316 11.0407C13.6617 10.9709 13.6225 10.8761 13.6225 10.7773V10.0843C13.6257 9.98766 13.6664 9.89609 13.736 9.82892C13.8055 9.76174 13.8984 9.72422 13.9951 9.72428H14.6773C14.7738 9.72423 14.8665 9.76181 14.9357 9.82903C15.005 9.89625 15.0453 9.98782 15.0481 10.0843V10.7773ZM14.6773 11.9221H13.9951C13.8011 11.9221 13.615 11.999 13.4777 12.136C13.3403 12.273 13.263 12.4589 13.2625 12.6529V13.3351C13.263 13.5292 13.3403 13.7153 13.4776 13.8526C13.6149 13.9899 13.8009 14.0672 13.9951 14.0677H14.6773C14.8713 14.0672 15.0571 13.9898 15.1941 13.8525C15.3311 13.7151 15.4081 13.5291 15.4081 13.3351V12.6529C15.4081 12.4591 15.3311 12.2732 15.194 12.1361C15.057 11.9991 14.8711 11.9221 14.6773 11.9221ZM15.0481 13.3351C15.0481 13.4336 15.0091 13.5281 14.9396 13.5979C14.8701 13.6677 14.7758 13.7072 14.6773 13.7077H13.9951C13.8963 13.7077 13.8015 13.6684 13.7316 13.5985C13.6617 13.5287 13.6225 13.4339 13.6225 13.3351V12.6529C13.623 12.5544 13.6624 12.4601 13.7322 12.3906C13.8021 12.3211 13.8966 12.2821 13.9951 12.2821H14.6773C14.7756 12.2821 14.8699 12.3211 14.9395 12.3907C15.009 12.4602 15.0481 12.5545 15.0481 12.6529V13.3351ZM15.0247 1.54688H8.30708C8.25649 1.54688 8.2064 1.55684 8.15967 1.5762C8.11293 1.59555 8.07047 1.62393 8.0347 1.6597C7.99893 1.69547 7.97056 1.73793 7.9512 1.78467C7.93184 1.8314 7.92188 1.88149 7.92188 1.93208V5.77688C7.92235 5.87872 7.96315 5.97624 8.03533 6.04809C8.10752 6.11994 8.20523 6.16028 8.30708 6.16028H15.0247C15.075 6.16028 15.1249 6.15036 15.1714 6.13109C15.2179 6.11182 15.2602 6.08358 15.2958 6.04798C15.3314 6.01238 15.3596 5.97011 15.3789 5.9236C15.3982 5.87708 15.4081 5.82722 15.4081 5.77688V1.93208C15.4083 1.88158 15.3986 1.83153 15.3794 1.7848C15.3602 1.73808 15.332 1.6956 15.2964 1.65981C15.2608 1.62401 15.2184 1.59561 15.1718 1.57623C15.1252 1.55685 15.0752 1.54687 15.0247 1.54688ZM15.0481 5.77688C15.0481 5.78308 15.0456 5.78903 15.0412 5.79342C15.0368 5.79781 15.0309 5.80028 15.0247 5.80028H8.30708C8.30386 5.80052 8.30062 5.8001 8.29757 5.79904C8.29452 5.79797 8.29172 5.79629 8.28936 5.79409C8.28699 5.79189 8.2851 5.78923 8.28381 5.78627C8.28253 5.7833 8.28187 5.78011 8.28188 5.77688V1.93208C8.28188 1.92539 8.28453 1.91898 8.28926 1.91426C8.29398 1.90953 8.30039 1.90688 8.30708 1.90688H15.0247C15.0279 1.90687 15.0311 1.90752 15.0341 1.90881C15.037 1.9101 15.0397 1.91199 15.0419 1.91435C15.0441 1.91672 15.0458 1.91952 15.0468 1.92257C15.0479 1.92562 15.0483 1.92885 15.0481 1.93208V5.77688Z" fill="#002D38"/>
</g>
<defs>
<clipPath id="clip0_3152_2101">
<rect width="18" height="18" fill="white"/>
</clipPath>
</defs>
</svg>
