<svg width="22" height="22" viewBox="0 0 22 22" fill="none" xmlns="http://www.w3.org/2000/svg">
<g clip-path="url(#clip0_2825_26591)">
<path d="M21.3533 14.8268C21.3563 14.814 21.3563 14.8008 21.3533 14.788C21.3549 14.7827 21.3549 14.7771 21.3533 14.7718L18.118 5.71299V5.68711C18.119 5.67743 18.119 5.66768 18.118 5.65799C18.1039 5.63412 18.0865 5.61234 18.0663 5.59329C18.0436 5.57314 18.0186 5.55576 17.9919 5.54152C17.9651 5.52846 17.9369 5.51868 17.9078 5.5124L17.7945 5.49946H11.971V4.26682C12.3411 4.05316 12.6303 3.72336 12.7938 3.32856C12.9573 2.93377 12.986 2.49605 12.8754 2.08329C12.7648 1.67054 12.5211 1.3058 12.1821 1.04567C11.8431 0.785533 11.4277 0.644531 11.0004 0.644531C10.5731 0.644531 10.1577 0.785533 9.81869 1.04567C9.47967 1.3058 9.23597 1.67054 9.12537 2.08329C9.01477 2.49605 9.04346 2.93377 9.20699 3.32856C9.37052 3.72336 9.65974 4.05316 10.0298 4.26682V5.49946H4.14481C4.1157 5.50574 4.08746 5.51551 4.0607 5.52858C4.03392 5.54282 4.00894 5.5602 3.98628 5.58035C3.9661 5.59939 3.94867 5.62117 3.93452 5.64505C3.93359 5.65474 3.93359 5.66449 3.93452 5.67417V5.70005L0.699226 14.7589C0.697698 14.7642 0.697698 14.7698 0.699226 14.7751C0.696313 14.7878 0.696313 14.8011 0.699226 14.8139C0.675834 14.8311 0.65787 14.8547 0.647461 14.8818C0.647461 15.8257 1.02241 16.7309 1.68982 17.3983C2.35723 18.0657 3.26243 18.4406 4.20628 18.4406C5.15014 18.4406 6.05534 18.0657 6.72275 17.3983C7.39016 16.7309 7.76511 15.8257 7.76511 14.8818C7.76845 14.8636 7.76845 14.845 7.76511 14.8268C7.76802 14.814 7.76802 14.8008 7.76511 14.788C7.76664 14.7827 7.76664 14.7771 7.76511 14.7718L4.6657 6.14652H10.0298V17.4086C9.78232 17.5511 9.56933 17.7465 9.40603 17.9808C9.24273 18.2152 9.13315 18.4826 9.08511 18.7642H6.79452C6.5371 18.7642 6.29023 18.8664 6.10821 19.0484C5.92619 19.2305 5.82393 19.4773 5.82393 19.7348V21.3524H16.1769V19.7348C16.1769 19.4773 16.0746 19.2305 15.8926 19.0484C15.7106 18.8664 15.4637 18.7642 15.2063 18.7642H12.9157C12.8677 18.4826 12.7581 18.2152 12.5948 17.9808C12.4315 17.7465 12.2185 17.5511 11.971 17.4086V6.14652H17.3351L14.2616 14.7556C14.2601 14.7609 14.2601 14.7665 14.2616 14.7718C14.2587 14.7846 14.2587 14.7979 14.2616 14.8106C14.2471 14.8318 14.2382 14.8563 14.2357 14.8818C14.2357 15.8257 14.6106 16.7309 15.2781 17.3983C15.9455 18.0657 16.8507 18.4406 17.7945 18.4406C18.7384 18.4406 19.6436 18.0657 20.311 17.3983C20.9784 16.7309 21.3533 15.8257 21.3533 14.8818C21.3567 14.8636 21.3567 14.845 21.3533 14.8268ZM6.98217 14.5583H1.4304L4.20628 6.79358L6.98217 14.5583ZM15.0186 14.5583L17.7945 6.79358L20.5704 14.5583H15.0186Z" fill="#F5FDFF"/>
</g>
<defs>
<clipPath id="clip0_2825_26591">
<rect width="22" height="22" fill="white"/>
</clipPath>
</defs>
</svg>
