<svg width="16" height="19" viewBox="0 0 16 19" fill="none" xmlns="http://www.w3.org/2000/svg">
<g clip-path="url(#clip0_53_500)">
<path d="M15.3294 4.44818V6.74771L8.04792 6.22756L15.3294 6.78766V8.45722C15.3294 8.67116 15.3244 8.88069 15.3152 9.08591L8.04792 8.52696L15.3131 9.13228C15.2728 9.95777 15.1591 10.7133 14.9883 11.4047L8.04792 10.8264L14.9599 11.5175C14.7458 12.345 14.4493 13.0789 14.0985 13.7291C14.0748 13.7278 14.051 13.7261 14.0271 13.7237L8.04792 13.1258L2.06869 13.7237C2.04477 13.7261 2.02094 13.7278 1.99721 13.7291C1.64651 13.0789 1.34991 12.345 1.13587 11.5175L8.04792 10.8264L1.10742 11.4047C0.936616 10.7133 0.822978 9.95777 0.782757 9.13228L8.04792 8.52696L0.780697 9.08591C0.771414 8.88069 0.766479 8.67116 0.766479 8.45722C0.766479 7.85123 0.766479 7.29611 0.766479 6.78766L8.04792 6.22756L0.766479 6.74771V4.44818L8.04792 3.92816L15.3294 4.44818Z" fill="url(#paint0_radial_53_500)"/>
<path d="M1.53293 2.78714C1.53293 2.29289 1.99383 2.28679 2.47495 2.1736L7.87238 0.903618C7.98783 0.876447 8.10797 0.876447 8.22342 0.903618L13.6209 2.17359C14.1019 2.28679 14.5629 2.29289 14.5629 2.78714C14.5629 3.58444 14.5629 5.24045 14.5629 8.52698C14.5629 15.4474 9.25163 17.369 8.22026 17.6771C8.10663 17.711 7.98917 17.711 7.87554 17.6771C6.84416 17.369 1.53294 15.4474 1.53293 8.52698C1.53293 5.24045 1.53293 3.58443 1.53293 2.78714Z" fill="url(#paint1_linear_53_500)"/>
<path d="M3.06586 3.5811C3.06586 3.55681 3.07786 3.54262 3.10172 3.53803L7.90313 2.61469C7.99874 2.59629 8.09704 2.59629 8.19266 2.61469L12.9941 3.53803C13.018 3.54262 13.0299 3.55681 13.0299 3.5811C13.0299 3.73358 13.0299 4.52892 13.0299 8.67748C13.0299 13.2782 9.02696 15.5146 8.19726 15.9286C8.10126 15.9765 7.99453 15.9765 7.89853 15.9286C7.06883 15.5146 3.06586 13.2782 3.06586 8.67748C3.06586 4.52891 3.06586 3.73358 3.06586 3.5811Z" fill="url(#paint2_linear_53_500)"/>
<path d="M7.71677 6.02965C7.86451 5.77584 8.23117 5.77584 8.379 6.02965L8.95404 7.01683C9.00817 7.10986 9.09891 7.17578 9.2041 7.19848L10.3207 7.4403C10.6077 7.50248 10.721 7.85113 10.5253 8.07024L9.7641 8.92208C9.69244 9.00236 9.65776 9.109 9.66858 9.21602L9.78365 10.3527C9.81325 10.6449 9.51663 10.8604 9.24789 10.742L8.20243 10.2813C8.10394 10.2379 7.99184 10.2379 7.89335 10.2813L6.84789 10.742C6.57915 10.8604 6.28252 10.6449 6.31213 10.3527L6.42719 9.21602C6.43802 9.109 6.40334 9.00236 6.33167 8.92208L5.57047 8.07024C5.37474 7.85113 5.48808 7.50248 5.77512 7.4403L6.89167 7.19848C6.99687 7.17578 7.0876 7.10986 7.14173 7.01683L7.71677 6.02965Z" fill="url(#paint3_linear_53_500)"/>
</g>
<defs>
<radialGradient id="paint0_radial_53_500" cx="0" cy="0" r="1" gradientUnits="userSpaceOnUse" gradientTransform="translate(8.04792 7.7605) rotate(90) scale(11.5667 7.72008)">
<stop/>
<stop offset="1" stop-opacity="0"/>
</radialGradient>
<linearGradient id="paint1_linear_53_500" x1="8.0479" y1="0.0958385" x2="8.0479" y2="18.491" gradientUnits="userSpaceOnUse">
<stop stop-color="#FFEAA7"/>
<stop offset="0.25" stop-color="#FFCC5D"/>
<stop offset="0.75" stop-color="#FFB23E"/>
<stop offset="1" stop-color="#E49814"/>
</linearGradient>
<linearGradient id="paint2_linear_53_500" x1="8.04789" y1="2.20361" x2="8.04789" y2="16.3833" gradientUnits="userSpaceOnUse">
<stop stop-color="#E49814"/>
<stop offset="0.25" stop-color="#C97F00"/>
<stop offset="0.75" stop-color="#AF6700"/>
<stop offset="1" stop-color="#954F00"/>
</linearGradient>
<linearGradient id="paint3_linear_53_500" x1="8.04789" y1="5.46109" x2="8.04789" y2="11.5928" gradientUnits="userSpaceOnUse">
<stop stop-color="#FFEAA7"/>
<stop offset="0.5" stop-color="#FFCC5D"/>
<stop offset="1" stop-color="#FFB23E"/>
</linearGradient>
<clipPath id="clip0_53_500">
<rect width="16" height="18.5868" fill="white"/>
</clipPath>
</defs>
</svg>
