<svg width="64" height="64" viewBox="0 0 64 64" fill="none" xmlns="http://www.w3.org/2000/svg">
<path d="M35.3196 30.1001C36.5678 31.7094 37.1558 33.7339 36.9641 35.7614C36.7723 37.789 35.8152 39.6673 34.2874 41.0141C32.7597 42.3609 30.7762 43.0749 28.7406 43.0109C26.705 42.9469 24.7703 42.1097 23.3302 40.6696C21.8901 39.2295 21.0528 37.2947 20.9888 35.2591C20.9248 33.2235 21.6388 31.24 22.9856 29.7123C24.3324 28.1846 26.2107 27.2274 28.2383 27.0357C30.2659 26.8439 32.2903 27.4319 33.8996 28.6801L40.2796 22.3101C36.9648 19.362 32.6315 17.8218 28.1997 18.0164C23.7678 18.211 19.5862 20.125 16.5425 23.3523C13.4987 26.5795 11.8325 30.8658 11.8973 35.3015C11.9622 39.7372 13.7531 43.9729 16.89 47.1098C20.0268 50.2466 24.2626 52.0375 28.6982 52.1024C33.1339 52.1673 37.4202 50.501 40.6475 47.4573C43.8747 44.4135 45.7887 40.2319 45.9833 35.8001C46.1779 31.3682 44.6377 27.035 41.6896 23.7201L35.3196 30.1001Z" fill="#EAF7FA"/>
<path d="M48.0002 35C48.0052 39.3586 46.5131 43.5866 43.7737 46.9767C41.0344 50.3668 37.2138 52.7133 32.9514 53.6235C28.689 54.5338 24.2432 53.9527 20.358 51.9773C16.4728 50.002 13.3838 46.7523 11.6079 42.772C9.83195 38.7917 9.47683 34.3222 10.6019 30.1113C11.727 25.9005 14.2641 22.2038 17.7887 19.6397C21.3132 17.0757 25.6114 15.7998 29.9641 16.0255C34.3168 16.2513 38.4599 17.9651 41.7002 20.88L47.3602 15.23C42.1676 10.4068 35.2893 7.8144 28.2049 8.01035C21.1206 8.2063 14.3961 11.175 9.47799 16.2779C4.5599 21.3807 1.8411 28.21 1.90642 35.2968C1.97175 42.3836 4.81597 49.1617 9.8273 54.173C14.8386 59.1843 21.6167 62.0285 28.7035 62.0939C35.7903 62.1592 42.6196 59.4404 47.7224 54.5223C52.8253 49.6042 55.794 42.8797 55.9899 35.7953C56.1859 28.711 53.5934 21.8327 48.7702 16.64L43.1202 22.3C46.2641 25.7826 48.0031 30.3083 48.0002 35Z" fill="#EAF7FA"/>
<path d="M32.4705 30.1094C31.242 29.237 29.7307 28.8578 28.2359 29.047C26.741 29.2362 25.3718 29.9799 24.3995 31.1309C23.4271 32.2819 22.9226 33.7561 22.9858 35.2615C23.049 36.767 23.6753 38.1937 24.7408 39.2591C25.8062 40.3245 27.2329 40.9509 28.7383 41.0141C30.2437 41.0773 31.718 40.5728 32.869 39.6004C34.02 38.6281 34.7637 37.2588 34.9529 35.764C35.1421 34.2692 34.7629 32.7579 33.8905 31.5294L29.7105 35.7094C29.5209 35.8953 29.266 35.9994 29.0005 35.9994C28.7349 35.9994 28.48 35.8953 28.2905 35.7094C28.1031 35.5206 27.998 35.2654 27.998 34.9994C27.998 34.7334 28.1031 34.4782 28.2905 34.2894L32.4705 30.1094ZM53.8105 15.8194C53.9092 15.8585 54.0143 15.8789 54.1205 15.8794C54.2528 15.8789 54.3837 15.8521 54.5055 15.8006C54.6274 15.7491 54.7379 15.674 54.8305 15.5794L61.7105 8.70943C61.84 8.5756 61.9308 8.40908 61.9731 8.22766C62.0153 8.04625 62.0075 7.85675 61.9505 7.67943C61.8924 7.50274 61.7855 7.34607 61.6422 7.22752C61.4988 7.10896 61.3249 7.03336 61.1405 7.00943L57.5105 6.48943L56.9905 2.85943C56.9665 2.67498 56.8909 2.50105 56.7724 2.35772C56.6538 2.2144 56.4972 2.10752 56.3205 2.04943C56.1431 1.99236 55.9536 1.98455 55.7722 2.02682C55.5908 2.06909 55.4243 2.15986 55.2905 2.28943L48.4205 9.16943C48.289 9.29997 48.1969 9.46476 48.1544 9.64508C48.112 9.82539 48.121 10.014 48.1805 10.1894L49.2305 13.3494L47.3605 15.2294C47.8505 15.6794 48.3205 16.1494 48.7705 16.6394L50.6505 14.7694L53.8105 15.8194Z" fill="#EAF7FA"/>
</svg>
