<svg width="32" height="32" viewBox="0 0 32 32" fill="none" xmlns="http://www.w3.org/2000/svg">
<g clip-path="url(#clip0_2884_65)">
<path d="M6.17106 21.8922L9.21363 17.6998C10.4085 16.0453 12.8941 15.5458 14.3609 17.575L14.9556 18.3847C16.054 19.936 18.4809 20.3832 19.9941 17.6534L24.2025 9.14436" stroke="#F5FDFF" stroke-width="1.52114" stroke-linecap="round" stroke-linejoin="round"/>
<path d="M20.121 9.94502L23.2083 9.02795C23.9944 8.80256 24.5921 8.97062 24.8259 9.75787L25.7949 13.0201" stroke="#F5FDFF" stroke-width="1.52114" stroke-linecap="round" stroke-linejoin="round"/>
<path d="M6.06557 15.856L5.932 8.20394C5.90259 6.51877 7.23557 5.13843 8.92074 5.10901L25.608 4.81774M25.866 17.1269L25.9431 21.547C25.9725 23.2322 24.6396 24.6125 22.9544 24.642L9.26621 24.8809C7.58104 24.9103 6.2007 23.5773 6.17128 21.8922" stroke="#F5FDFF" stroke-width="1.52114" stroke-linecap="round" stroke-linejoin="round"/>
</g>
<defs>
<clipPath id="clip0_2884_65">
<rect width="31.33" height="31.33" fill="white"/>
</clipPath>
</defs>
</svg>
